<svg width="36" height="36" viewBox="0 0 36 36" fill="none" xmlns="http://www.w3.org/2000/svg">
<path d="M11.8597 16.5493C11.12 16.5518 10.3933 16.7447 9.74969 17.1093C10.6558 14.7638 12.1587 12.6956 14.1097 11.1093C14.2213 11.0174 14.3137 10.9044 14.3817 10.7768C14.4496 10.6491 14.4918 10.5093 14.5057 10.3654C14.5196 10.2215 14.5051 10.0762 14.4629 9.9379C14.4207 9.7996 14.3516 9.67096 14.2597 9.55934C14.1678 9.44772 14.0548 9.35529 13.9271 9.28734C13.7995 9.21939 13.6597 9.17725 13.5158 9.16332C13.3718 9.14939 13.2266 9.16395 13.0883 9.20616C12.9499 9.24837 12.8213 9.31741 12.7097 9.40934C8.70969 12.6593 6.92969 17.1593 6.92969 19.9493C6.93658 20.9358 7.23056 21.899 7.77573 22.7212C8.3209 23.5434 9.09367 24.189 9.99969 24.5793C10.586 24.8634 11.2282 25.0137 11.8797 25.0193C12.4531 25.0472 13.0263 24.9583 13.5644 24.7581C14.1025 24.5578 14.5943 24.2504 15.01 23.8544C15.4257 23.4584 15.7567 22.9821 15.9828 22.4544C16.2089 21.9266 16.3255 21.3585 16.3255 20.7843C16.3255 20.2102 16.2089 19.642 15.9828 19.1143C15.7567 18.5866 15.4257 18.1103 15.01 17.7143C14.5943 17.3183 14.1025 17.0108 13.5644 16.8106C13.0263 16.6103 12.4531 16.5215 11.8797 16.5493H11.8597Z" fill="#CF94F9"/>
<path d="M23.0003 16.5495C22.2605 16.5511 21.5336 16.744 20.8903 17.1095C21.7961 14.7665 23.2951 12.699 25.2403 11.1095C25.3621 11.0218 25.4646 10.91 25.5415 10.7812C25.6185 10.6523 25.6682 10.5091 25.6878 10.3602C25.7073 10.2114 25.6961 10.0602 25.655 9.91584C25.6139 9.7715 25.5437 9.63709 25.4487 9.5209C25.3537 9.40471 25.2359 9.30918 25.1026 9.24021C24.9693 9.17124 24.8233 9.13028 24.6736 9.11985C24.5238 9.10942 24.3736 9.12973 24.232 9.17955C24.0904 9.22937 23.9605 9.30764 23.8503 9.40953C19.8503 12.6595 18.0703 17.1595 18.0703 19.9495C18.0751 20.9249 18.3605 21.8782 18.8924 22.6957C19.4244 23.5131 20.1805 24.1602 21.0703 24.5595C21.6715 24.8519 22.3318 25.0024 23.0003 24.9995C23.5738 25.0274 24.1469 24.9385 24.685 24.7383C25.2231 24.538 25.7149 24.2306 26.1306 23.8346C26.5463 23.4386 26.8773 22.9623 27.1034 22.4346C27.3296 21.9068 27.4462 21.3387 27.4462 20.7645C27.4462 20.1904 27.3296 19.6222 27.1034 19.0945C26.8773 18.5668 26.5463 18.0905 26.1306 17.6945C25.7149 17.2985 25.2231 16.991 24.685 16.7908C24.1469 16.5905 23.5738 16.5017 23.0003 16.5295V16.5495Z" fill="#CF94F9"/>
</svg>
