<svg width="249" height="515" viewBox="0 0 249 515" fill="none" xmlns="http://www.w3.org/2000/svg">
<path d="M123.532 485.5C113.191 485.5 103.262 479.239 94.1587 467.733C85.0597 456.233 76.8436 439.561 69.9344 418.915C56.1176 377.629 47.5631 320.56 47.5631 257.5C47.5631 194.44 56.1176 137.371 69.9344 96.0848C76.8436 75.4388 85.0597 58.767 94.1587 47.2669C103.262 35.7614 113.192 29.5 123.532 29.5C133.872 29.5 143.801 35.7614 152.904 47.2669C162.003 58.767 170.22 75.4388 177.129 96.0848C190.946 137.371 199.5 194.44 199.5 257.5C199.5 320.56 190.946 377.629 177.129 418.915C170.219 439.561 162.003 456.233 152.904 467.733C143.801 479.239 133.872 485.5 123.532 485.5Z" stroke="url(#paint0_linear_326_19647)"/>
<g opacity="0.3" filter="url(#filter0_f_326_19647)">
<ellipse cx="54.6806" cy="257.5" rx="143.258" ry="21.6807" transform="rotate(90 54.6806 257.5)" fill="#8322FF"/>
</g>
<g opacity="0.3" filter="url(#filter1_f_326_19647)">
<ellipse cx="76.3614" cy="257.499" rx="87.8348" ry="28.7123" transform="rotate(90 76.3614 257.499)" fill="#9038FF"/>
</g>
<g opacity="0.3" filter="url(#filter2_f_326_19647)">
<ellipse cx="83.9791" cy="257.499" rx="38.5695" ry="50.979" transform="rotate(90 83.9791 257.499)" fill="#9038FF"/>
</g>
<defs>
<filter id="filter0_f_326_19647" x="-81" y="0.242188" width="271.361" height="514.516" filterUnits="userSpaceOnUse" color-interpolation-filters="sRGB">
<feFlood flood-opacity="0" result="BackgroundImageFix"/>
<feBlend mode="normal" in="SourceGraphic" in2="BackgroundImageFix" result="shape"/>
<feGaussianBlur stdDeviation="57" result="effect1_foregroundBlur_326_19647"/>
</filter>
<filter id="filter1_f_326_19647" x="-66.3508" y="55.6641" width="285.425" height="403.67" filterUnits="userSpaceOnUse" color-interpolation-filters="sRGB">
<feFlood flood-opacity="0" result="BackgroundImageFix"/>
<feBlend mode="normal" in="SourceGraphic" in2="BackgroundImageFix" result="shape"/>
<feGaussianBlur stdDeviation="57" result="effect1_foregroundBlur_326_19647"/>
</filter>
<filter id="filter2_f_326_19647" x="-81" y="104.93" width="329.958" height="305.139" filterUnits="userSpaceOnUse" color-interpolation-filters="sRGB">
<feFlood flood-opacity="0" result="BackgroundImageFix"/>
<feBlend mode="normal" in="SourceGraphic" in2="BackgroundImageFix" result="shape"/>
<feGaussianBlur stdDeviation="57" result="effect1_foregroundBlur_326_19647"/>
</filter>
<linearGradient id="paint0_linear_326_19647" x1="152.244" y1="269.33" x2="47.0631" y2="269.33" gradientUnits="userSpaceOnUse">
<stop stop-color="#8B68C5" stop-opacity="0"/>
<stop offset="1" stop-color="#8B68C5"/>
</linearGradient>
</defs>
</svg>
