<svg width="153" height="457" viewBox="0 0 153 457" fill="none" xmlns="http://www.w3.org/2000/svg">
<path d="M76.4684 456.5C86.8085 456.5 96.738 450.239 105.841 438.733C114.94 427.233 123.156 410.561 130.066 389.915C143.882 348.629 152.437 291.56 152.437 228.5C152.437 165.44 143.882 108.371 130.066 67.0848C123.156 46.4388 114.94 29.767 105.841 18.2669C96.738 6.76138 86.8085 0.499997 76.4684 0.499997C66.1283 0.499998 56.1989 6.76138 47.0956 18.2669C37.9966 29.767 29.7805 46.4388 22.8712 67.0848C9.05448 108.371 0.500009 165.44 0.500013 228.5C0.500017 291.56 9.0545 348.629 22.8713 389.915C29.7805 410.561 37.9966 427.233 47.0956 438.733C56.1989 450.239 66.1284 456.5 76.4684 456.5Z" stroke="url(#paint0_linear_326_19653)"/>
<defs>
<linearGradient id="paint0_linear_326_19653" x1="47.7562" y1="240.33" x2="152.937" y2="240.33" gradientUnits="userSpaceOnUse">
<stop stop-color="#8B68C5" stop-opacity="0"/>
<stop offset="1" stop-color="#8B68C5"/>
</linearGradient>
</defs>
</svg>
