<svg width="153" height="457" viewBox="0 0 153 457" fill="none" xmlns="http://www.w3.org/2000/svg">
<path d="M76.5316 456.5C66.1915 456.5 56.262 450.239 47.1587 438.733C38.0597 427.233 29.8436 410.561 22.9344 389.915C9.11761 348.629 0.563139 291.56 0.563143 228.5C0.563147 165.44 9.11762 108.371 22.9344 67.0848C29.8436 46.4388 38.0597 29.767 47.1587 18.2669C56.262 6.76138 66.1915 0.499997 76.5316 0.499997C86.8717 0.499998 96.8011 6.76138 105.904 18.2669C115.003 29.767 123.22 46.4388 130.129 67.0848C143.946 108.371 152.5 165.44 152.5 228.5C152.5 291.56 143.946 348.629 130.129 389.915C123.219 410.561 115.003 427.233 105.904 438.733C96.8011 450.239 86.8716 456.5 76.5316 456.5Z" stroke="url(#paint0_linear_326_19648)"/>
<defs>
<linearGradient id="paint0_linear_326_19648" x1="105.244" y1="240.33" x2="0.0631389" y2="240.33" gradientUnits="userSpaceOnUse">
<stop stop-color="#8B68C5" stop-opacity="0"/>
<stop offset="1" stop-color="#8B68C5"/>
</linearGradient>
</defs>
</svg>
