<svg width="208" height="99" viewBox="0 0 208 99" fill="none" xmlns="http://www.w3.org/2000/svg">
<g clip-path="url(#clip0_179_9649)">
<path d="M124.046 34.4048H115.354V31.5231H126.859V58.9703H124.046V34.4048ZM85.3366 50.9393H82.5239V78.1976H97.7172V75.3158H85.3366V50.9393ZM88.6565 27.1297H88.011V26.5155V23.1378V22.689H88.7027H89.4865H89.9015H90.0399H90.109C91.4232 22.7126 92.3454 23.6574 92.3454 24.9093C92.3454 26.1612 91.4232 27.106 90.086 27.1297H90.0629H89.9246H89.5096H88.6565ZM88.841 26.3502H90.086C90.939 26.3266 91.5154 25.736 91.5154 24.9093C91.5154 24.0826 90.9621 23.4684 90.109 23.4448H88.864H88.7949V26.3502H88.841ZM84.3222 27.1297H85.083H86.8583V26.3502H85.083V23.4684H86.8583V22.689H85.083H84.3222H82.5239V23.4684H84.2991V26.3502H82.5239V27.1297H84.3222ZM103.135 24.9093C103.135 26.2321 102.075 27.3186 100.76 27.3186C99.4463 27.3186 98.3858 26.2321 98.3858 24.9093C98.3627 23.5866 99.4233 22.5 100.737 22.5C102.052 22.5 103.135 23.5866 103.135 24.9093ZM100.737 23.3267C99.8844 23.3267 99.1697 24.0353 99.1697 24.9093C99.1697 25.7833 99.8613 26.4919 100.737 26.4919C101.59 26.4919 102.305 25.7833 102.305 24.9093C102.305 24.0353 101.613 23.3267 100.737 23.3267ZM93.2906 22.689V23.4684V26.3502V27.1297H96.5414H97.6711V26.3502H94.0975V25.2872H96.8872V24.5314H94.0745V23.4684H97.648V22.689H96.4953H93.2906ZM113.164 38.5857C113.164 42.6248 109.959 45.6955 106.017 45.6955C102.075 45.6955 98.9161 42.6248 98.9161 38.5857C98.9161 34.5702 102.075 31.4759 106.017 31.4759C109.959 31.4759 113.164 34.5702 113.164 38.5857ZM106.04 34.0741C103.55 34.0741 101.729 35.9638 101.729 38.5857C101.729 41.2548 103.527 43.0972 106.04 43.0972C108.507 43.0972 110.351 41.2548 110.351 38.5857C110.351 35.9638 108.507 34.0741 106.04 34.0741ZM89.4404 45.7191C92.0456 45.7191 94.2128 44.42 95.3656 42.3177L93.2906 40.8296C92.3915 42.2941 91.1465 43.1445 89.4635 43.1445C86.9735 43.1445 85.1291 41.3021 85.1291 38.6565C85.1291 35.9638 86.9735 34.0741 89.4635 34.0741C91.1465 34.0741 92.4145 34.9245 93.2906 36.389L95.3656 34.9009C94.1898 32.7986 92.0456 31.4759 89.4635 31.4759C85.475 31.4759 82.3164 34.5465 82.3164 38.5857C82.3164 42.6248 85.4519 45.7191 89.4404 45.7191ZM122.663 78.1976H118.075H116.738V64.5684H119.366H121.464C123.931 64.5684 125.683 66.1274 125.683 68.3714C125.683 69.387 125.314 70.2138 124.692 70.8279C126.167 71.3712 127.043 72.5522 127.043 74.2057C127.043 76.5441 125.245 78.1976 122.663 78.1976ZM119.366 70.0721H121.233C122.363 70.0721 122.962 69.4343 122.962 68.5131C122.962 67.5683 122.363 66.9541 121.233 66.9541H119.366V70.0721ZM124.369 74.0876C124.369 73.0246 123.654 72.3633 122.478 72.3633H119.366V75.7883H122.478C123.654 75.7883 124.369 75.1505 124.369 74.0876ZM103.55 78.1976H100.668L106.501 64.5684H107.4L113.21 78.1976H110.328L109.591 76.4496H104.242L103.55 78.1976ZM106.939 69.6941L105.21 74.2057H108.645L106.939 69.6941Z" fill="white"/>
</g>
<defs>
<clipPath id="clip0_179_9649">
<rect width="44.7268" height="55.6976" fill="white" transform="translate(82.3164 22.498)"/>
</clipPath>
</defs>
</svg>
