<svg width="1109" height="113" viewBox="0 0 1109 113" fill="none" xmlns="http://www.w3.org/2000/svg">
<path d="M81.2364 40.4655C86.3354 39.753 91.5279 40.1425 96.4635 41.6077C101.399 43.0729 105.963 45.5797 109.847 48.9589C113.732 52.3382 116.846 56.5113 118.98 61.1967C121.114 65.882 122.219 70.9706 122.219 76.1191" stroke="white"/>
<path d="M108.719 47.6191L143.247 12.3401C150.583 4.84404 160.63 0.619141 171.119 0.619141H314.719" stroke="url(#paint0_linear_326_12391)"/>
<path d="M4.0967 73.6191H1.78988L5.3048 63.4373H8.07895L11.5889 73.6191H9.28207L6.73165 65.764H6.6521L4.0967 73.6191ZM3.95253 69.617H9.40139V71.2974H3.95253V69.617ZM14.9671 63.4373V73.6191H12.8144V63.4373H14.9671ZM21.8179 63.4373L24.2789 71.1731H24.3733L26.8392 63.4373H29.2256L25.7157 73.6191H22.9415L19.4266 63.4373H21.8179ZM33.0301 73.7683C32.2446 73.7683 31.5685 73.6092 31.0017 73.291C30.4383 72.9695 30.0041 72.5154 29.6992 71.9288C29.3942 71.3388 29.2418 70.6412 29.2418 69.8358C29.2418 69.0502 29.3942 68.3609 29.6992 67.7676C30.0041 67.1743 30.4333 66.7119 30.9868 66.3805C31.5436 66.0491 32.1965 65.8833 32.9456 65.8833C33.4494 65.8833 33.9184 65.9645 34.3526 66.127C34.7901 66.286 35.1712 66.5263 35.496 66.8478C35.8242 67.1693 36.0794 67.5737 36.2617 68.0609C36.4439 68.5448 36.5351 69.1116 36.5351 69.7612V70.3429H30.0869V69.0304H34.5415C34.5415 68.7254 34.4752 68.4553 34.3426 68.22C34.21 67.9847 34.0261 67.8007 33.7908 67.6681C33.5588 67.5323 33.2886 67.4643 32.9804 67.4643C32.6589 67.4643 32.3739 67.5389 32.1253 67.688C31.88 67.8339 31.6878 68.0311 31.5486 68.2797C31.4094 68.5249 31.3381 68.7984 31.3348 69.1V70.3478C31.3348 70.7257 31.4044 71.0521 31.5436 71.3272C31.6861 71.6023 31.8867 71.8145 32.1452 71.9636C32.4037 72.1127 32.7103 72.1873 33.0649 72.1873C33.3002 72.1873 33.5157 72.1542 33.7112 72.0879C33.9068 72.0216 34.0742 71.9222 34.2134 71.7896C34.3526 71.657 34.4586 71.4946 34.5315 71.3024L36.4903 71.4316C36.3909 71.9023 36.1871 72.3133 35.8788 72.6646C35.5739 73.0126 35.1795 73.2844 34.6956 73.4799C34.215 73.6722 33.6599 73.7683 33.0301 73.7683ZM37.9172 73.6191V65.9828H39.9705V67.3152H40.05C40.1892 66.8412 40.4229 66.4833 40.751 66.2413C41.0791 65.996 41.457 65.8734 41.8845 65.8734C41.9906 65.8734 42.1049 65.88 42.2276 65.8933C42.3502 65.9065 42.4579 65.9248 42.5507 65.948V67.8272C42.4513 67.7974 42.3137 67.7709 42.1381 67.7477C41.9624 67.7245 41.8017 67.7129 41.6558 67.7129C41.3443 67.7129 41.0659 67.7808 40.8206 67.9167C40.5787 68.0493 40.3864 68.2349 40.2439 68.4735C40.1047 68.7122 40.0351 68.9873 40.0351 69.2988V73.6191H37.9172ZM43.6457 73.6191V65.9828H45.7636V73.6191H43.6457ZM44.7096 64.9984C44.3948 64.9984 44.1246 64.894 43.8993 64.6852C43.6772 64.4731 43.5662 64.2195 43.5662 63.9245C43.5662 63.6329 43.6772 63.3826 43.8993 63.1738C44.1246 62.9617 44.3948 62.8556 44.7096 62.8556C45.0245 62.8556 45.293 62.9617 45.515 63.1738C45.7404 63.3826 45.8531 63.6329 45.8531 63.9245C45.8531 64.2195 45.7404 64.4731 45.515 64.6852C45.293 64.894 45.0245 64.9984 44.7096 64.9984ZM51.5667 65.9828V67.5737H46.8536V65.9828H51.5667ZM47.9325 73.6191V65.4309C47.9325 64.8774 48.0402 64.4184 48.2556 64.0538C48.4744 63.6892 48.7727 63.4158 49.1505 63.2335C49.5283 63.0512 49.9576 62.96 50.4381 62.96C50.763 62.96 51.0596 62.9849 51.3281 63.0346C51.5998 63.0843 51.802 63.1291 51.9346 63.1689L51.5568 64.7598C51.4739 64.7333 51.3711 64.7084 51.2485 64.6852C51.1292 64.662 51.0066 64.6504 50.8806 64.6504C50.5691 64.6504 50.352 64.7233 50.2293 64.8691C50.1067 65.0117 50.0454 65.2122 50.0454 65.4707V73.6191H47.9325ZM52.8606 73.6191V65.9828H54.9784V73.6191H52.8606ZM53.9245 64.9984C53.6096 64.9984 53.3395 64.894 53.1141 64.6852C52.892 64.4731 52.781 64.2195 52.781 63.9245C52.781 63.6329 52.892 63.3826 53.1141 63.1738C53.3395 62.9617 53.6096 62.8556 53.9245 62.8556C54.2393 62.8556 54.5078 62.9617 54.7299 63.1738C54.9552 63.3826 55.0679 63.6329 55.0679 63.9245C55.0679 64.2195 54.9552 64.4731 54.7299 64.6852C54.5078 64.894 54.2393 64.9984 53.9245 64.9984ZM60.1253 73.7683C59.3431 73.7683 58.6703 73.6026 58.1068 73.2711C57.5467 72.9364 57.1158 72.4724 56.8142 71.8791C56.5159 71.2858 56.3668 70.603 56.3668 69.8308C56.3668 69.0486 56.5176 68.3625 56.8192 67.7725C57.1241 67.1793 57.5566 66.7169 58.1168 66.3855C58.6769 66.0507 59.3431 65.8833 60.1153 65.8833C60.7815 65.8833 61.3649 66.0043 61.8653 66.2463C62.3658 66.4882 62.7619 66.8279 63.0536 67.2654C63.3452 67.7029 63.506 68.2167 63.5358 68.8066H61.5372C61.4809 68.4255 61.3317 68.1189 61.0898 67.8869C60.8511 67.6516 60.5379 67.5339 60.1501 67.5339C59.822 67.5339 59.5353 67.6234 59.2901 67.8024C59.0481 67.978 58.8592 68.2349 58.7233 68.573C58.5874 68.911 58.5195 69.3204 58.5195 69.801C58.5195 70.2882 58.5858 70.7025 58.7183 71.0439C58.8542 71.3852 59.0448 71.6454 59.2901 71.8244C59.5353 72.0034 59.822 72.0929 60.1501 72.0929C60.3921 72.0929 60.6092 72.0431 60.8014 71.9437C60.997 71.8443 61.1577 71.7001 61.2837 71.5112C61.4129 71.319 61.4974 71.0886 61.5372 70.8201H63.5358C63.5027 71.4035 63.3436 71.9172 63.0585 72.3613C62.7768 72.8021 62.3874 73.1468 61.8902 73.3954C61.393 73.644 60.8047 73.7683 60.1253 73.7683ZM67.0694 73.7633C66.5821 73.7633 66.148 73.6788 65.7668 73.5098C65.3856 73.3374 65.084 73.0839 64.862 72.7491C64.6432 72.411 64.5338 71.9901 64.5338 71.4863C64.5338 71.0621 64.6117 70.7058 64.7675 70.4174C64.9233 70.1291 65.1354 69.8971 65.4039 69.7214C65.6723 69.5458 65.9773 69.4132 66.3186 69.3237C66.6633 69.2342 67.0246 69.1712 67.4025 69.1348C67.8466 69.0884 68.2045 69.0453 68.4763 69.0055C68.7481 68.9624 68.9453 68.8994 69.0679 68.8166C69.1906 68.7337 69.2519 68.6111 69.2519 68.4487V68.4189C69.2519 68.104 69.1525 67.8604 68.9536 67.688C68.758 67.5157 68.4796 67.4295 68.1184 67.4295C67.7372 67.4295 67.4339 67.514 67.2086 67.6831C66.9832 67.8488 66.834 68.0576 66.7611 68.3095L64.8023 68.1504C64.9017 67.6864 65.0973 67.2853 65.389 66.9473C65.6806 66.6059 66.0568 66.344 66.5175 66.1618C66.9815 65.9761 67.5185 65.8833 68.1283 65.8833C68.5525 65.8833 68.9586 65.9331 69.3463 66.0325C69.7374 66.1319 70.0838 66.286 70.3854 66.4949C70.6903 66.7037 70.9306 66.9721 71.1063 67.3002C71.282 67.6251 71.3698 68.0145 71.3698 68.4686V73.6191H69.3613V72.5602H69.3016C69.179 72.7988 69.0149 73.0093 68.8094 73.1916C68.6039 73.3706 68.357 73.5114 68.0686 73.6142C67.7803 73.7136 67.4472 73.7633 67.0694 73.7633ZM67.6759 72.3017C67.9874 72.3017 68.2625 72.2404 68.5012 72.1177C68.7398 71.9918 68.9271 71.8227 69.063 71.6106C69.1989 71.3985 69.2668 71.1582 69.2668 70.8897V70.0794C69.2005 70.1225 69.1094 70.1622 68.9934 70.1987C68.8807 70.2318 68.7531 70.2633 68.6106 70.2931C68.468 70.3197 68.3255 70.3445 68.183 70.3677C68.0405 70.3876 67.9112 70.4058 67.7952 70.4224C67.5466 70.4589 67.3295 70.5169 67.1439 70.5964C66.9583 70.676 66.8141 70.7837 66.7114 70.9196C66.6087 71.0521 66.5573 71.2179 66.5573 71.4167C66.5573 71.7051 66.6617 71.9255 66.8705 72.0779C67.0826 72.2271 67.3511 72.3017 67.6759 72.3017ZM77.0747 65.9828V67.5737H72.476V65.9828H77.0747ZM73.52 64.1532H75.6379V71.2725C75.6379 71.4681 75.6677 71.6206 75.7274 71.7299C75.787 71.836 75.8699 71.9106 75.976 71.9537C76.0853 71.9967 76.2113 72.0183 76.3538 72.0183C76.4532 72.0183 76.5527 72.01 76.6521 71.9934C76.7515 71.9735 76.8278 71.9586 76.8808 71.9487L77.2139 73.5247C77.1078 73.5578 76.9587 73.5959 76.7664 73.639C76.5742 73.6854 76.3405 73.7136 76.0655 73.7235C75.555 73.7434 75.1076 73.6755 74.7231 73.5197C74.342 73.3639 74.0453 73.122 73.8332 72.7939C73.6211 72.4657 73.5167 72.0514 73.52 71.551V64.1532ZM78.4543 73.6191V65.9828H80.5722V73.6191H78.4543ZM79.5182 64.9984C79.2034 64.9984 78.9332 64.894 78.7079 64.6852C78.4858 64.4731 78.3748 64.2195 78.3748 63.9245C78.3748 63.6329 78.4858 63.3826 78.7079 63.1738C78.9332 62.9617 79.2034 62.8556 79.5182 62.8556C79.8331 62.8556 80.1016 62.9617 80.3236 63.1738C80.549 63.3826 80.6617 63.6329 80.6617 63.9245C80.6617 64.2195 80.549 64.4731 80.3236 64.6852C80.1016 64.894 79.8331 64.9984 79.5182 64.9984ZM85.719 73.7683C84.9468 73.7683 84.2789 73.6042 83.7155 73.2761C83.1554 72.9447 82.7228 72.484 82.4179 71.894C82.113 71.3007 81.9605 70.613 81.9605 69.8308C81.9605 69.042 82.113 68.3526 82.4179 67.7626C82.7228 67.1693 83.1554 66.7086 83.7155 66.3805C84.2789 66.0491 84.9468 65.8833 85.719 65.8833C86.4913 65.8833 87.1575 66.0491 87.7176 66.3805C88.2811 66.7086 88.7153 67.1693 89.0202 67.7626C89.3251 68.3526 89.4776 69.042 89.4776 69.8308C89.4776 70.613 89.3251 71.3007 89.0202 71.894C88.7153 72.484 88.2811 72.9447 87.7176 73.2761C87.1575 73.6042 86.4913 73.7683 85.719 73.7683ZM85.729 72.1277C86.0803 72.1277 86.3736 72.0282 86.609 71.8294C86.8443 71.6272 87.0216 71.3521 87.1409 71.0041C87.2635 70.6561 87.3249 70.26 87.3249 69.8159C87.3249 69.3717 87.2635 68.9757 87.1409 68.6277C87.0216 68.2797 86.8443 68.0046 86.609 67.8024C86.3736 67.6002 86.0803 67.4991 85.729 67.4991C85.3743 67.4991 85.076 67.6002 84.8341 67.8024C84.5955 68.0046 84.4148 68.2797 84.2922 68.6277C84.1729 68.9757 84.1132 69.3717 84.1132 69.8159C84.1132 70.26 84.1729 70.6561 84.2922 71.0041C84.4148 71.3521 84.5955 71.6272 84.8341 71.8294C85.076 72.0282 85.3743 72.1277 85.729 72.1277ZM92.9726 69.2044V73.6191H90.8547V65.9828H92.8732V67.3301H92.9626C93.1317 66.8859 93.4151 66.5346 93.8128 66.2761C94.2105 66.0143 94.6928 65.8833 95.2595 65.8833C95.7898 65.8833 96.2522 65.9993 96.6466 66.2314C97.041 66.4634 97.3476 66.7948 97.5663 67.2257C97.7851 67.6532 97.8945 68.1636 97.8945 68.7569V73.6191H95.7766V69.1348C95.7799 68.6674 95.6606 68.3029 95.4186 68.041C95.1767 67.7759 94.8436 67.6433 94.4193 67.6433C94.1343 67.6433 93.8824 67.7046 93.6636 67.8272C93.4482 67.9499 93.2792 68.1288 93.1565 68.3642C93.0372 68.5962 92.9759 68.8762 92.9726 69.2044Z" fill="white"/>
<path d="M1035.53 44.3854C1031.42 47.4871 1028.02 51.4341 1025.57 55.9602C1023.12 60.4862 1021.66 65.486 1021.3 70.6221C1020.95 75.7582 1021.7 80.9112 1023.5 85.7333C1025.3 90.5554 1028.12 94.9344 1031.76 98.575" stroke="white"/>
<path d="M1056.41 69.3656C1056.37 68.9645 1056.2 68.653 1055.9 68.4309C1055.59 68.2089 1055.19 68.0978 1054.67 68.0978C1054.32 68.0978 1054.02 68.1475 1053.78 68.247C1053.54 68.3431 1053.35 68.4773 1053.22 68.6497C1053.1 68.822 1053.03 69.0176 1053.03 69.2363C1053.03 69.4186 1053.06 69.5777 1053.15 69.7136C1053.23 69.8495 1053.35 69.9672 1053.5 70.0666C1053.65 70.1627 1053.82 70.2472 1054.02 70.3201C1054.21 70.3897 1054.42 70.4494 1054.64 70.4991L1055.56 70.7179C1056 70.8173 1056.41 70.9499 1056.78 71.1156C1057.15 71.2813 1057.47 71.4851 1057.75 71.7271C1058.02 71.969 1058.23 72.2541 1058.38 72.5822C1058.53 72.9103 1058.61 73.2865 1058.61 73.7108C1058.61 74.3339 1058.45 74.8741 1058.13 75.3315C1057.82 75.7856 1057.37 76.1386 1056.78 76.3904C1056.19 76.639 1055.49 76.7633 1054.66 76.7633C1053.84 76.7633 1053.12 76.6374 1052.51 76.3855C1051.9 76.1336 1051.43 75.7607 1051.09 75.2669C1050.75 74.7697 1050.57 74.1549 1050.56 73.4224H1052.64C1052.66 73.7638 1052.76 74.0488 1052.93 74.2775C1053.11 74.5029 1053.34 74.6736 1053.63 74.7896C1053.93 74.9023 1054.26 74.9586 1054.63 74.9586C1055 74.9586 1055.31 74.9056 1055.58 74.7995C1055.85 74.6935 1056.07 74.546 1056.21 74.3571C1056.36 74.1681 1056.44 73.9511 1056.44 73.7058C1056.44 73.4771 1056.37 73.2849 1056.23 73.1291C1056.1 72.9733 1055.91 72.8407 1055.65 72.7314C1055.39 72.622 1055.08 72.5225 1054.71 72.4331L1053.6 72.1547C1052.74 71.9458 1052.06 71.6194 1051.57 71.1752C1051.07 70.7311 1050.82 70.1329 1050.83 69.3805C1050.82 68.764 1050.99 68.2254 1051.32 67.7647C1051.65 67.304 1052.11 66.9444 1052.69 66.6859C1053.28 66.4274 1053.94 66.2981 1054.68 66.2981C1055.44 66.2981 1056.1 66.4274 1056.66 66.6859C1057.23 66.9444 1057.67 67.304 1057.98 67.7647C1058.3 68.2254 1058.46 68.7591 1058.47 69.3656H1056.41ZM1064.92 73.3677V68.9828H1067.03V76.6191H1065V75.2321H1064.92C1064.75 75.6795 1064.46 76.0391 1064.06 76.3109C1063.66 76.5827 1063.18 76.7186 1062.6 76.7186C1062.09 76.7186 1061.64 76.6026 1061.26 76.3706C1060.87 76.1386 1060.57 75.8088 1060.35 75.3812C1060.13 74.9537 1060.02 74.4416 1060.02 73.845V68.9828H1062.14V73.4672C1062.14 73.9179 1062.26 74.2742 1062.5 74.536C1062.74 74.7979 1063.06 74.9288 1063.46 74.9288C1063.71 74.9288 1063.95 74.8708 1064.18 74.7548C1064.4 74.6355 1064.58 74.4598 1064.71 74.2278C1064.85 73.9958 1064.92 73.7091 1064.92 73.3677ZM1072.18 76.7683C1071.4 76.7683 1070.72 76.6026 1070.16 76.2711C1069.6 75.9364 1069.17 75.4724 1068.87 74.8791C1068.57 74.2858 1068.42 73.603 1068.42 72.8308C1068.42 72.0486 1068.57 71.3625 1068.87 70.7725C1069.18 70.1793 1069.61 69.7169 1070.17 69.3855C1070.73 69.0507 1071.4 68.8833 1072.17 68.8833C1072.83 68.8833 1073.42 69.0043 1073.92 69.2463C1074.42 69.4882 1074.81 69.8279 1075.11 70.2654C1075.4 70.7029 1075.56 71.2167 1075.59 71.8066H1073.59C1073.53 71.4255 1073.38 71.1189 1073.14 70.8869C1072.9 70.6516 1072.59 70.5339 1072.2 70.5339C1071.88 70.5339 1071.59 70.6234 1071.34 70.8024C1071.1 70.978 1070.91 71.2349 1070.78 71.573C1070.64 71.911 1070.57 72.3204 1070.57 72.801C1070.57 73.2882 1070.64 73.7025 1070.77 74.0439C1070.91 74.3852 1071.1 74.6454 1071.34 74.8244C1071.59 75.0034 1071.88 75.0929 1072.2 75.0929C1072.45 75.0929 1072.66 75.0431 1072.85 74.9437C1073.05 74.8443 1073.21 74.7001 1073.34 74.5112C1073.47 74.319 1073.55 74.0886 1073.59 73.8201H1075.59C1075.56 74.4035 1075.4 74.9172 1075.11 75.3613C1074.83 75.8021 1074.44 76.1468 1073.94 76.3954C1073.45 76.644 1072.86 76.7683 1072.18 76.7683ZM1080.4 76.7683C1079.61 76.7683 1078.94 76.6026 1078.38 76.2711C1077.82 75.9364 1077.39 75.4724 1077.08 74.8791C1076.79 74.2858 1076.64 73.603 1076.64 72.8308C1076.64 72.0486 1076.79 71.3625 1077.09 70.7725C1077.39 70.1793 1077.83 69.7169 1078.39 69.3855C1078.95 69.0507 1079.61 68.8833 1080.39 68.8833C1081.05 68.8833 1081.63 69.0043 1082.14 69.2463C1082.64 69.4882 1083.03 69.8279 1083.32 70.2654C1083.61 70.7029 1083.78 71.2167 1083.81 71.8066H1081.81C1081.75 71.4255 1081.6 71.1189 1081.36 70.8869C1081.12 70.6516 1080.81 70.5339 1080.42 70.5339C1080.09 70.5339 1079.81 70.6234 1079.56 70.8024C1079.32 70.978 1079.13 71.2349 1078.99 71.573C1078.86 71.911 1078.79 72.3204 1078.79 72.801C1078.79 73.2882 1078.86 73.7025 1078.99 74.0439C1079.12 74.3852 1079.31 74.6454 1079.56 74.8244C1079.81 75.0034 1080.09 75.0929 1080.42 75.0929C1080.66 75.0929 1080.88 75.0431 1081.07 74.9437C1081.27 74.8443 1081.43 74.7001 1081.55 74.5112C1081.68 74.319 1081.77 74.0886 1081.81 73.8201H1083.81C1083.77 74.4035 1083.61 74.9172 1083.33 75.3613C1083.05 75.8021 1082.66 76.1468 1082.16 76.3954C1081.66 76.644 1081.07 76.7683 1080.4 76.7683ZM1088.64 76.7683C1087.86 76.7683 1087.18 76.6092 1086.61 76.291C1086.05 75.9695 1085.62 75.5154 1085.31 74.9288C1085.01 74.3388 1084.85 73.6412 1084.85 72.8358C1084.85 72.0502 1085.01 71.3609 1085.31 70.7676C1085.62 70.1743 1086.04 69.7119 1086.6 69.3805C1087.16 69.0491 1087.81 68.8833 1088.56 68.8833C1089.06 68.8833 1089.53 68.9645 1089.96 69.127C1090.4 69.286 1090.78 69.5263 1091.11 69.8478C1091.44 70.1693 1091.69 70.5737 1091.87 71.0609C1092.06 71.5448 1092.15 72.1116 1092.15 72.7612V73.3429H1085.7V72.0304H1090.15C1090.15 71.7254 1090.09 71.4553 1089.95 71.22C1089.82 70.9847 1089.64 70.8007 1089.4 70.6681C1089.17 70.5323 1088.9 70.4643 1088.59 70.4643C1088.27 70.4643 1087.99 70.5389 1087.74 70.688C1087.49 70.8339 1087.3 71.0311 1087.16 71.2797C1087.02 71.5249 1086.95 71.7984 1086.95 72.1V73.3478C1086.95 73.7257 1087.02 74.0521 1087.16 74.3272C1087.3 74.6023 1087.5 74.8145 1087.76 74.9636C1088.02 75.1127 1088.32 75.1873 1088.68 75.1873C1088.91 75.1873 1089.13 75.1542 1089.32 75.0879C1089.52 75.0216 1089.69 74.9222 1089.82 74.7896C1089.96 74.657 1090.07 74.4946 1090.14 74.3024L1092.1 74.4316C1092 74.9023 1091.8 75.3133 1091.49 75.6646C1091.19 76.0126 1090.79 76.2844 1090.31 76.4799C1089.83 76.6722 1089.27 76.7683 1088.64 76.7683ZM1099.88 71.1603L1097.94 71.2797C1097.91 71.1139 1097.84 70.9648 1097.73 70.8322C1097.62 70.6963 1097.48 70.5886 1097.3 70.5091C1097.12 70.4262 1096.91 70.3848 1096.67 70.3848C1096.34 70.3848 1096.06 70.4544 1095.84 70.5936C1095.61 70.7295 1095.5 70.9118 1095.5 71.1404C1095.5 71.3227 1095.57 71.4769 1095.72 71.6028C1095.86 71.7288 1096.11 71.8298 1096.47 71.9061L1097.85 72.1845C1098.59 72.3369 1099.15 72.5822 1099.51 72.9203C1099.87 73.2583 1100.06 73.7025 1100.06 74.2527C1100.06 74.7531 1099.91 75.1923 1099.61 75.5701C1099.32 75.948 1098.92 76.243 1098.41 76.4551C1097.9 76.6639 1097.32 76.7683 1096.66 76.7683C1095.65 76.7683 1094.84 76.5578 1094.24 76.1369C1093.64 75.7127 1093.29 75.1359 1093.19 74.4068L1095.27 74.2974C1095.34 74.6056 1095.49 74.841 1095.73 75.0034C1095.97 75.1625 1096.28 75.242 1096.66 75.242C1097.03 75.242 1097.33 75.1708 1097.56 75.0282C1097.78 74.8824 1097.9 74.6951 1097.9 74.4664C1097.9 74.2742 1097.82 74.1168 1097.66 73.9941C1097.5 73.8682 1097.26 73.7721 1096.92 73.7058L1095.6 73.4423C1094.86 73.2931 1094.3 73.0346 1093.94 72.6667C1093.58 72.2988 1093.39 71.8298 1093.39 71.2598C1093.39 70.7692 1093.53 70.3466 1093.79 69.992C1094.06 69.6374 1094.44 69.3639 1094.92 69.1717C1095.41 68.9795 1095.98 68.8833 1096.63 68.8833C1097.6 68.8833 1098.35 69.0872 1098.91 69.4949C1099.46 69.9025 1099.79 70.4577 1099.88 71.1603ZM1107.74 71.1603L1105.8 71.2797C1105.77 71.1139 1105.7 70.9648 1105.59 70.8322C1105.48 70.6963 1105.34 70.5886 1105.16 70.5091C1104.98 70.4262 1104.77 70.3848 1104.53 70.3848C1104.2 70.3848 1103.92 70.4544 1103.7 70.5936C1103.47 70.7295 1103.36 70.9118 1103.36 71.1404C1103.36 71.3227 1103.43 71.4769 1103.58 71.6028C1103.72 71.7288 1103.97 71.8298 1104.33 71.9061L1105.71 72.1845C1106.45 72.3369 1107.01 72.5822 1107.37 72.9203C1107.74 73.2583 1107.92 73.7025 1107.92 74.2527C1107.92 74.7531 1107.77 75.1923 1107.48 75.5701C1107.18 75.948 1106.78 76.243 1106.27 76.4551C1105.77 76.6639 1105.18 76.7683 1104.52 76.7683C1103.51 76.7683 1102.7 76.5578 1102.1 76.1369C1101.5 75.7127 1101.15 75.1359 1101.05 74.4068L1103.14 74.2974C1103.2 74.6056 1103.35 74.841 1103.59 75.0034C1103.83 75.1625 1104.14 75.242 1104.52 75.242C1104.89 75.242 1105.19 75.1708 1105.42 75.0282C1105.65 74.8824 1105.76 74.6951 1105.77 74.4664C1105.76 74.2742 1105.68 74.1168 1105.52 73.9941C1105.36 73.8682 1105.12 73.7721 1104.79 73.7058L1103.46 73.4423C1102.72 73.2931 1102.16 73.0346 1101.8 72.6667C1101.44 72.2988 1101.26 71.8298 1101.26 71.2598C1101.26 70.7692 1101.39 70.3466 1101.65 69.992C1101.92 69.6374 1102.3 69.3639 1102.78 69.1717C1103.27 68.9795 1103.84 68.8833 1104.49 68.8833C1105.46 68.8833 1106.22 69.0872 1106.77 69.4949C1107.33 69.9025 1107.65 70.4577 1107.74 71.1603Z" fill="white"/>
<defs>
<linearGradient id="paint0_linear_326_12391" x1="108.719" y1="24.1191" x2="314.719" y2="24.1191" gradientUnits="userSpaceOnUse">
<stop offset="0.680628" stop-color="white"/>
<stop offset="1" stop-color="white" stop-opacity="0"/>
</linearGradient>
</defs>
</svg>
