<svg width="382" height="440" viewBox="0 0 382 440" fill="none" xmlns="http://www.w3.org/2000/svg">
<ellipse cx="269.536" cy="382.956" rx="1.37697" ry="1.56204" transform="rotate(-180 269.536 382.956)" fill="#504D4E"/>
<ellipse cx="269.536" cy="127.971" rx="1.37697" ry="1.56203" transform="rotate(-180 269.536 127.971)" fill="#504D4E"/>
<ellipse cx="337.497" cy="344.692" rx="1.37697" ry="1.56203" transform="rotate(-180 337.497 344.692)" fill="#504D4E"/>
<ellipse cx="337.497" cy="89.7055" rx="1.37697" ry="1.56203" transform="rotate(-180 337.497 89.7055)" fill="#504D4E"/>
<ellipse cx="309.628" cy="318.262" rx="1.37697" ry="1.56203" transform="rotate(-180 309.628 318.262)" fill="#504D4E"/>
<ellipse cx="309.628" cy="63.2759" rx="1.37697" ry="1.56203" transform="rotate(-180 309.628 63.2759)" fill="#504D4E"/>
<ellipse cx="253.725" cy="304.106" rx="1.37697" ry="1.56203" transform="rotate(-180 253.725 304.106)" fill="#504D4E"/>
<ellipse cx="253.724" cy="49.1216" rx="1.37697" ry="1.56203" transform="rotate(-180 253.724 49.1216)" fill="#504D4E"/>
<ellipse cx="123.425" cy="304.106" rx="1.37697" ry="1.56203" transform="rotate(-180 123.425 304.106)" fill="#504D4E"/>
<ellipse cx="123.425" cy="49.1216" rx="1.37697" ry="1.56203" transform="rotate(-180 123.425 49.1216)" fill="#504D4E"/>
<ellipse cx="107.613" cy="382.081" rx="1.37697" ry="1.56203" transform="rotate(-180 107.613 382.081)" fill="#504D4E"/>
<ellipse cx="107.613" cy="127.096" rx="1.37697" ry="1.56203" transform="rotate(-180 107.613 127.096)" fill="#504D4E"/>
<ellipse cx="67.5198" cy="320.29" rx="1.37697" ry="1.56204" transform="rotate(-180 67.5198 320.29)" fill="#504D4E"/>
<ellipse cx="67.5198" cy="65.3032" rx="1.37697" ry="1.56203" transform="rotate(-180 67.5198 65.3032)" fill="#504D4E"/>
<ellipse cx="44.8297" cy="89.6043" rx="1.50253" ry="1.71014" transform="rotate(-180 44.8297 89.6043)" fill="#504D4E"/>
<ellipse cx="44.8297" cy="343.421" rx="1.50253" ry="1.71014" transform="rotate(-180 44.8297 343.421)" fill="#504D4E"/>
<g filter="url(#filter0_bf_456_17226)">
<ellipse cx="146.497" cy="45.4689" rx="146.497" ry="45.4689" transform="matrix(-1 8.74301e-08 8.74155e-08 1 337.498 44.7109)" fill="url(#paint0_linear_456_17226)"/>
<path fill-rule="evenodd" clip-rule="evenodd" d="M123.424 130.534C117.941 129.648 112.661 128.657 107.612 127.57L107.612 307.299L107.612 382.077C112.661 383.164 117.941 384.155 123.424 385.041L123.424 367.378L123.424 130.534Z" fill="url(#paint1_linear_456_17226)"/>
<path fill-rule="evenodd" clip-rule="evenodd" d="M253.725 131.281L253.725 303.596L253.724 354.893L253.725 385.8C259.19 384.995 264.469 384.088 269.537 383.087L269.537 306.308L269.537 128.568C264.469 129.569 259.19 130.476 253.725 131.281Z" fill="url(#paint2_linear_456_17226)"/>
<path fill-rule="evenodd" clip-rule="evenodd" d="M44.5031 344.781L44.5031 395.818C44.6194 386.369 54.0227 377.599 70.0273 370.343C80.144 374.93 92.8984 378.912 107.612 382.079L107.612 358.606L107.612 307.301L107.612 127.568C69.8824 119.447 45.0362 105.965 44.5105 90.6738L44.5028 90.6738L44.5031 344.6L44.5031 344.781Z" fill="url(#paint3_linear_456_17226)"/>
<path fill-rule="evenodd" clip-rule="evenodd" d="M123.424 304.341L123.424 355.646L123.424 385.047C143.643 388.315 166.626 390.163 191 390.163C213.444 390.163 234.71 388.596 253.723 385.796L253.723 303.592L253.724 131.284C234.71 134.084 213.444 135.651 190.999 135.651C166.626 135.651 143.643 133.803 123.424 130.535L123.424 304.341Z" fill="url(#paint4_linear_456_17226)"/>
<path fill-rule="evenodd" clip-rule="evenodd" d="M337.489 90.6738C336.941 106.611 309.974 120.583 269.537 128.568L269.537 306.305L269.536 357.606L269.537 383.084C286.309 379.772 300.764 375.43 311.977 370.345C328.079 377.647 337.497 386.48 337.497 395.996L337.497 344.775C337.497 344.771 337.497 344.766 337.497 344.762L337.498 344.694L337.497 344.627C337.497 344.623 337.497 344.618 337.497 344.614L337.498 90.6738L337.489 90.6738Z" fill="url(#paint5_linear_456_17226)"/>
</g>
<ellipse cx="146.497" cy="45.4689" rx="146.497" ry="45.4689" transform="matrix(-1 8.74301e-08 8.74155e-08 1 337.498 299.221)" stroke="white" stroke-opacity="0.12" stroke-width="0.5"/>
<ellipse cx="146.497" cy="45.4689" rx="146.497" ry="45.4689" transform="matrix(-1 8.74301e-08 8.74155e-08 1 337.498 44.7109)" stroke="white" stroke-opacity="0.12" stroke-width="0.5"/>
<path d="M44.5027 90.1797L44.5027 344.692" stroke="white" stroke-opacity="0.12" stroke-width="0.5"/>
<path d="M337.498 90.1797L337.498 344.692" stroke="white" stroke-opacity="0.12" stroke-width="0.5"/>
<path d="M269.537 128.613L269.537 383.108" stroke="white" stroke-opacity="0.12" stroke-width="0.5"/>
<path d="M107.612 127.531L107.612 381.77" stroke="white" stroke-opacity="0.12" stroke-width="0.5"/>
<path d="M253.724 49.1289L253.724 304.104" stroke="white" stroke-opacity="0.12" stroke-width="0.5"/>
<path d="M123.424 49.8203L123.424 304.103" stroke="white" stroke-opacity="0.12" stroke-width="0.5"/>
<defs>
<filter id="filter0_bf_456_17226" x="-29.4973" y="-29.2891" width="440.995" height="499.285" filterUnits="userSpaceOnUse" color-interpolation-filters="sRGB">
<feFlood flood-opacity="0" result="BackgroundImageFix"/>
<feGaussianBlur in="BackgroundImageFix" stdDeviation="37"/>
<feComposite in2="SourceAlpha" operator="in" result="effect1_backgroundBlur_456_17226"/>
<feBlend mode="normal" in="SourceGraphic" in2="effect1_backgroundBlur_456_17226" result="shape"/>
<feGaussianBlur stdDeviation="22" result="effect2_foregroundBlur_456_17226"/>
</filter>
<linearGradient id="paint0_linear_456_17226" x1="146.497" y1="0" x2="146.497" y2="90.9379" gradientUnits="userSpaceOnUse">
<stop stop-color="#D0691F"/>
<stop offset="1" stop-color="#971563" stop-opacity="0.1"/>
</linearGradient>
<linearGradient id="paint1_linear_456_17226" x1="115.518" y1="127.57" x2="115.518" y2="385.041" gradientUnits="userSpaceOnUse">
<stop stop-color="#D0691F"/>
<stop offset="1" stop-color="#971563" stop-opacity="0.1"/>
</linearGradient>
<linearGradient id="paint2_linear_456_17226" x1="261.631" y1="128.568" x2="261.631" y2="385.8" gradientUnits="userSpaceOnUse">
<stop stop-color="#D0691F"/>
<stop offset="1" stop-color="#971563" stop-opacity="0.1"/>
</linearGradient>
<linearGradient id="paint3_linear_456_17226" x1="76.0576" y1="90.6738" x2="76.0576" y2="395.818" gradientUnits="userSpaceOnUse">
<stop stop-color="#D0691F"/>
<stop offset="1" stop-color="#971563" stop-opacity="0.1"/>
</linearGradient>
<linearGradient id="paint4_linear_456_17226" x1="188.574" y1="130.535" x2="188.574" y2="390.163" gradientUnits="userSpaceOnUse">
<stop stop-color="#D0691F"/>
<stop offset="1" stop-color="#971563" stop-opacity="0.1"/>
</linearGradient>
<linearGradient id="paint5_linear_456_17226" x1="303.517" y1="90.6738" x2="303.517" y2="395.996" gradientUnits="userSpaceOnUse">
<stop stop-color="#D0691F"/>
<stop offset="1" stop-color="#971563" stop-opacity="0.1"/>
</linearGradient>
</defs>
</svg>
