<svg width="352" height="122" viewBox="0 0 352 122" fill="none" xmlns="http://www.w3.org/2000/svg">
<path d="M47.3239 9H45.9886C45.8892 8.50284 45.7093 8.04356 45.4489 7.62216C45.1932 7.19602 44.8712 6.82434 44.483 6.5071C44.0947 6.18987 43.6544 5.94366 43.1619 5.76847C42.6695 5.59328 42.1368 5.50568 41.5639 5.50568C40.6454 5.50568 39.8073 5.74479 39.0497 6.22301C38.2969 6.70123 37.6932 7.40436 37.2386 8.33239C36.7888 9.25568 36.5639 10.3873 36.5639 11.7273C36.5639 13.0767 36.7888 14.2131 37.2386 15.1364C37.6932 16.0597 38.2969 16.7604 39.0497 17.2386C39.8073 17.7121 40.6454 17.9489 41.5639 17.9489C42.1368 17.9489 42.6695 17.8613 43.1619 17.6861C43.6544 17.5109 44.0947 17.267 44.483 16.9545C44.8712 16.6373 45.1932 16.2656 45.4489 15.8395C45.7093 15.4134 45.8892 14.9517 45.9886 14.4545H47.3239C47.2055 15.1222 46.983 15.7448 46.6562 16.3224C46.3343 16.8954 45.9223 17.3973 45.4205 17.8281C44.9233 18.259 44.3504 18.5952 43.7017 18.8366C43.053 19.0781 42.3404 19.1989 41.5639 19.1989C40.3423 19.1989 39.258 18.8935 38.3111 18.2827C37.3641 17.6671 36.6207 16.8007 36.081 15.6832C35.5459 14.5658 35.2784 13.2472 35.2784 11.7273C35.2784 10.2074 35.5459 8.88873 36.081 7.77131C36.6207 6.65388 37.3641 5.78977 38.3111 5.17898C39.258 4.56345 40.3423 4.25568 41.5639 4.25568C42.3404 4.25568 43.053 4.37642 43.7017 4.6179C44.3504 4.85464 44.9233 5.19081 45.4205 5.62642C45.9223 6.05729 46.3343 6.55919 46.6562 7.1321C46.983 7.70502 47.2055 8.32765 47.3239 9ZM50.1808 19V8.09091H51.4094V9.76705H51.5018C51.7196 9.2178 52.0984 8.77509 52.6381 8.43892C53.1826 8.09801 53.7982 7.92756 54.4847 7.92756C54.5889 7.92756 54.7049 7.92992 54.8327 7.93466C54.9606 7.93939 55.0671 7.94413 55.1523 7.94886V9.23438C55.0955 9.22491 54.9961 9.2107 54.854 9.19176C54.712 9.17282 54.5581 9.16335 54.3924 9.16335C53.8242 9.16335 53.3176 9.28409 52.8725 9.52557C52.4322 9.76231 52.0842 10.0914 51.8285 10.5128C51.5728 10.9342 51.445 11.4148 51.445 11.9545V19H50.1808ZM61.3881 19.2273C60.3701 19.2273 59.4895 18.9905 58.7461 18.517C58.0027 18.0388 57.4274 17.3783 57.0202 16.5355C56.6178 15.688 56.4165 14.7126 56.4165 13.6094C56.4165 12.5109 56.6178 11.5355 57.0202 10.6832C57.4274 9.82623 57.9885 9.15625 58.7035 8.6733C59.4232 8.18561 60.2541 7.94176 61.1964 7.94176C61.7882 7.94176 62.3588 8.05066 62.908 8.26847C63.4573 8.48153 63.9497 8.81061 64.3853 9.25568C64.8256 9.69602 65.1737 10.2524 65.4293 10.9247C65.685 11.5923 65.8129 12.383 65.8129 13.2969V13.9219H57.2901V12.8068H64.5202C64.5202 12.1061 64.3782 11.4763 64.0941 10.9176C63.8147 10.3542 63.4241 9.90909 62.9222 9.58239C62.4251 9.25568 61.8498 9.09233 61.1964 9.09233C60.5051 9.09233 59.8967 9.27699 59.3711 9.64631C58.8455 10.0156 58.4336 10.5033 58.1353 11.1094C57.8417 11.7154 57.6926 12.3783 57.6879 13.098V13.7656C57.6879 14.6321 57.837 15.3897 58.1353 16.0384C58.4383 16.6823 58.8668 17.1818 59.4208 17.5369C59.9748 17.892 60.6306 18.0696 61.3881 18.0696C61.9042 18.0696 62.3564 17.9891 62.7447 17.8281C63.1377 17.6671 63.4667 17.4517 63.7319 17.1818C64.0018 16.9072 64.2054 16.6065 64.3427 16.2798L65.543 16.6705C65.3772 17.1297 65.105 17.5535 64.7262 17.9418C64.3522 18.33 63.8834 18.6425 63.32 18.8793C62.7612 19.1113 62.1173 19.2273 61.3881 19.2273ZM71.6456 19.2486C70.9875 19.2486 70.3861 19.1207 69.8416 18.8651C69.2971 18.6046 68.8639 18.2306 68.5419 17.7429C68.2199 17.2505 68.0589 16.6539 68.0589 15.9531C68.0589 15.4134 68.1607 14.9588 68.3643 14.5895C68.5679 14.2202 68.8568 13.9171 69.2308 13.6804C69.6049 13.4437 70.0476 13.2566 70.5589 13.1193C71.0703 12.982 71.6338 12.8755 72.2493 12.7997C72.8601 12.724 73.3762 12.6577 73.7976 12.6009C74.2237 12.544 74.5481 12.4541 74.7706 12.331C74.9931 12.2079 75.1044 12.009 75.1044 11.7344V11.4787C75.1044 10.7353 74.8819 10.1506 74.4368 9.72443C73.9964 9.29356 73.362 9.07812 72.5334 9.07812C71.7474 9.07812 71.1058 9.25095 70.6087 9.59659C70.1162 9.94223 69.7706 10.3494 69.5717 10.8182L68.3714 10.3849C68.6177 9.78835 68.9586 9.3125 69.3942 8.95739C69.8298 8.59754 70.3175 8.33949 70.8572 8.18324C71.397 8.02225 71.9439 7.94176 72.4979 7.94176C72.9145 7.94176 73.3478 7.99621 73.7976 8.10511C74.2521 8.21401 74.6735 8.40341 75.0618 8.6733C75.45 8.93845 75.7649 9.31013 76.0064 9.78835C76.2479 10.2618 76.3686 10.8632 76.3686 11.5923V19H75.1044V17.2741H75.0263C74.8748 17.5961 74.6499 17.9086 74.3516 18.2116C74.0533 18.5147 73.6792 18.7633 73.2294 18.9574C72.7796 19.1515 72.2517 19.2486 71.6456 19.2486ZM71.8161 18.0909C72.4884 18.0909 73.0708 17.9418 73.5632 17.6435C74.0556 17.3452 74.4344 16.9498 74.6996 16.4574C74.9695 15.9602 75.1044 15.4134 75.1044 14.8168V13.2401C75.0097 13.33 74.8511 13.4105 74.6286 13.4815C74.4107 13.5526 74.1574 13.6165 73.8686 13.6733C73.5845 13.7254 73.3004 13.7704 73.0163 13.8082C72.7322 13.8461 72.4766 13.8793 72.2493 13.9077C71.6338 13.9834 71.1082 14.1018 70.6726 14.2628C70.237 14.4238 69.9032 14.6463 69.6712 14.9304C69.4392 15.2098 69.3232 15.5696 69.3232 16.0099C69.3232 16.6728 69.5599 17.1866 70.0334 17.5511C70.5069 17.911 71.1011 18.0909 71.8161 18.0909ZM84.0284 8.09091V9.19176H78.8224V8.09091H84.0284ZM80.4489 5.47727H81.7202V16.152C81.7202 16.6065 81.7983 16.964 81.9545 17.2244C82.1108 17.4801 82.3144 17.6624 82.5653 17.7713C82.8163 17.8755 83.0838 17.9276 83.3679 17.9276C83.5336 17.9276 83.6757 17.9181 83.794 17.8991C83.9124 17.8755 84.0166 17.8518 84.1065 17.8281L84.3764 18.9716C84.2533 19.0189 84.1018 19.0616 83.9219 19.0994C83.742 19.142 83.5194 19.1634 83.2543 19.1634C82.7902 19.1634 82.3428 19.0616 81.9119 18.858C81.4858 18.6544 81.1354 18.3513 80.8608 17.9489C80.5862 17.5464 80.4489 17.0469 80.4489 16.4503V5.47727ZM86.9137 19V8.09091H88.185V19H86.9137ZM87.56 6.21591C87.2996 6.21591 87.0771 6.12831 86.8924 5.95312C86.7077 5.7732 86.6154 5.55777 86.6154 5.30682C86.6154 5.05587 86.7077 4.8428 86.8924 4.66761C87.0771 4.48769 87.2996 4.39773 87.56 4.39773C87.8204 4.39773 88.043 4.48769 88.2276 4.66761C88.4123 4.8428 88.5046 5.05587 88.5046 5.30682C88.5046 5.55777 88.4123 5.7732 88.2276 5.95312C88.043 6.12831 87.8204 6.21591 87.56 6.21591ZM92.7926 12.1818V19H91.5284V8.09091H92.7571V9.80256H92.8707C93.1264 9.24384 93.5241 8.7964 94.0639 8.46023C94.6084 8.11932 95.2808 7.94886 96.081 7.94886C96.8149 7.94886 97.4588 8.10275 98.0128 8.41051C98.5715 8.71354 99.0047 9.16098 99.3125 9.75284C99.625 10.3447 99.7812 11.0715 99.7812 11.9332V19H98.517V12.0114C98.517 11.1165 98.2661 10.4086 97.7642 9.88778C97.267 9.36695 96.5994 9.10653 95.7614 9.10653C95.1884 9.10653 94.6795 9.22964 94.2344 9.47585C93.7893 9.72206 93.4366 10.0772 93.1761 10.5412C92.9205 11.0005 92.7926 11.5473 92.7926 12.1818ZM107.272 23.3182C106.529 23.3182 105.878 23.2211 105.319 23.027C104.761 22.8376 104.289 22.5772 103.906 22.2457C103.522 21.9143 103.224 21.5426 103.011 21.1307L104.048 20.4489C104.204 20.7235 104.413 20.9934 104.673 21.2585C104.938 21.5237 105.281 21.7438 105.703 21.919C106.129 22.0942 106.652 22.1818 107.272 22.1818C108.238 22.1818 109.017 21.9403 109.609 21.4574C110.206 20.9744 110.504 20.224 110.504 19.206V16.7486H110.39C110.243 17.08 110.033 17.4115 109.758 17.7429C109.484 18.0696 109.124 18.3419 108.679 18.5597C108.238 18.7775 107.691 18.8864 107.038 18.8864C106.167 18.8864 105.393 18.6709 104.716 18.2401C104.043 17.8092 103.513 17.1937 103.125 16.3935C102.741 15.5885 102.549 14.6297 102.549 13.517C102.549 12.4138 102.736 11.4432 103.11 10.6051C103.489 9.76705 104.017 9.11364 104.694 8.64489C105.371 8.17614 106.16 7.94176 107.059 7.94176C107.727 7.94176 108.281 8.06013 108.721 8.29688C109.162 8.52888 109.514 8.81771 109.779 9.16335C110.049 9.509 110.26 9.84517 110.412 10.1719H110.539V8.09091H111.775V19.2841C111.775 20.2074 111.579 20.9673 111.186 21.5639C110.793 22.1605 110.258 22.6009 109.581 22.8849C108.904 23.1738 108.134 23.3182 107.272 23.3182ZM107.187 17.7287C107.888 17.7287 108.487 17.5606 108.984 17.2244C109.481 16.8835 109.862 16.3958 110.127 15.7614C110.393 15.1269 110.525 14.3717 110.525 13.4957C110.525 12.6435 110.395 11.8883 110.135 11.2301C109.874 10.5672 109.495 10.0464 108.998 9.66761C108.506 9.28409 107.902 9.09233 107.187 9.09233C106.458 9.09233 105.842 9.28883 105.341 9.68182C104.839 10.0748 104.46 10.6051 104.204 11.2727C103.949 11.9356 103.821 12.6766 103.821 13.4957C103.821 14.3291 103.951 15.0653 104.211 15.7045C104.472 16.339 104.853 16.8362 105.355 17.196C105.857 17.5511 106.467 17.7287 107.187 17.7287ZM125.009 19.2273C124.033 19.2273 123.183 18.9834 122.459 18.4957C121.739 18.008 121.18 17.3404 120.783 16.4929C120.385 15.6454 120.186 14.6795 120.186 13.5952C120.186 12.5014 120.387 11.5284 120.79 10.6761C121.197 9.82386 121.76 9.15625 122.48 8.6733C123.2 8.18561 124.036 7.94176 124.987 7.94176C125.716 7.94176 126.377 8.08381 126.969 8.3679C127.561 8.64725 128.048 9.04261 128.432 9.55398C128.82 10.0606 129.064 10.6525 129.163 11.3295H127.885C127.752 10.714 127.433 10.1884 126.926 9.75284C126.424 9.3125 125.785 9.09233 125.009 9.09233C124.313 9.09233 123.697 9.28172 123.162 9.66051C122.627 10.0346 122.208 10.5578 121.905 11.2301C121.607 11.8977 121.457 12.6719 121.457 13.5526C121.457 14.438 121.604 15.2216 121.898 15.9034C122.191 16.5805 122.603 17.1108 123.134 17.4943C123.669 17.8778 124.294 18.0696 125.009 18.0696C125.491 18.0696 125.932 17.9796 126.33 17.7997C126.732 17.6151 127.068 17.3546 127.338 17.0185C127.613 16.6823 127.797 16.2822 127.892 15.8182H129.17C129.076 16.4763 128.841 17.0634 128.467 17.5795C128.098 18.0909 127.617 18.4934 127.026 18.7869C126.438 19.0805 125.766 19.2273 125.009 19.2273ZM136.29 19.2273C135.272 19.2273 134.392 18.9905 133.648 18.517C132.905 18.0388 132.33 17.3783 131.923 16.5355C131.52 15.688 131.319 14.7126 131.319 13.6094C131.319 12.5109 131.52 11.5355 131.923 10.6832C132.33 9.82623 132.891 9.15625 133.606 8.6733C134.326 8.18561 135.156 7.94176 136.099 7.94176C136.691 7.94176 137.261 8.05066 137.81 8.26847C138.36 8.48153 138.852 8.81061 139.288 9.25568C139.728 9.69602 140.076 10.2524 140.332 10.9247C140.587 11.5923 140.715 12.383 140.715 13.2969V13.9219H132.192V12.8068H139.423C139.423 12.1061 139.281 11.4763 138.996 10.9176C138.717 10.3542 138.326 9.90909 137.825 9.58239C137.327 9.25568 136.752 9.09233 136.099 9.09233C135.407 9.09233 134.799 9.27699 134.273 9.64631C133.748 10.0156 133.336 10.5033 133.038 11.1094C132.744 11.7154 132.595 12.3783 132.59 13.098V13.7656C132.59 14.6321 132.739 15.3897 133.038 16.0384C133.341 16.6823 133.769 17.1818 134.323 17.5369C134.877 17.892 135.533 18.0696 136.29 18.0696C136.807 18.0696 137.259 17.9891 137.647 17.8281C138.04 17.6671 138.369 17.4517 138.634 17.1818C138.904 16.9072 139.108 16.6065 139.245 16.2798L140.445 16.6705C140.28 17.1297 140.007 17.5535 139.629 17.9418C139.254 18.33 138.786 18.6425 138.222 18.8793C137.664 19.1113 137.02 19.2273 136.29 19.2273ZM144.765 12.1818V19H143.501V8.09091H144.73V9.80256H144.843C145.099 9.24384 145.497 8.7964 146.037 8.46023C146.581 8.11932 147.253 7.94886 148.054 7.94886C148.788 7.94886 149.431 8.10275 149.985 8.41051C150.544 8.71354 150.977 9.16098 151.285 9.75284C151.598 10.3447 151.754 11.0715 151.754 11.9332V19H150.49V12.0114C150.49 11.1165 150.239 10.4086 149.737 9.88778C149.24 9.36695 148.572 9.10653 147.734 9.10653C147.161 9.10653 146.652 9.22964 146.207 9.47585C145.762 9.72206 145.409 10.0772 145.149 10.5412C144.893 11.0005 144.765 11.5473 144.765 12.1818ZM159.38 8.09091V9.19176H154.174V8.09091H159.38ZM155.8 5.47727H157.072V16.152C157.072 16.6065 157.15 16.964 157.306 17.2244C157.462 17.4801 157.666 17.6624 157.917 17.7713C158.168 17.8755 158.435 17.9276 158.719 17.9276C158.885 17.9276 159.027 17.9181 159.146 17.8991C159.264 17.8755 159.368 17.8518 159.458 17.8281L159.728 18.9716C159.605 19.0189 159.453 19.0616 159.273 19.0994C159.094 19.142 158.871 19.1634 158.606 19.1634C158.142 19.1634 157.694 19.0616 157.263 18.858C156.837 18.6544 156.487 18.3513 156.212 17.9489C155.938 17.5464 155.8 17.0469 155.8 16.4503V5.47727ZM162.251 19V8.09091H163.48V9.76705H163.572C163.79 9.2178 164.169 8.77509 164.708 8.43892C165.253 8.09801 165.868 7.92756 166.555 7.92756C166.659 7.92756 166.775 7.92992 166.903 7.93466C167.031 7.93939 167.137 7.94413 167.223 7.94886V9.23438C167.166 9.22491 167.066 9.2107 166.924 9.19176C166.782 9.17282 166.628 9.16335 166.463 9.16335C165.895 9.16335 165.388 9.28409 164.943 9.52557C164.502 9.76231 164.154 10.0914 163.899 10.5128C163.643 10.9342 163.515 11.4148 163.515 11.9545V19H162.251ZM172.427 19.2486C171.769 19.2486 171.167 19.1207 170.623 18.8651C170.078 18.6046 169.645 18.2306 169.323 17.7429C169.001 17.2505 168.84 16.6539 168.84 15.9531C168.84 15.4134 168.942 14.9588 169.146 14.5895C169.349 14.2202 169.638 13.9171 170.012 13.6804C170.386 13.4437 170.829 13.2566 171.34 13.1193C171.852 12.982 172.415 12.8755 173.031 12.7997C173.641 12.724 174.157 12.6577 174.579 12.6009C175.005 12.544 175.329 12.4541 175.552 12.331C175.774 12.2079 175.886 12.009 175.886 11.7344V11.4787C175.886 10.7353 175.663 10.1506 175.218 9.72443C174.778 9.29356 174.143 9.07812 173.315 9.07812C172.529 9.07812 171.887 9.25095 171.39 9.59659C170.897 9.94223 170.552 10.3494 170.353 10.8182L169.153 10.3849C169.399 9.78835 169.74 9.3125 170.175 8.95739C170.611 8.59754 171.099 8.33949 171.638 8.18324C172.178 8.02225 172.725 7.94176 173.279 7.94176C173.696 7.94176 174.129 7.99621 174.579 8.10511C175.033 8.21401 175.455 8.40341 175.843 8.6733C176.231 8.93845 176.546 9.31013 176.788 9.78835C177.029 10.2618 177.15 10.8632 177.15 11.5923V19H175.886V17.2741H175.808C175.656 17.5961 175.431 17.9086 175.133 18.2116C174.835 18.5147 174.46 18.7633 174.011 18.9574C173.561 19.1515 173.033 19.2486 172.427 19.2486ZM172.597 18.0909C173.27 18.0909 173.852 17.9418 174.344 17.6435C174.837 17.3452 175.216 16.9498 175.481 16.4574C175.751 15.9602 175.886 15.4134 175.886 14.8168V13.2401C175.791 13.33 175.632 13.4105 175.41 13.4815C175.192 13.5526 174.939 13.6165 174.65 13.6733C174.366 13.7254 174.082 13.7704 173.798 13.8082C173.513 13.8461 173.258 13.8793 173.031 13.9077C172.415 13.9834 171.889 14.1018 171.454 14.2628C171.018 14.4238 170.684 14.6463 170.452 14.9304C170.22 15.2098 170.104 15.5696 170.104 16.0099C170.104 16.6728 170.341 17.1866 170.815 17.5511C171.288 17.911 171.882 18.0909 172.597 18.0909ZM181.777 4.45455V19H180.513V4.45455H181.777ZM185.136 19V8.09091H186.408V19H185.136ZM185.783 6.21591C185.522 6.21591 185.3 6.12831 185.115 5.95312C184.93 5.7732 184.838 5.55777 184.838 5.30682C184.838 5.05587 184.93 4.8428 185.115 4.66761C185.3 4.48769 185.522 4.39773 185.783 4.39773C186.043 4.39773 186.266 4.48769 186.45 4.66761C186.635 4.8428 186.727 5.05587 186.727 5.30682C186.727 5.55777 186.635 5.7732 186.45 5.95312C186.266 6.12831 186.043 6.21591 185.783 6.21591ZM189.41 19V17.9986L195.717 9.37642V9.28409H189.68V8.09091H197.343V9.13494L191.15 17.7145V17.8068H197.571V19H189.41ZM204.455 19.2273C203.437 19.2273 202.556 18.9905 201.812 18.517C201.069 18.0388 200.494 17.3783 200.087 16.5355C199.684 15.688 199.483 14.7126 199.483 13.6094C199.483 12.5109 199.684 11.5355 200.087 10.6832C200.494 9.82623 201.055 9.15625 201.77 8.6733C202.49 8.18561 203.321 7.94176 204.263 7.94176C204.855 7.94176 205.425 8.05066 205.974 8.26847C206.524 8.48153 207.016 8.81061 207.452 9.25568C207.892 9.69602 208.24 10.2524 208.496 10.9247C208.751 11.5923 208.879 12.383 208.879 13.2969V13.9219H200.357V12.8068H207.587C207.587 12.1061 207.445 11.4763 207.161 10.9176C206.881 10.3542 206.491 9.90909 205.989 9.58239C205.491 9.25568 204.916 9.09233 204.263 9.09233C203.571 9.09233 202.963 9.27699 202.438 9.64631C201.912 10.0156 201.5 10.5033 201.202 11.1094C200.908 11.7154 200.759 12.3783 200.754 13.098V13.7656C200.754 14.6321 200.903 15.3897 201.202 16.0384C201.505 16.6823 201.933 17.1818 202.487 17.5369C203.041 17.892 203.697 18.0696 204.455 18.0696C204.971 18.0696 205.423 17.9891 205.811 17.8281C206.204 17.6671 206.533 17.4517 206.798 17.1818C207.068 16.9072 207.272 16.6065 207.409 16.2798L208.609 16.6705C208.444 17.1297 208.171 17.5535 207.793 17.9418C207.419 18.33 206.95 18.6425 206.386 18.8793C205.828 19.1113 205.184 19.2273 204.455 19.2273ZM215.593 19.2273C214.698 19.2273 213.914 18.9905 213.242 18.517C212.569 18.0436 212.044 17.383 211.665 16.5355C211.291 15.688 211.104 14.7008 211.104 13.5739C211.104 12.4517 211.291 11.4692 211.665 10.6264C212.044 9.77888 212.572 9.12074 213.249 8.65199C213.926 8.1785 214.714 7.94176 215.614 7.94176C216.277 7.94176 216.828 8.06013 217.269 8.29688C217.709 8.52888 218.062 8.81771 218.327 9.16335C218.592 9.509 218.798 9.84517 218.945 10.1719H219.059V4.45455H220.33V19H219.094V16.9759H218.945C218.798 17.3073 218.59 17.6482 218.32 17.9986C218.05 18.3442 217.693 18.6354 217.248 18.8722C216.807 19.1089 216.256 19.2273 215.593 19.2273ZM215.742 18.0696C216.447 18.0696 217.049 17.8778 217.546 17.4943C218.043 17.1061 218.422 16.5734 218.682 15.8963C218.947 15.2145 219.08 14.4332 219.08 13.5526C219.08 12.6813 218.95 11.9119 218.689 11.2443C218.429 10.572 218.05 10.0464 217.553 9.66761C217.056 9.28409 216.452 9.09233 215.742 9.09233C215.013 9.09233 214.397 9.29119 213.895 9.68892C213.398 10.0819 213.019 10.6146 212.759 11.2869C212.503 11.9593 212.375 12.7145 212.375 13.5526C212.375 14.4001 212.506 15.1648 212.766 15.8466C213.026 16.5284 213.405 17.0705 213.902 17.473C214.404 17.8707 215.017 18.0696 215.742 18.0696ZM233.483 19.2273C232.588 19.2273 231.805 18.9905 231.132 18.517C230.46 18.0436 229.935 17.383 229.556 16.5355C229.182 15.688 228.995 14.7008 228.995 13.5739C228.995 12.4517 229.182 11.4692 229.556 10.6264C229.935 9.77888 230.462 9.12074 231.14 8.65199C231.817 8.1785 232.605 7.94176 233.505 7.94176C234.167 7.94176 234.719 8.06013 235.159 8.29688C235.6 8.52888 235.953 8.81771 236.218 9.16335C236.483 9.509 236.689 9.84517 236.836 10.1719H236.949V4.45455H238.221V19H236.985V16.9759H236.836C236.689 17.3073 236.48 17.6482 236.211 17.9986C235.941 18.3442 235.583 18.6354 235.138 18.8722C234.698 19.1089 234.146 19.2273 233.483 19.2273ZM233.632 18.0696C234.338 18.0696 234.939 17.8778 235.436 17.4943C235.934 17.1061 236.312 16.5734 236.573 15.8963C236.838 15.2145 236.971 14.4332 236.971 13.5526C236.971 12.6813 236.84 11.9119 236.58 11.2443C236.319 10.572 235.941 10.0464 235.444 9.66761C234.946 9.28409 234.343 9.09233 233.632 9.09233C232.903 9.09233 232.288 9.29119 231.786 9.68892C231.289 10.0819 230.91 10.6146 230.65 11.2869C230.394 11.9593 230.266 12.7145 230.266 13.5526C230.266 14.4001 230.396 15.1648 230.657 15.8466C230.917 16.5284 231.296 17.0705 231.793 17.473C232.295 17.8707 232.908 18.0696 233.632 18.0696ZM244.868 19.2486C244.21 19.2486 243.609 19.1207 243.064 18.8651C242.52 18.6046 242.087 18.2306 241.765 17.7429C241.443 17.2505 241.282 16.6539 241.282 15.9531C241.282 15.4134 241.383 14.9588 241.587 14.5895C241.791 14.2202 242.079 13.9171 242.453 13.6804C242.828 13.4437 243.27 13.2566 243.782 13.1193C244.293 12.982 244.856 12.8755 245.472 12.7997C246.083 12.724 246.599 12.6577 247.02 12.6009C247.446 12.544 247.771 12.4541 247.993 12.331C248.216 12.2079 248.327 12.009 248.327 11.7344V11.4787C248.327 10.7353 248.105 10.1506 247.659 9.72443C247.219 9.29356 246.585 9.07812 245.756 9.07812C244.97 9.07812 244.328 9.25095 243.831 9.59659C243.339 9.94223 242.993 10.3494 242.794 10.8182L241.594 10.3849C241.84 9.78835 242.181 9.3125 242.617 8.95739C243.052 8.59754 243.54 8.33949 244.08 8.18324C244.62 8.02225 245.167 7.94176 245.721 7.94176C246.137 7.94176 246.57 7.99621 247.02 8.10511C247.475 8.21401 247.896 8.40341 248.284 8.6733C248.673 8.93845 248.988 9.31013 249.229 9.78835C249.471 10.2618 249.591 10.8632 249.591 11.5923V19H248.327V17.2741H248.249C248.097 17.5961 247.873 17.9086 247.574 18.2116C247.276 18.5147 246.902 18.7633 246.452 18.9574C246.002 19.1515 245.474 19.2486 244.868 19.2486ZM245.039 18.0909C245.711 18.0909 246.293 17.9418 246.786 17.6435C247.278 17.3452 247.657 16.9498 247.922 16.4574C248.192 15.9602 248.327 15.4134 248.327 14.8168V13.2401C248.232 13.33 248.074 13.4105 247.851 13.4815C247.633 13.5526 247.38 13.6165 247.091 13.6733C246.807 13.7254 246.523 13.7704 246.239 13.8082C245.955 13.8461 245.699 13.8793 245.472 13.9077C244.856 13.9834 244.331 14.1018 243.895 14.2628C243.46 14.4238 243.126 14.6463 242.894 14.9304C242.662 15.2098 242.546 15.5696 242.546 16.0099C242.546 16.6728 242.783 17.1866 243.256 17.5511C243.73 17.911 244.324 18.0909 245.039 18.0909ZM257.251 8.09091V9.19176H252.045V8.09091H257.251ZM253.672 5.47727H254.943V16.152C254.943 16.6065 255.021 16.964 255.177 17.2244C255.333 17.4801 255.537 17.6624 255.788 17.7713C256.039 17.8755 256.306 17.9276 256.591 17.9276C256.756 17.9276 256.898 17.9181 257.017 17.8991C257.135 17.8755 257.239 17.8518 257.329 17.8281L257.599 18.9716C257.476 19.0189 257.324 19.0616 257.145 19.0994C256.965 19.142 256.742 19.1634 256.477 19.1634C256.013 19.1634 255.565 19.0616 255.135 18.858C254.708 18.6544 254.358 18.3513 254.083 17.9489C253.809 17.5464 253.672 17.0469 253.672 16.4503V5.47727ZM263.169 19.2486C262.511 19.2486 261.91 19.1207 261.365 18.8651C260.821 18.6046 260.387 18.2306 260.065 17.7429C259.743 17.2505 259.582 16.6539 259.582 15.9531C259.582 15.4134 259.684 14.9588 259.888 14.5895C260.091 14.2202 260.38 13.9171 260.754 13.6804C261.128 13.4437 261.571 13.2566 262.082 13.1193C262.594 12.982 263.157 12.8755 263.773 12.7997C264.384 12.724 264.9 12.6577 265.321 12.6009C265.747 12.544 266.071 12.4541 266.294 12.331C266.517 12.2079 266.628 12.009 266.628 11.7344V11.4787C266.628 10.7353 266.405 10.1506 265.96 9.72443C265.52 9.29356 264.885 9.07812 264.057 9.07812C263.271 9.07812 262.629 9.25095 262.132 9.59659C261.64 9.94223 261.294 10.3494 261.095 10.8182L259.895 10.3849C260.141 9.78835 260.482 9.3125 260.918 8.95739C261.353 8.59754 261.841 8.33949 262.381 8.18324C262.92 8.02225 263.467 7.94176 264.021 7.94176C264.438 7.94176 264.871 7.99621 265.321 8.10511C265.776 8.21401 266.197 8.40341 266.585 8.6733C266.973 8.93845 267.288 9.31013 267.53 9.78835C267.771 10.2618 267.892 10.8632 267.892 11.5923V19H266.628V17.2741H266.55C266.398 17.5961 266.173 17.9086 265.875 18.2116C265.577 18.5147 265.203 18.7633 264.753 18.9574C264.303 19.1515 263.775 19.2486 263.169 19.2486ZM263.339 18.0909C264.012 18.0909 264.594 17.9418 265.087 17.6435C265.579 17.3452 265.958 16.9498 266.223 16.4574C266.493 15.9602 266.628 15.4134 266.628 14.8168V13.2401C266.533 13.33 266.375 13.4105 266.152 13.4815C265.934 13.5526 265.681 13.6165 265.392 13.6733C265.108 13.7254 264.824 13.7704 264.54 13.8082C264.256 13.8461 264 13.8793 263.773 13.9077C263.157 13.9834 262.632 14.1018 262.196 14.2628C261.76 14.4238 261.427 14.6463 261.195 14.9304C260.963 15.2098 260.847 15.5696 260.847 16.0099C260.847 16.6728 261.083 17.1866 261.557 17.5511C262.03 17.911 262.625 18.0909 263.339 18.0909ZM278.585 10.4844L277.427 10.8111C277.313 10.4844 277.152 10.1884 276.944 9.9233C276.736 9.65814 276.463 9.44744 276.127 9.29119C275.796 9.13494 275.384 9.05682 274.891 9.05682C274.153 9.05682 273.547 9.23201 273.073 9.58239C272.6 9.93277 272.363 10.3849 272.363 10.9389C272.363 11.4077 272.524 11.7888 272.846 12.0824C273.173 12.3712 273.674 12.6009 274.352 12.7713L275.999 13.1761C276.913 13.3987 277.597 13.7514 278.052 14.2344C278.511 14.7173 278.741 15.3234 278.741 16.0526C278.741 16.6681 278.57 17.215 278.229 17.6932C277.888 18.1714 277.413 18.5478 276.802 18.8224C276.196 19.0923 275.493 19.2273 274.692 19.2273C273.627 19.2273 272.749 18.9882 272.058 18.5099C271.366 18.027 270.924 17.331 270.729 16.4219L271.944 16.1236C272.1 16.7723 272.406 17.2623 272.86 17.5938C273.319 17.9252 273.923 18.0909 274.671 18.0909C275.509 18.0909 276.179 17.9039 276.681 17.5298C277.183 17.151 277.434 16.6776 277.434 16.1094C277.434 15.669 277.287 15.2997 276.994 15.0014C276.7 14.6984 276.255 14.4759 275.658 14.3338L273.876 13.9077C272.929 13.6804 272.228 13.3205 271.773 12.8281C271.319 12.3357 271.092 11.7249 271.092 10.9957C271.092 10.3944 271.255 9.86648 271.582 9.41193C271.908 8.95265 272.358 8.5928 272.931 8.33239C273.504 8.07197 274.157 7.94176 274.891 7.94176C275.89 7.94176 276.688 8.16903 277.285 8.62358C277.886 9.07339 278.319 9.69366 278.585 10.4844ZM285.919 19.2273C284.901 19.2273 284.021 18.9905 283.277 18.517C282.534 18.0388 281.959 17.3783 281.551 16.5355C281.149 15.688 280.948 14.7126 280.948 13.6094C280.948 12.5109 281.149 11.5355 281.551 10.6832C281.959 9.82623 282.52 9.15625 283.235 8.6733C283.954 8.18561 284.785 7.94176 285.728 7.94176C286.319 7.94176 286.89 8.05066 287.439 8.26847C287.989 8.48153 288.481 8.81061 288.917 9.25568C289.357 9.69602 289.705 10.2524 289.961 10.9247C290.216 11.5923 290.344 12.383 290.344 13.2969V13.9219H281.821V12.8068H289.051C289.051 12.1061 288.909 11.4763 288.625 10.9176C288.346 10.3542 287.955 9.90909 287.453 9.58239C286.956 9.25568 286.381 9.09233 285.728 9.09233C285.036 9.09233 284.428 9.27699 283.902 9.64631C283.377 10.0156 282.965 10.5033 282.667 11.1094C282.373 11.7154 282.224 12.3783 282.219 13.098V13.7656C282.219 14.6321 282.368 15.3897 282.667 16.0384C282.97 16.6823 283.398 17.1818 283.952 17.5369C284.506 17.892 285.162 18.0696 285.919 18.0696C286.435 18.0696 286.888 17.9891 287.276 17.8281C287.669 17.6671 287.998 17.4517 288.263 17.1818C288.533 16.9072 288.737 16.6065 288.874 16.2798L290.074 16.6705C289.908 17.1297 289.636 17.5535 289.257 17.9418C288.883 18.33 288.415 18.6425 287.851 18.8793C287.292 19.1113 286.649 19.2273 285.919 19.2273ZM297.427 8.09091V9.19176H292.221V8.09091H297.427ZM293.847 5.47727H295.119V16.152C295.119 16.6065 295.197 16.964 295.353 17.2244C295.509 17.4801 295.713 17.6624 295.964 17.7713C296.215 17.8755 296.482 17.9276 296.766 17.9276C296.932 17.9276 297.074 17.9181 297.192 17.8991C297.311 17.8755 297.415 17.8518 297.505 17.8281L297.775 18.9716C297.652 19.0189 297.5 19.0616 297.32 19.0994C297.14 19.142 296.918 19.1634 296.653 19.1634C296.189 19.1634 295.741 19.0616 295.31 18.858C294.884 18.6544 294.534 18.3513 294.259 17.9489C293.985 17.5464 293.847 17.0469 293.847 16.4503V5.47727ZM307.432 10.4844L306.275 10.8111C306.161 10.4844 306 10.1884 305.792 9.9233C305.583 9.65814 305.311 9.44744 304.975 9.29119C304.643 9.13494 304.231 9.05682 303.739 9.05682C303 9.05682 302.394 9.23201 301.921 9.58239C301.447 9.93277 301.211 10.3849 301.211 10.9389C301.211 11.4077 301.372 11.7888 301.694 12.0824C302.02 12.3712 302.522 12.6009 303.199 12.7713L304.847 13.1761C305.761 13.3987 306.445 13.7514 306.9 14.2344C307.359 14.7173 307.588 15.3234 307.588 16.0526C307.588 16.6681 307.418 17.215 307.077 17.6932C306.736 18.1714 306.26 18.5478 305.65 18.8224C305.043 19.0923 304.34 19.2273 303.54 19.2273C302.475 19.2273 301.596 18.9882 300.905 18.5099C300.214 18.027 299.771 17.331 299.577 16.4219L300.792 16.1236C300.948 16.7723 301.253 17.2623 301.708 17.5938C302.167 17.9252 302.771 18.0909 303.519 18.0909C304.357 18.0909 305.027 17.9039 305.529 17.5298C306.031 17.151 306.282 16.6776 306.282 16.1094C306.282 15.669 306.135 15.2997 305.841 15.0014C305.548 14.6984 305.103 14.4759 304.506 14.3338L302.723 13.9077C301.776 13.6804 301.076 13.3205 300.621 12.8281C300.167 12.3357 299.939 11.7249 299.939 10.9957C299.939 10.3944 300.103 9.86648 300.429 9.41193C300.756 8.95265 301.206 8.5928 301.779 8.33239C302.352 8.07197 303.005 7.94176 303.739 7.94176C304.738 7.94176 305.536 8.16903 306.132 8.62358C306.734 9.07339 307.167 9.69366 307.432 10.4844ZM39.9091 43.2273C38.9669 43.2273 38.1335 42.9882 37.4091 42.5099C36.6894 42.0317 36.1259 41.3712 35.7188 40.5284C35.3116 39.6809 35.108 38.7031 35.108 37.5952C35.108 36.4777 35.3116 35.4953 35.7188 34.6477C36.1259 33.7955 36.6894 33.1326 37.4091 32.6591C38.1335 32.1809 38.9669 31.9418 39.9091 31.9418C40.8513 31.9418 41.6823 32.1809 42.402 32.6591C43.1217 33.1373 43.6851 33.8002 44.0923 34.6477C44.5043 35.4953 44.7102 36.4777 44.7102 37.5952C44.7102 38.7031 44.5066 39.6809 44.0994 40.5284C43.6922 41.3712 43.1264 42.0317 42.402 42.5099C41.6823 42.9882 40.8513 43.2273 39.9091 43.2273ZM39.9091 42.0696C40.6667 42.0696 41.3082 41.866 41.8338 41.4588C42.3594 41.0516 42.7571 40.5095 43.027 39.8324C43.3016 39.1553 43.4389 38.4096 43.4389 37.5952C43.4389 36.7808 43.3016 36.0327 43.027 35.3509C42.7571 34.669 42.3594 34.1222 41.8338 33.7102C41.3082 33.2983 40.6667 33.0923 39.9091 33.0923C39.1563 33.0923 38.5147 33.2983 37.9844 33.7102C37.4588 34.1222 37.0587 34.669 36.7841 35.3509C36.5142 36.0327 36.3793 36.7808 36.3793 37.5952C36.3793 38.4096 36.5142 39.1553 36.7841 39.8324C37.0587 40.5095 37.4588 41.0516 37.9844 41.4588C38.5099 41.866 39.1515 42.0696 39.9091 42.0696ZM48.7496 36.1818V43H47.4854V32.0909H48.7141V33.8026H48.8278C49.0835 33.2438 49.4812 32.7964 50.021 32.4602C50.5655 32.1193 51.2378 31.9489 52.038 31.9489C52.7719 31.9489 53.4158 32.1027 53.9698 32.4105C54.5285 32.7135 54.9618 33.161 55.2695 33.7528C55.582 34.3447 55.7383 35.0715 55.7383 35.9332V43H54.4741V36.0114C54.4741 35.1165 54.2231 34.4086 53.7212 33.8878C53.2241 33.367 52.5565 33.1065 51.7184 33.1065C51.1455 33.1065 50.6365 33.2296 50.1914 33.4759C49.7463 33.7221 49.3936 34.0772 49.1332 34.5412C48.8775 35.0005 48.7496 35.5473 48.7496 36.1818ZM64.7067 43V32.0909H65.978V43H64.7067ZM65.353 30.2159C65.0926 30.2159 64.87 30.1283 64.6854 29.9531C64.5007 29.7732 64.4084 29.5578 64.4084 29.3068C64.4084 29.0559 64.5007 28.8428 64.6854 28.6676C64.87 28.4877 65.0926 28.3977 65.353 28.3977C65.6134 28.3977 65.8359 28.4877 66.0206 28.6676C66.2053 28.8428 66.2976 29.0559 66.2976 29.3068C66.2976 29.5578 66.2053 29.7732 66.0206 29.9531C65.8359 30.1283 65.6134 30.2159 65.353 30.2159ZM70.5856 36.1818V43H69.3214V32.0909H70.5501V33.8026H70.6637C70.9194 33.2438 71.3171 32.7964 71.8569 32.4602C72.4014 32.1193 73.0737 31.9489 73.8739 31.9489C74.6078 31.9489 75.2518 32.1027 75.8058 32.4105C76.3645 32.7135 76.7977 33.161 77.1055 33.7528C77.418 34.3447 77.5742 35.0715 77.5742 35.9332V43H76.31V36.0114C76.31 35.1165 76.0591 34.4086 75.5572 33.8878C75.06 33.367 74.3924 33.1065 73.5543 33.1065C72.9814 33.1065 72.4724 33.2296 72.0273 33.4759C71.5823 33.7221 71.2295 34.0772 70.9691 34.5412C70.7134 35.0005 70.5856 35.5473 70.5856 36.1818ZM84.831 43.2273C83.9361 43.2273 83.1525 42.9905 82.4801 42.517C81.8078 42.0436 81.2822 41.383 80.9034 40.5355C80.5294 39.688 80.3423 38.7008 80.3423 37.5739C80.3423 36.4517 80.5294 35.4692 80.9034 34.6264C81.2822 33.7789 81.8101 33.1207 82.4872 32.652C83.1643 32.1785 83.9527 31.9418 84.8523 31.9418C85.5152 31.9418 86.0668 32.0601 86.5071 32.2969C86.9474 32.5289 87.3002 32.8177 87.5653 33.1634C87.8305 33.509 88.0365 33.8452 88.1832 34.1719H88.2969V28.4545H89.5682V43H88.3324V40.9759H88.1832C88.0365 41.3073 87.8281 41.6482 87.5582 41.9986C87.2884 42.3442 86.9309 42.6354 86.4858 42.8722C86.0455 43.1089 85.4938 43.2273 84.831 43.2273ZM84.9801 42.0696C85.6856 42.0696 86.2869 41.8778 86.7841 41.4943C87.2813 41.1061 87.66 40.5734 87.9205 39.8963C88.1856 39.2145 88.3182 38.4332 88.3182 37.5526C88.3182 36.6813 88.188 35.9119 87.9276 35.2443C87.6671 34.572 87.2884 34.0464 86.7912 33.6676C86.294 33.2841 85.6903 33.0923 84.9801 33.0923C84.2509 33.0923 83.6354 33.2912 83.1335 33.6889C82.6364 34.0819 82.2576 34.6146 81.9972 35.2869C81.7415 35.9593 81.6136 36.7145 81.6136 37.5526C81.6136 38.4001 81.7438 39.1648 82.0043 39.8466C82.2647 40.5284 82.6435 41.0705 83.1406 41.473C83.6425 41.8707 84.2557 42.0696 84.9801 42.0696ZM93.1832 43V32.0909H94.4545V43H93.1832ZM93.8295 30.2159C93.5691 30.2159 93.3466 30.1283 93.1619 29.9531C92.9773 29.7732 92.8849 29.5578 92.8849 29.3068C92.8849 29.0559 92.9773 28.8428 93.1619 28.6676C93.3466 28.4877 93.5691 28.3977 93.8295 28.3977C94.09 28.3977 94.3125 28.4877 94.4972 28.6676C94.6818 28.8428 94.7741 29.0559 94.7741 29.3068C94.7741 29.5578 94.6818 29.7732 94.4972 29.9531C94.3125 30.1283 94.09 30.2159 93.8295 30.2159ZM106.243 32.0909L102.258 43H100.909L96.9244 32.0909H98.2951L101.534 41.331H101.633L104.872 32.0909H106.243ZM108.73 43V32.0909H110.001V43H108.73ZM109.376 30.2159C109.116 30.2159 108.893 30.1283 108.709 29.9531C108.524 29.7732 108.432 29.5578 108.432 29.3068C108.432 29.0559 108.524 28.8428 108.709 28.6676C108.893 28.4877 109.116 28.3977 109.376 28.3977C109.637 28.3977 109.859 28.4877 110.044 28.6676C110.229 28.8428 110.321 29.0559 110.321 29.3068C110.321 29.5578 110.229 29.7732 110.044 29.9531C109.859 30.1283 109.637 30.2159 109.376 30.2159ZM117.272 43.2273C116.377 43.2273 115.594 42.9905 114.922 42.517C114.249 42.0436 113.724 41.383 113.345 40.5355C112.971 39.688 112.784 38.7008 112.784 37.5739C112.784 36.4517 112.971 35.4692 113.345 34.6264C113.724 33.7789 114.252 33.1207 114.929 32.652C115.606 32.1785 116.394 31.9418 117.294 31.9418C117.957 31.9418 118.508 32.0601 118.949 32.2969C119.389 32.5289 119.742 32.8177 120.007 33.1634C120.272 33.509 120.478 33.8452 120.625 34.1719H120.738V28.4545H122.01V43H120.774V40.9759H120.625C120.478 41.3073 120.27 41.6482 120 41.9986C119.73 42.3442 119.372 42.6354 118.927 42.8722C118.487 43.1089 117.935 43.2273 117.272 43.2273ZM117.422 42.0696C118.127 42.0696 118.728 41.8778 119.225 41.4943C119.723 41.1061 120.101 40.5734 120.362 39.8963C120.627 39.2145 120.76 38.4332 120.76 37.5526C120.76 36.6813 120.629 35.9119 120.369 35.2443C120.109 34.572 119.73 34.0464 119.233 33.6676C118.735 33.2841 118.132 33.0923 117.422 33.0923C116.692 33.0923 116.077 33.2912 115.575 33.6889C115.078 34.0819 114.699 34.6146 114.439 35.2869C114.183 35.9593 114.055 36.7145 114.055 37.5526C114.055 38.4001 114.185 39.1648 114.446 39.8466C114.706 40.5284 115.085 41.0705 115.582 41.473C116.084 41.8707 116.697 42.0696 117.422 42.0696ZM132.542 38.831V32.0909H133.806V43H132.542V41.1889H132.443C132.187 41.7476 131.782 42.214 131.228 42.5881C130.674 42.9574 129.997 43.142 129.197 43.142C128.501 43.142 127.883 42.9905 127.343 42.6875C126.804 42.3797 126.38 41.9299 126.072 41.3381C125.764 40.7462 125.61 40.0194 125.61 39.1577V32.0909H126.875V39.0795C126.875 39.9318 127.126 40.6184 127.627 41.1392C128.129 41.6553 128.773 41.9134 129.559 41.9134C130.052 41.9134 130.525 41.795 130.98 41.5582C131.434 41.3215 131.808 40.9759 132.102 40.5213C132.395 40.062 132.542 39.4986 132.542 38.831ZM140.2 43.2486C139.542 43.2486 138.941 43.1207 138.396 42.8651C137.852 42.6046 137.419 42.2306 137.097 41.7429C136.775 41.2505 136.614 40.6539 136.614 39.9531C136.614 39.4134 136.715 38.9588 136.919 38.5895C137.123 38.2202 137.411 37.9171 137.786 37.6804C138.16 37.4437 138.602 37.2566 139.114 37.1193C139.625 36.982 140.188 36.8755 140.804 36.7997C141.415 36.724 141.931 36.6577 142.352 36.6009C142.778 36.544 143.103 36.4541 143.325 36.331C143.548 36.2079 143.659 36.009 143.659 35.7344V35.4787C143.659 34.7353 143.437 34.1506 142.991 33.7244C142.551 33.2936 141.917 33.0781 141.088 33.0781C140.302 33.0781 139.661 33.2509 139.163 33.5966C138.671 33.9422 138.325 34.3494 138.126 34.8182L136.926 34.3849C137.172 33.7884 137.513 33.3125 137.949 32.9574C138.384 32.5975 138.872 32.3395 139.412 32.1832C139.952 32.0223 140.499 31.9418 141.053 31.9418C141.469 31.9418 141.902 31.9962 142.352 32.1051C142.807 32.214 143.228 32.4034 143.616 32.6733C144.005 32.9384 144.32 33.3101 144.561 33.7884C144.803 34.2618 144.923 34.8632 144.923 35.5923V43H143.659V41.2741H143.581C143.429 41.5961 143.205 41.9086 142.906 42.2116C142.608 42.5147 142.234 42.7633 141.784 42.9574C141.334 43.1515 140.806 43.2486 140.2 43.2486ZM140.371 42.0909C141.043 42.0909 141.625 41.9418 142.118 41.6435C142.61 41.3452 142.989 40.9498 143.254 40.4574C143.524 39.9602 143.659 39.4134 143.659 38.8168V37.2401C143.564 37.33 143.406 37.4105 143.183 37.4815C142.965 37.5526 142.712 37.6165 142.423 37.6733C142.139 37.7254 141.855 37.7704 141.571 37.8082C141.287 37.8461 141.031 37.8793 140.804 37.9077C140.188 37.9834 139.663 38.1018 139.227 38.2628C138.792 38.4238 138.458 38.6463 138.226 38.9304C137.994 39.2098 137.878 39.5696 137.878 40.0099C137.878 40.6728 138.115 41.1866 138.588 41.5511C139.062 41.911 139.656 42.0909 140.371 42.0909ZM149.55 28.4545V43H148.286V28.4545H149.55ZM162.782 43.2273C161.807 43.2273 160.957 42.9834 160.232 42.4957C159.513 42.008 158.954 41.3404 158.556 40.4929C158.158 39.6454 157.96 38.6795 157.96 37.5952C157.96 36.5014 158.161 35.5284 158.563 34.6761C158.97 33.8239 159.534 33.1562 160.254 32.6733C160.973 32.1856 161.809 31.9418 162.761 31.9418C163.49 31.9418 164.15 32.0838 164.742 32.3679C165.334 32.6473 165.822 33.0426 166.205 33.554C166.594 34.0606 166.837 34.6525 166.937 35.3295H165.658C165.526 34.714 165.206 34.1884 164.7 33.7528C164.198 33.3125 163.558 33.0923 162.782 33.0923C162.086 33.0923 161.47 33.2817 160.935 33.6605C160.4 34.0346 159.981 34.5578 159.678 35.2301C159.38 35.8977 159.231 36.6719 159.231 37.5526C159.231 38.438 159.378 39.2216 159.671 39.9034C159.965 40.5805 160.377 41.1108 160.907 41.4943C161.442 41.8778 162.067 42.0696 162.782 42.0696C163.265 42.0696 163.705 41.9796 164.103 41.7997C164.505 41.6151 164.842 41.3546 165.112 41.0185C165.386 40.6823 165.571 40.2822 165.665 39.8182H166.944C166.849 40.4763 166.615 41.0634 166.241 41.5795C165.871 42.0909 165.391 42.4934 164.799 42.7869C164.212 43.0805 163.54 43.2273 162.782 43.2273ZM170.918 28.4545V43H169.653V28.4545H170.918ZM174.277 43V32.0909H175.548V43H174.277ZM174.923 30.2159C174.663 30.2159 174.44 30.1283 174.256 29.9531C174.071 29.7732 173.979 29.5578 173.979 29.3068C173.979 29.0559 174.071 28.8428 174.256 28.6676C174.44 28.4877 174.663 28.3977 174.923 28.3977C175.184 28.3977 175.406 28.4877 175.591 28.6676C175.776 28.8428 175.868 29.0559 175.868 29.3068C175.868 29.5578 175.776 29.7732 175.591 29.9531C175.406 30.1283 175.184 30.2159 174.923 30.2159ZM183.302 43.2273C182.284 43.2273 181.404 42.9905 180.66 42.517C179.917 42.0388 179.342 41.3783 178.934 40.5355C178.532 39.688 178.331 38.7126 178.331 37.6094C178.331 36.5109 178.532 35.5355 178.934 34.6832C179.342 33.8262 179.903 33.1562 180.618 32.6733C181.337 32.1856 182.168 31.9418 183.11 31.9418C183.702 31.9418 184.273 32.0507 184.822 32.2685C185.371 32.4815 185.864 32.8106 186.299 33.2557C186.74 33.696 187.088 34.2524 187.343 34.9247C187.599 35.5923 187.727 36.383 187.727 37.2969V37.9219H179.204V36.8068H186.434C186.434 36.1061 186.292 35.4763 186.008 34.9176C185.729 34.3542 185.338 33.9091 184.836 33.5824C184.339 33.2557 183.764 33.0923 183.11 33.0923C182.419 33.0923 181.811 33.277 181.285 33.6463C180.76 34.0156 180.348 34.5033 180.049 35.1094C179.756 35.7154 179.607 36.3783 179.602 37.098V37.7656C179.602 38.6321 179.751 39.3897 180.049 40.0384C180.352 40.6823 180.781 41.1818 181.335 41.5369C181.889 41.892 182.545 42.0696 183.302 42.0696C183.818 42.0696 184.27 41.9891 184.659 41.8281C185.052 41.6671 185.381 41.4517 185.646 41.1818C185.916 40.9072 186.119 40.6065 186.257 40.2798L187.457 40.6705C187.291 41.1297 187.019 41.5535 186.64 41.9418C186.266 42.33 185.797 42.6425 185.234 42.8793C184.675 43.1113 184.031 43.2273 183.302 43.2273ZM191.777 36.1818V43H190.513V32.0909H191.741V33.8026H191.855C192.111 33.2438 192.509 32.7964 193.048 32.4602C193.593 32.1193 194.265 31.9489 195.065 31.9489C195.799 31.9489 196.443 32.1027 196.997 32.4105C197.556 32.7135 197.989 33.161 198.297 33.7528C198.609 34.3447 198.766 35.0715 198.766 35.9332V43H197.501V36.0114C197.501 35.1165 197.25 34.4086 196.749 33.8878C196.251 33.367 195.584 33.1065 194.746 33.1065C194.173 33.1065 193.664 33.2296 193.219 33.4759C192.774 33.7221 192.421 34.0772 192.161 34.5412C191.905 35.0005 191.777 35.5473 191.777 36.1818ZM206.392 32.0909V33.1918H201.186V32.0909H206.392ZM202.812 29.4773H204.083V40.152C204.083 40.6065 204.162 40.964 204.318 41.2244C204.474 41.4801 204.678 41.6624 204.929 41.7713C205.18 41.8755 205.447 41.9276 205.731 41.9276C205.897 41.9276 206.039 41.9181 206.157 41.8991C206.276 41.8755 206.38 41.8518 206.47 41.8281L206.74 42.9716C206.617 43.0189 206.465 43.0616 206.285 43.0994C206.105 43.142 205.883 43.1634 205.618 43.1634C205.154 43.1634 204.706 43.0616 204.275 42.858C203.849 42.6544 203.499 42.3513 203.224 41.9489C202.949 41.5464 202.812 41.0469 202.812 40.4503V29.4773ZM219.128 43.2273C218.186 43.2273 217.352 42.9882 216.628 42.5099C215.908 42.0317 215.345 41.3712 214.938 40.5284C214.53 39.6809 214.327 38.7031 214.327 37.5952C214.327 36.4777 214.53 35.4953 214.938 34.6477C215.345 33.7955 215.908 33.1326 216.628 32.6591C217.352 32.1809 218.186 31.9418 219.128 31.9418C220.07 31.9418 220.901 32.1809 221.621 32.6591C222.34 33.1373 222.904 33.8002 223.311 34.6477C223.723 35.4953 223.929 36.4777 223.929 37.5952C223.929 38.7031 223.725 39.6809 223.318 40.5284C222.911 41.3712 222.345 42.0317 221.621 42.5099C220.901 42.9882 220.07 43.2273 219.128 43.2273ZM219.128 42.0696C219.885 42.0696 220.527 41.866 221.053 41.4588C221.578 41.0516 221.976 40.5095 222.246 39.8324C222.52 39.1553 222.658 38.4096 222.658 37.5952C222.658 36.7808 222.52 36.0327 222.246 35.3509C221.976 34.669 221.578 34.1222 221.053 33.7102C220.527 33.2983 219.885 33.0923 219.128 33.0923C218.375 33.0923 217.733 33.2983 217.203 33.7102C216.678 34.1222 216.277 34.669 216.003 35.3509C215.733 36.0327 215.598 36.7808 215.598 37.5952C215.598 38.4096 215.733 39.1553 216.003 39.8324C216.277 40.5095 216.678 41.0516 217.203 41.4588C217.729 41.866 218.37 42.0696 219.128 42.0696ZM226.704 43V32.0909H227.933V33.767H228.025C228.243 33.2178 228.622 32.7751 229.162 32.4389C229.706 32.098 230.322 31.9276 231.008 31.9276C231.112 31.9276 231.228 31.9299 231.356 31.9347C231.484 31.9394 231.591 31.9441 231.676 31.9489V33.2344C231.619 33.2249 231.52 33.2107 231.377 33.1918C231.235 33.1728 231.082 33.1634 230.916 33.1634C230.348 33.1634 229.841 33.2841 229.396 33.5256C228.956 33.7623 228.608 34.0914 228.352 34.5128C228.096 34.9342 227.968 35.4148 227.968 35.9545V43H226.704ZM237.429 43.2273C236.534 43.2273 235.75 42.9905 235.078 42.517C234.405 42.0436 233.88 41.383 233.501 40.5355C233.127 39.688 232.94 38.7008 232.94 37.5739C232.94 36.4517 233.127 35.4692 233.501 34.6264C233.88 33.7789 234.408 33.1207 235.085 32.652C235.762 32.1785 236.55 31.9418 237.45 31.9418C238.113 31.9418 238.664 32.0601 239.105 32.2969C239.545 32.5289 239.898 32.8177 240.163 33.1634C240.428 33.509 240.634 33.8452 240.781 34.1719H240.895V28.4545H242.166V43H240.93V40.9759H240.781C240.634 41.3073 240.426 41.6482 240.156 41.9986C239.886 42.3442 239.529 42.6354 239.083 42.8722C238.643 43.1089 238.092 43.2273 237.429 43.2273ZM237.578 42.0696C238.283 42.0696 238.885 41.8778 239.382 41.4943C239.879 41.1061 240.258 40.5734 240.518 39.8963C240.783 39.2145 240.916 38.4332 240.916 37.5526C240.916 36.6813 240.786 35.9119 240.525 35.2443C240.265 34.572 239.886 34.0464 239.389 33.6676C238.892 33.2841 238.288 33.0923 237.578 33.0923C236.849 33.0923 236.233 33.2912 235.731 33.6889C235.234 34.0819 234.855 34.6146 234.595 35.2869C234.339 35.9593 234.211 36.7145 234.211 37.5526C234.211 38.4001 234.342 39.1648 234.602 39.8466C234.862 40.5284 235.241 41.0705 235.738 41.473C236.24 41.8707 236.853 42.0696 237.578 42.0696ZM250.177 43.2273C249.159 43.2273 248.279 42.9905 247.535 42.517C246.792 42.0388 246.217 41.3783 245.809 40.5355C245.407 39.688 245.206 38.7126 245.206 37.6094C245.206 36.5109 245.407 35.5355 245.809 34.6832C246.217 33.8262 246.778 33.1562 247.493 32.6733C248.212 32.1856 249.043 31.9418 249.985 31.9418C250.577 31.9418 251.148 32.0507 251.697 32.2685C252.246 32.4815 252.739 32.8106 253.174 33.2557C253.615 33.696 253.963 34.2524 254.218 34.9247C254.474 35.5923 254.602 36.383 254.602 37.2969V37.9219H246.079V36.8068H253.309C253.309 36.1061 253.167 35.4763 252.883 34.9176C252.604 34.3542 252.213 33.9091 251.711 33.5824C251.214 33.2557 250.639 33.0923 249.985 33.0923C249.294 33.0923 248.686 33.277 248.16 33.6463C247.635 34.0156 247.223 34.5033 246.924 35.1094C246.631 35.7154 246.482 36.3783 246.477 37.098V37.7656C246.477 38.6321 246.626 39.3897 246.924 40.0384C247.227 40.6823 247.656 41.1818 248.21 41.5369C248.764 41.892 249.42 42.0696 250.177 42.0696C250.693 42.0696 251.145 41.9891 251.534 41.8281C251.927 41.6671 252.256 41.4517 252.521 41.1818C252.791 40.9072 252.994 40.6065 253.132 40.2798L254.332 40.6705C254.166 41.1297 253.894 41.5535 253.515 41.9418C253.141 42.33 252.672 42.6425 252.109 42.8793C251.55 43.1113 250.906 43.2273 250.177 43.2273ZM257.388 43V32.0909H258.616V33.767H258.709C258.927 33.2178 259.305 32.7751 259.845 32.4389C260.39 32.098 261.005 31.9276 261.692 31.9276C261.796 31.9276 261.912 31.9299 262.04 31.9347C262.168 31.9394 262.274 31.9441 262.359 31.9489V33.2344C262.303 33.2249 262.203 33.2107 262.061 33.1918C261.919 33.1728 261.765 33.1634 261.599 33.1634C261.031 33.1634 260.525 33.2841 260.08 33.5256C259.639 33.7623 259.291 34.0914 259.036 34.5128C258.78 34.9342 258.652 35.4148 258.652 35.9545V43H257.388ZM271.846 34.4844L270.689 34.8111C270.575 34.4844 270.414 34.1884 270.206 33.9233C269.997 33.6581 269.725 33.4474 269.389 33.2912C269.057 33.1349 268.645 33.0568 268.153 33.0568C267.414 33.0568 266.808 33.232 266.335 33.5824C265.861 33.9328 265.625 34.3849 265.625 34.9389C265.625 35.4077 265.786 35.7888 266.108 36.0824C266.434 36.3712 266.936 36.6009 267.613 36.7713L269.261 37.1761C270.175 37.3987 270.859 37.7514 271.314 38.2344C271.773 38.7173 272.002 39.3234 272.002 40.0526C272.002 40.6681 271.832 41.215 271.491 41.6932C271.15 42.1714 270.674 42.5478 270.064 42.8224C269.458 43.0923 268.754 43.2273 267.954 43.2273C266.889 43.2273 266.011 42.9882 265.319 42.5099C264.628 42.027 264.185 41.331 263.991 40.4219L265.206 40.1236C265.362 40.7723 265.667 41.2623 266.122 41.5938C266.581 41.9252 267.185 42.0909 267.933 42.0909C268.771 42.0909 269.441 41.9039 269.943 41.5298C270.445 41.151 270.696 40.6776 270.696 40.1094C270.696 39.669 270.549 39.2997 270.255 39.0014C269.962 38.6984 269.517 38.4759 268.92 38.3338L267.137 37.9077C266.19 37.6804 265.49 37.3205 265.035 36.8281C264.581 36.3357 264.353 35.7249 264.353 34.9957C264.353 34.3944 264.517 33.8665 264.843 33.4119C265.17 32.9527 265.62 32.5928 266.193 32.3324C266.766 32.072 267.419 31.9418 268.153 31.9418C269.152 31.9418 269.95 32.169 270.547 32.6236C271.148 33.0734 271.581 33.6937 271.846 34.4844ZM280.41 43V32.0909H281.681V43H280.41ZM281.056 30.2159C280.796 30.2159 280.573 30.1283 280.388 29.9531C280.204 29.7732 280.112 29.5578 280.112 29.3068C280.112 29.0559 280.204 28.8428 280.388 28.6676C280.573 28.4877 280.796 28.3977 281.056 28.3977C281.317 28.3977 281.539 28.4877 281.724 28.6676C281.908 28.8428 282.001 29.0559 282.001 29.3068C282.001 29.5578 281.908 29.7732 281.724 29.9531C281.539 30.1283 281.317 30.2159 281.056 30.2159ZM292.354 34.4844L291.196 34.8111C291.083 34.4844 290.922 34.1884 290.713 33.9233C290.505 33.6581 290.233 33.4474 289.897 33.2912C289.565 33.1349 289.153 33.0568 288.661 33.0568C287.922 33.0568 287.316 33.232 286.843 33.5824C286.369 33.9328 286.132 34.3849 286.132 34.9389C286.132 35.4077 286.293 35.7888 286.615 36.0824C286.942 36.3712 287.444 36.6009 288.121 36.7713L289.769 37.1761C290.683 37.3987 291.367 37.7514 291.821 38.2344C292.281 38.7173 292.51 39.3234 292.51 40.0526C292.51 40.6681 292.34 41.215 291.999 41.6932C291.658 42.1714 291.182 42.5478 290.571 42.8224C289.965 43.0923 289.262 43.2273 288.462 43.2273C287.397 43.2273 286.518 42.9882 285.827 42.5099C285.136 42.027 284.693 41.331 284.499 40.4219L285.713 40.1236C285.87 40.7723 286.175 41.2623 286.63 41.5938C287.089 41.9252 287.693 42.0909 288.441 42.0909C289.279 42.0909 289.949 41.9039 290.451 41.5298C290.953 41.151 291.203 40.6776 291.203 40.1094C291.203 39.669 291.057 39.2997 290.763 39.0014C290.47 38.6984 290.025 38.4759 289.428 38.3338L287.645 37.9077C286.698 37.6804 285.998 37.3205 285.543 36.8281C285.088 36.3357 284.861 35.7249 284.861 34.9957C284.861 34.3944 285.025 33.8665 285.351 33.4119C285.678 32.9527 286.128 32.5928 286.701 32.3324C287.274 32.072 287.927 31.9418 288.661 31.9418C289.66 31.9418 290.458 32.169 291.054 32.6236C291.656 33.0734 292.089 33.6937 292.354 34.4844ZM296.543 36.1818V43H295.278V32.0909H296.507V33.8026H296.621C296.876 33.2438 297.274 32.7964 297.814 32.4602C298.358 32.1193 299.031 31.9489 299.831 31.9489C300.565 31.9489 301.209 32.1027 301.763 32.4105C302.321 32.7135 302.755 33.161 303.062 33.7528C303.375 34.3447 303.531 35.0715 303.531 35.9332V43H302.267V36.0114C302.267 35.1165 302.016 34.4086 301.514 33.8878C301.017 33.367 300.349 33.1065 299.511 33.1065C298.938 33.1065 298.429 33.2296 297.984 33.4759C297.539 33.7221 297.187 34.0772 296.926 34.5412C296.67 35.0005 296.543 35.5473 296.543 36.1818ZM308.011 28.4545V29.733C308.011 30.1212 307.94 30.5355 307.798 30.9759C307.661 31.4115 307.457 31.8352 307.187 32.2472C306.922 32.6544 306.6 33.0095 306.221 33.3125L305.532 32.7088C305.887 32.2921 306.188 31.8305 306.434 31.3239C306.681 30.8125 306.804 30.2893 306.804 29.7543V28.4545H308.011ZM314.946 32.0909V33.1918H309.74V32.0909H314.946ZM311.367 29.4773H312.638V40.152C312.638 40.6065 312.716 40.964 312.873 41.2244C313.029 41.4801 313.232 41.6624 313.483 41.7713C313.734 41.8755 314.002 41.9276 314.286 41.9276C314.452 41.9276 314.594 41.9181 314.712 41.8991C314.83 41.8755 314.935 41.8518 315.025 41.8281L315.294 42.9716C315.171 43.0189 315.02 43.0616 314.84 43.0994C314.66 43.142 314.437 43.1634 314.172 43.1634C313.708 43.1634 313.261 43.0616 312.83 42.858C312.404 42.6544 312.053 42.3513 311.779 41.9489C311.504 41.5464 311.367 41.0469 311.367 40.4503V29.4773ZM39.831 71.3182C39.0876 71.3182 38.4366 71.2211 37.8778 71.027C37.3191 70.8376 36.848 70.5772 36.4645 70.2457C36.081 69.9143 35.7827 69.5426 35.5696 69.1307L36.6065 68.4489C36.7628 68.7235 36.9711 68.9934 37.2315 69.2585C37.4967 69.5237 37.84 69.7438 38.2614 69.919C38.6875 70.0942 39.2107 70.1818 39.831 70.1818C40.7969 70.1818 41.5758 69.9403 42.1676 69.4574C42.7642 68.9744 43.0625 68.224 43.0625 67.206V64.7486H42.9489C42.8021 65.08 42.5914 65.4115 42.3168 65.7429C42.0421 66.0696 41.6823 66.3419 41.2372 66.5597C40.7969 66.7775 40.25 66.8864 39.5966 66.8864C38.7254 66.8864 37.9512 66.6709 37.2741 66.2401C36.6018 65.8092 36.0715 65.1937 35.6832 64.3935C35.2997 63.5885 35.108 62.6297 35.108 61.517C35.108 60.4138 35.295 59.4432 35.669 58.6051C36.0478 57.767 36.5758 57.1136 37.2528 56.6449C37.9299 56.1761 38.7183 55.9418 39.6179 55.9418C40.2855 55.9418 40.8395 56.0601 41.2798 56.2969C41.7202 56.5289 42.0729 56.8177 42.3381 57.1634C42.608 57.509 42.8187 57.8452 42.9702 58.1719H43.098V56.0909H44.3338V67.2841C44.3338 68.2074 44.1373 68.9673 43.7443 69.5639C43.3513 70.1605 42.8163 70.6009 42.1392 70.8849C41.4621 71.1738 40.6927 71.3182 39.831 71.3182ZM39.7457 65.7287C40.4465 65.7287 41.0455 65.5606 41.5426 65.2244C42.0398 64.8835 42.4209 64.3958 42.6861 63.7614C42.9512 63.1269 43.0838 62.3717 43.0838 61.4957C43.0838 60.6435 42.9536 59.8883 42.6932 59.2301C42.4328 58.5672 42.054 58.0464 41.5568 57.6676C41.0644 57.2841 40.4607 57.0923 39.7457 57.0923C39.0166 57.0923 38.401 57.2888 37.8991 57.6818C37.3973 58.0748 37.0185 58.6051 36.7628 59.2727C36.5071 59.9356 36.3793 60.6766 36.3793 61.4957C36.3793 62.3291 36.5095 63.0653 36.7699 63.7045C37.0303 64.339 37.4115 64.8362 37.9134 65.196C38.4152 65.5511 39.026 65.7287 39.7457 65.7287ZM51.9208 67.2273C50.9786 67.2273 50.1452 66.9882 49.4208 66.5099C48.7011 66.0317 48.1377 65.3712 47.7305 64.5284C47.3233 63.6809 47.1197 62.7031 47.1197 61.5952C47.1197 60.4777 47.3233 59.4953 47.7305 58.6477C48.1377 57.7955 48.7011 57.1326 49.4208 56.6591C50.1452 56.1809 50.9786 55.9418 51.9208 55.9418C52.863 55.9418 53.694 56.1809 54.4137 56.6591C55.1334 57.1373 55.6969 57.8002 56.104 58.6477C56.516 59.4953 56.7219 60.4777 56.7219 61.5952C56.7219 62.7031 56.5183 63.6809 56.1112 64.5284C55.704 65.3712 55.1381 66.0317 54.4137 66.5099C53.694 66.9882 52.863 67.2273 51.9208 67.2273ZM51.9208 66.0696C52.6784 66.0696 53.32 65.866 53.8455 65.4588C54.3711 65.0516 54.7688 64.5095 55.0387 63.8324C55.3133 63.1553 55.4506 62.4096 55.4506 61.5952C55.4506 60.7808 55.3133 60.0327 55.0387 59.3509C54.7688 58.669 54.3711 58.1222 53.8455 57.7102C53.32 57.2983 52.6784 57.0923 51.9208 57.0923C51.168 57.0923 50.5264 57.2983 49.9961 57.7102C49.4705 58.1222 49.0704 58.669 48.7958 59.3509C48.5259 60.0327 48.391 60.7808 48.391 61.5952C48.391 62.4096 48.5259 63.1553 48.7958 63.8324C49.0704 64.5095 49.4705 65.0516 49.9961 65.4588C50.5217 65.866 51.1632 66.0696 51.9208 66.0696ZM59.5114 67V56.0909H60.7827V67H59.5114ZM60.1577 54.2159C59.8973 54.2159 59.6747 54.1283 59.4901 53.9531C59.3054 53.7732 59.2131 53.5578 59.2131 53.3068C59.2131 53.0559 59.3054 52.8428 59.4901 52.6676C59.6747 52.4877 59.8973 52.3977 60.1577 52.3977C60.4181 52.3977 60.6406 52.4877 60.8253 52.6676C61.0099 52.8428 61.1023 53.0559 61.1023 53.3068C61.1023 53.5578 61.0099 53.7732 60.8253 53.9531C60.6406 54.1283 60.4181 54.2159 60.1577 54.2159ZM65.3903 60.1818V67H64.1261V56.0909H65.3548V57.8026H65.4684C65.7241 57.2438 66.1218 56.7964 66.6616 56.4602C67.2061 56.1193 67.8784 55.9489 68.6786 55.9489C69.4125 55.9489 70.0565 56.1027 70.6104 56.4105C71.1692 56.7135 71.6024 57.161 71.9102 57.7528C72.2227 58.3447 72.3789 59.0715 72.3789 59.9332V67H71.1147V60.0114C71.1147 59.1165 70.8638 58.4086 70.3619 57.8878C69.8647 57.367 69.1971 57.1065 68.359 57.1065C67.7861 57.1065 67.2771 57.2296 66.832 57.4759C66.387 57.7221 66.0342 58.0772 65.7738 58.5412C65.5181 59.0005 65.3903 59.5473 65.3903 60.1818ZM79.87 71.3182C79.1267 71.3182 78.4756 71.2211 77.9169 71.027C77.3582 70.8376 76.8871 70.5772 76.5036 70.2457C76.12 69.9143 75.8217 69.5426 75.6087 69.1307L76.6456 68.4489C76.8018 68.7235 77.0102 68.9934 77.2706 69.2585C77.5357 69.5237 77.879 69.7438 78.3004 69.919C78.7266 70.0942 79.2498 70.1818 79.87 70.1818C80.8359 70.1818 81.6148 69.9403 82.2067 69.4574C82.8033 68.9744 83.1016 68.224 83.1016 67.206V64.7486H82.9879C82.8411 65.08 82.6304 65.4115 82.3558 65.7429C82.0812 66.0696 81.7214 66.3419 81.2763 66.5597C80.8359 66.7775 80.2891 66.8864 79.6357 66.8864C78.7644 66.8864 77.9903 66.6709 77.3132 66.2401C76.6409 65.8092 76.1106 65.1937 75.7223 64.3935C75.3388 63.5885 75.147 62.6297 75.147 61.517C75.147 60.4138 75.334 59.4432 75.7081 58.6051C76.0869 57.767 76.6148 57.1136 77.2919 56.6449C77.969 56.1761 78.7573 55.9418 79.657 55.9418C80.3246 55.9418 80.8786 56.0601 81.3189 56.2969C81.7592 56.5289 82.112 56.8177 82.3771 57.1634C82.647 57.509 82.8577 57.8452 83.0092 58.1719H83.1371V56.0909H84.3729V67.2841C84.3729 68.2074 84.1764 68.9673 83.7834 69.5639C83.3904 70.1605 82.8554 70.6009 82.1783 70.8849C81.5012 71.1738 80.7318 71.3182 79.87 71.3182ZM79.7848 65.7287C80.4856 65.7287 81.0845 65.5606 81.5817 65.2244C82.0788 64.8835 82.46 64.3958 82.7251 63.7614C82.9903 63.1269 83.1229 62.3717 83.1229 61.4957C83.1229 60.6435 82.9927 59.8883 82.7322 59.2301C82.4718 58.5672 82.093 58.0464 81.5959 57.6676C81.1035 57.2841 80.4998 57.0923 79.7848 57.0923C79.0556 57.0923 78.4401 57.2888 77.9382 57.6818C77.4363 58.0748 77.0575 58.6051 76.8018 59.2727C76.5462 59.9356 76.4183 60.6766 76.4183 61.4957C76.4183 62.3291 76.5485 63.0653 76.8089 63.7045C77.0694 64.339 77.4505 64.8362 77.9524 65.196C78.4543 65.5511 79.0651 65.7287 79.7848 65.7287ZM97.6417 56.0909V57.1918H92.4357V56.0909H97.6417ZM94.0621 53.4773H95.3335V64.152C95.3335 64.6065 95.4116 64.964 95.5678 65.2244C95.7241 65.4801 95.9277 65.6624 96.1786 65.7713C96.4296 65.8755 96.6971 65.9276 96.9812 65.9276C97.1469 65.9276 97.2889 65.9181 97.4073 65.8991C97.5257 65.8755 97.6299 65.8518 97.7198 65.8281L97.9897 66.9716C97.8666 67.0189 97.7151 67.0616 97.5352 67.0994C97.3552 67.142 97.1327 67.1634 96.8675 67.1634C96.4035 67.1634 95.9561 67.0616 95.5252 66.858C95.0991 66.6544 94.7487 66.3513 94.4741 65.9489C94.1995 65.5464 94.0621 65.0469 94.0621 64.4503V53.4773ZM104.636 67.2273C103.693 67.2273 102.86 66.9882 102.136 66.5099C101.416 66.0317 100.853 65.3712 100.445 64.5284C100.038 63.6809 99.8345 62.7031 99.8345 61.5952C99.8345 60.4777 100.038 59.4953 100.445 58.6477C100.853 57.7955 101.416 57.1326 102.136 56.6591C102.86 56.1809 103.693 55.9418 104.636 55.9418C105.578 55.9418 106.409 56.1809 107.129 56.6591C107.848 57.1373 108.412 57.8002 108.819 58.6477C109.231 59.4953 109.437 60.4777 109.437 61.5952C109.437 62.7031 109.233 63.6809 108.826 64.5284C108.419 65.3712 107.853 66.0317 107.129 66.5099C106.409 66.9882 105.578 67.2273 104.636 67.2273ZM104.636 66.0696C105.393 66.0696 106.035 65.866 106.56 65.4588C107.086 65.0516 107.484 64.5095 107.754 63.8324C108.028 63.1553 108.165 62.4096 108.165 61.5952C108.165 60.7808 108.028 60.0327 107.754 59.3509C107.484 58.669 107.086 58.1222 106.56 57.7102C106.035 57.2983 105.393 57.0923 104.636 57.0923C103.883 57.0923 103.241 57.2983 102.711 57.7102C102.185 58.1222 101.785 58.669 101.511 59.3509C101.241 60.0327 101.106 60.7808 101.106 61.5952C101.106 62.4096 101.241 63.1553 101.511 63.8324C101.785 64.5095 102.185 65.0516 102.711 65.4588C103.237 65.866 103.878 66.0696 104.636 66.0696ZM117.837 67V56.0909H119.066V57.767H119.179C119.397 57.2036 119.759 56.7609 120.266 56.4389C120.777 56.1122 121.391 55.9489 122.105 55.9489C122.858 55.9489 123.476 56.1264 123.959 56.4815C124.447 56.8319 124.811 57.3149 125.053 57.9304H125.145C125.391 57.3243 125.792 56.8437 126.346 56.4886C126.904 56.1288 127.581 55.9489 128.377 55.9489C129.39 55.9489 130.19 56.2685 130.777 56.9077C131.364 57.5421 131.658 58.4702 131.658 59.6918V67H130.394V59.6918C130.394 58.83 130.174 58.1837 129.733 57.7528C129.293 57.322 128.713 57.1065 127.993 57.1065C127.16 57.1065 126.518 57.3622 126.069 57.8736C125.619 58.3849 125.394 59.0336 125.394 59.8196V67H124.101V59.5781C124.101 58.8395 123.895 58.2429 123.483 57.7884C123.071 57.3338 122.491 57.1065 121.743 57.1065C121.241 57.1065 120.789 57.2296 120.387 57.4759C119.989 57.7221 119.674 58.0653 119.442 58.5057C119.215 58.9413 119.101 59.4432 119.101 60.0114V67H117.837ZM139.415 67.2273C138.397 67.2273 137.517 66.9905 136.773 66.517C136.03 66.0388 135.455 65.3783 135.048 64.5355C134.645 63.688 134.444 62.7126 134.444 61.6094C134.444 60.5109 134.645 59.5355 135.048 58.6832C135.455 57.8262 136.016 57.1562 136.731 56.6733C137.451 56.1856 138.281 55.9418 139.224 55.9418C139.816 55.9418 140.386 56.0507 140.935 56.2685C141.485 56.4815 141.977 56.8106 142.413 57.2557C142.853 57.696 143.201 58.2524 143.457 58.9247C143.712 59.5923 143.84 60.383 143.84 61.2969V61.9219H135.317V60.8068H142.548C142.548 60.1061 142.406 59.4763 142.121 58.9176C141.842 58.3542 141.451 57.9091 140.95 57.5824C140.452 57.2557 139.877 57.0923 139.224 57.0923C138.532 57.0923 137.924 57.277 137.398 57.6463C136.873 58.0156 136.461 58.5033 136.163 59.1094C135.869 59.7154 135.72 60.3783 135.715 61.098V61.7656C135.715 62.6321 135.864 63.3897 136.163 64.0384C136.466 64.6823 136.894 65.1818 137.448 65.5369C138.002 65.892 138.658 66.0696 139.415 66.0696C139.932 66.0696 140.384 65.9891 140.772 65.8281C141.165 65.6671 141.494 65.4517 141.759 65.1818C142.029 64.9072 142.233 64.6065 142.37 64.2798L143.57 64.6705C143.405 65.1297 143.132 65.5535 142.754 65.9418C142.379 66.33 141.911 66.6425 141.347 66.8793C140.789 67.1113 140.145 67.2273 139.415 67.2273ZM151.037 67.2273C150.019 67.2273 149.138 66.9905 148.395 66.517C147.651 66.0388 147.076 65.3783 146.669 64.5355C146.266 63.688 146.065 62.7126 146.065 61.6094C146.065 60.5109 146.266 59.5355 146.669 58.6832C147.076 57.8262 147.637 57.1562 148.352 56.6733C149.072 56.1856 149.903 55.9418 150.845 55.9418C151.437 55.9418 152.007 56.0507 152.556 56.2685C153.106 56.4815 153.598 56.8106 154.034 57.2557C154.474 57.696 154.822 58.2524 155.078 58.9247C155.333 59.5923 155.461 60.383 155.461 61.2969V61.9219H146.939V60.8068H154.169C154.169 60.1061 154.027 59.4763 153.743 58.9176C153.463 58.3542 153.073 57.9091 152.571 57.5824C152.074 57.2557 151.498 57.0923 150.845 57.0923C150.154 57.0923 149.545 57.277 149.02 57.6463C148.494 58.0156 148.082 58.5033 147.784 59.1094C147.49 59.7154 147.341 60.3783 147.336 61.098V61.7656C147.336 62.6321 147.485 63.3897 147.784 64.0384C148.087 64.6823 148.515 65.1818 149.069 65.5369C149.623 65.892 150.279 66.0696 151.037 66.0696C151.553 66.0696 152.005 65.9891 152.393 65.8281C152.786 65.6671 153.115 65.4517 153.38 65.1818C153.65 64.9072 153.854 64.6065 153.991 64.2798L155.191 64.6705C155.026 65.1297 154.753 65.5535 154.375 65.9418C154.001 66.33 153.532 66.6425 152.968 66.8793C152.41 67.1113 151.766 67.2273 151.037 67.2273ZM162.544 56.0909V57.1918H157.338V56.0909H162.544ZM158.964 53.4773H160.236V64.152C160.236 64.6065 160.314 64.964 160.47 65.2244C160.626 65.4801 160.83 65.6624 161.081 65.7713C161.332 65.8755 161.599 65.9276 161.884 65.9276C162.049 65.9276 162.191 65.9181 162.31 65.8991C162.428 65.8755 162.532 65.8518 162.622 65.8281L162.892 66.9716C162.769 67.0189 162.617 67.0616 162.438 67.0994C162.258 67.142 162.035 67.1634 161.77 67.1634C161.306 67.1634 160.858 67.0616 160.428 66.858C160.001 66.6544 159.651 66.3513 159.376 65.9489C159.102 65.5464 158.964 65.0469 158.964 64.4503V53.4773ZM175.202 71.3182C174.459 71.3182 173.808 71.2211 173.249 71.027C172.69 70.8376 172.219 70.5772 171.836 70.2457C171.452 69.9143 171.154 69.5426 170.941 69.1307L171.978 68.4489C172.134 68.7235 172.342 68.9934 172.603 69.2585C172.868 69.5237 173.211 69.7438 173.632 69.919C174.059 70.0942 174.582 70.1818 175.202 70.1818C176.168 70.1818 176.947 69.9403 177.539 69.4574C178.135 68.9744 178.434 68.224 178.434 67.206V64.7486H178.32C178.173 65.08 177.962 65.4115 177.688 65.7429C177.413 66.0696 177.053 66.3419 176.608 66.5597C176.168 66.7775 175.621 66.8864 174.968 66.8864C174.096 66.8864 173.322 66.6709 172.645 66.2401C171.973 65.8092 171.443 65.1937 171.054 64.3935C170.671 63.5885 170.479 62.6297 170.479 61.517C170.479 60.4138 170.666 59.4432 171.04 58.6051C171.419 57.767 171.947 57.1136 172.624 56.6449C173.301 56.1761 174.089 55.9418 174.989 55.9418C175.657 55.9418 176.211 56.0601 176.651 56.2969C177.091 56.5289 177.444 56.8177 177.709 57.1634C177.979 57.509 178.19 57.8452 178.341 58.1719H178.469V56.0909H179.705V67.2841C179.705 68.2074 179.508 68.9673 179.115 69.5639C178.722 70.1605 178.187 70.6009 177.51 70.8849C176.833 71.1738 176.064 71.3182 175.202 71.3182ZM175.117 65.7287C175.818 65.7287 176.417 65.5606 176.914 65.2244C177.411 64.8835 177.792 64.3958 178.057 63.7614C178.322 63.1269 178.455 62.3717 178.455 61.4957C178.455 60.6435 178.325 59.8883 178.064 59.2301C177.804 58.5672 177.425 58.0464 176.928 57.6676C176.435 57.2841 175.832 57.0923 175.117 57.0923C174.388 57.0923 173.772 57.2888 173.27 57.6818C172.768 58.0748 172.39 58.6051 172.134 59.2727C171.878 59.9356 171.75 60.6766 171.75 61.4957C171.75 62.3291 171.881 63.0653 172.141 63.7045C172.401 64.339 172.783 64.8362 173.284 65.196C173.786 65.5511 174.397 65.7287 175.117 65.7287ZM184.316 52.4545V67H183.052V52.4545H184.316ZM191.901 67.2273C190.959 67.2273 190.126 66.9882 189.401 66.5099C188.682 66.0317 188.118 65.3712 187.711 64.5284C187.304 63.6809 187.1 62.7031 187.1 61.5952C187.1 60.4777 187.304 59.4953 187.711 58.6477C188.118 57.7955 188.682 57.1326 189.401 56.6591C190.126 56.1809 190.959 55.9418 191.901 55.9418C192.844 55.9418 193.674 56.1809 194.394 56.6591C195.114 57.1373 195.677 57.8002 196.085 58.6477C196.496 59.4953 196.702 60.4777 196.702 61.5952C196.702 62.7031 196.499 63.6809 196.092 64.5284C195.684 65.3712 195.119 66.0317 194.394 66.5099C193.674 66.9882 192.844 67.2273 191.901 67.2273ZM191.901 66.0696C192.659 66.0696 193.3 65.866 193.826 65.4588C194.352 65.0516 194.749 64.5095 195.019 63.8324C195.294 63.1553 195.431 62.4096 195.431 61.5952C195.431 60.7808 195.294 60.0327 195.019 59.3509C194.749 58.669 194.352 58.1222 193.826 57.7102C193.3 57.2983 192.659 57.0923 191.901 57.0923C191.148 57.0923 190.507 57.2983 189.977 57.7102C189.451 58.1222 189.051 58.669 188.776 59.3509C188.506 60.0327 188.371 60.7808 188.371 61.5952C188.371 62.4096 188.506 63.1553 188.776 63.8324C189.051 64.5095 189.451 65.0516 189.977 65.4588C190.502 65.866 191.144 66.0696 191.901 66.0696ZM199.74 67V52.4545H201.012V58.1719H201.125C201.267 57.8452 201.471 57.509 201.736 57.1634C202.006 56.8177 202.359 56.5289 202.794 56.2969C203.235 56.0601 203.789 55.9418 204.456 55.9418C205.351 55.9418 206.137 56.1785 206.814 56.652C207.491 57.1207 208.019 57.7789 208.398 58.6264C208.777 59.4692 208.966 60.4517 208.966 61.5739C208.966 62.7008 208.777 63.688 208.398 64.5355C208.024 65.383 207.498 66.0436 206.821 66.517C206.149 66.9905 205.368 67.2273 204.478 67.2273C203.815 67.2273 203.261 67.1089 202.816 66.8722C202.375 66.6354 202.02 66.3442 201.75 65.9986C201.48 65.6482 201.272 65.3073 201.125 64.9759H200.969V67H199.74ZM200.99 61.5526C200.99 62.4332 201.121 63.2145 201.381 63.8963C201.646 64.5734 202.025 65.1061 202.517 65.4943C203.015 65.8778 203.616 66.0696 204.321 66.0696C205.046 66.0696 205.659 65.8707 206.161 65.473C206.663 65.0705 207.044 64.5284 207.304 63.8466C207.565 63.1648 207.695 62.4001 207.695 61.5526C207.695 60.7145 207.565 59.9593 207.304 59.2869C207.049 58.6146 206.67 58.0819 206.168 57.6889C205.666 57.2912 205.051 57.0923 204.321 57.0923C203.611 57.0923 203.007 57.2841 202.51 57.6676C202.018 58.0464 201.641 58.572 201.381 59.2443C201.121 59.9119 200.99 60.6813 200.99 61.5526ZM214.79 67.2486C214.132 67.2486 213.531 67.1207 212.986 66.8651C212.442 66.6046 212.008 66.2306 211.686 65.7429C211.364 65.2505 211.203 64.6539 211.203 63.9531C211.203 63.4134 211.305 62.9588 211.509 62.5895C211.712 62.2202 212.001 61.9171 212.375 61.6804C212.749 61.4437 213.192 61.2566 213.703 61.1193C214.215 60.982 214.778 60.8755 215.394 60.7997C216.005 60.724 216.521 60.6577 216.942 60.6009C217.368 60.544 217.693 60.4541 217.915 60.331C218.138 60.2079 218.249 60.009 218.249 59.7344V59.4787C218.249 58.7353 218.026 58.1506 217.581 57.7244C217.141 57.2936 216.507 57.0781 215.678 57.0781C214.892 57.0781 214.25 57.2509 213.753 57.5966C213.261 57.9422 212.915 58.3494 212.716 58.8182L211.516 58.3849C211.762 57.7884 212.103 57.3125 212.539 56.9574C212.974 56.5975 213.462 56.3395 214.002 56.1832C214.542 56.0223 215.088 55.9418 215.642 55.9418C216.059 55.9418 216.492 55.9962 216.942 56.1051C217.397 56.214 217.818 56.4034 218.206 56.6733C218.595 56.9384 218.909 57.3101 219.151 57.7884C219.392 58.2618 219.513 58.8632 219.513 59.5923V67H218.249V65.2741H218.171C218.019 65.5961 217.794 65.9086 217.496 66.2116C217.198 66.5147 216.824 66.7633 216.374 66.9574C215.924 67.1515 215.396 67.2486 214.79 67.2486ZM214.961 66.0909C215.633 66.0909 216.215 65.9418 216.708 65.6435C217.2 65.3452 217.579 64.9498 217.844 64.4574C218.114 63.9602 218.249 63.4134 218.249 62.8168V61.2401C218.154 61.33 217.996 61.4105 217.773 61.4815C217.555 61.5526 217.302 61.6165 217.013 61.6733C216.729 61.7254 216.445 61.7704 216.161 61.8082C215.877 61.8461 215.621 61.8793 215.394 61.9077C214.778 61.9834 214.253 62.1018 213.817 62.2628C213.382 62.4238 213.048 62.6463 212.816 62.9304C212.584 63.2098 212.468 63.5696 212.468 64.0099C212.468 64.6728 212.704 65.1866 213.178 65.5511C213.651 65.911 214.246 66.0909 214.961 66.0909ZM224.14 52.4545V67H222.876V52.4545H224.14ZM237.038 67.2273C236.143 67.2273 235.359 66.9905 234.687 66.517C234.015 66.0436 233.489 65.383 233.11 64.5355C232.736 63.688 232.549 62.7008 232.549 61.5739C232.549 60.4517 232.736 59.4692 233.11 58.6264C233.489 57.7789 234.017 57.1207 234.694 56.652C235.371 56.1785 236.16 55.9418 237.059 55.9418C237.722 55.9418 238.274 56.0601 238.714 56.2969C239.154 56.5289 239.507 56.8177 239.772 57.1634C240.038 57.509 240.243 57.8452 240.39 58.1719H240.504V52.4545H241.775V67H240.539V64.9759H240.39C240.243 65.3073 240.035 65.6482 239.765 65.9986C239.495 66.3442 239.138 66.6354 238.693 66.8722C238.252 67.1089 237.701 67.2273 237.038 67.2273ZM237.187 66.0696C237.893 66.0696 238.494 65.8778 238.991 65.4943C239.488 65.1061 239.867 64.5734 240.127 63.8963C240.393 63.2145 240.525 62.4332 240.525 61.5526C240.525 60.6813 240.395 59.9119 240.135 59.2443C239.874 58.572 239.495 58.0464 238.998 57.6676C238.501 57.2841 237.897 57.0923 237.187 57.0923C236.458 57.0923 235.842 57.2912 235.341 57.6889C234.843 58.0819 234.465 58.6146 234.204 59.2869C233.949 59.9593 233.821 60.7145 233.821 61.5526C233.821 62.4001 233.951 63.1648 234.211 63.8466C234.472 64.5284 234.85 65.0705 235.348 65.473C235.85 65.8707 236.463 66.0696 237.187 66.0696ZM249.787 67.2273C248.769 67.2273 247.888 66.9905 247.145 66.517C246.401 66.0388 245.826 65.3783 245.419 64.5355C245.016 63.688 244.815 62.7126 244.815 61.6094C244.815 60.5109 245.016 59.5355 245.419 58.6832C245.826 57.8262 246.387 57.1562 247.102 56.6733C247.822 56.1856 248.653 55.9418 249.595 55.9418C250.187 55.9418 250.757 56.0507 251.306 56.2685C251.856 56.4815 252.348 56.8106 252.784 57.2557C253.224 57.696 253.572 58.2524 253.828 58.9247C254.083 59.5923 254.211 60.383 254.211 61.2969V61.9219H245.689V60.8068H252.919C252.919 60.1061 252.777 59.4763 252.493 58.9176C252.213 58.3542 251.823 57.9091 251.321 57.5824C250.824 57.2557 250.248 57.0923 249.595 57.0923C248.904 57.0923 248.295 57.277 247.77 57.6463C247.244 58.0156 246.832 58.5033 246.534 59.1094C246.24 59.7154 246.091 60.3783 246.086 61.098V61.7656C246.086 62.6321 246.235 63.3897 246.534 64.0384C246.837 64.6823 247.265 65.1818 247.819 65.5369C248.373 65.892 249.029 66.0696 249.787 66.0696C250.303 66.0696 250.755 65.9891 251.143 65.8281C251.536 65.6671 251.865 65.4517 252.13 65.1818C252.4 64.9072 252.604 64.6065 252.741 64.2798L253.941 64.6705C253.776 65.1297 253.503 65.5535 253.125 65.9418C252.751 66.33 252.282 66.6425 251.718 66.8793C251.16 67.1113 250.516 67.2273 249.787 67.2273ZM256.997 67V56.0909H258.226V57.767H258.339C258.557 57.2036 258.92 56.7609 259.426 56.4389C259.938 56.1122 260.551 55.9489 261.266 55.9489C262.018 55.9489 262.636 56.1264 263.119 56.4815C263.607 56.8319 263.972 57.3149 264.213 57.9304H264.305C264.552 57.3243 264.952 56.8437 265.506 56.4886C266.064 56.1288 266.741 55.9489 267.537 55.9489C268.55 55.9489 269.35 56.2685 269.938 56.9077C270.525 57.5421 270.818 58.4702 270.818 59.6918V67H269.554V59.6918C269.554 58.83 269.334 58.1837 268.893 57.7528C268.453 57.322 267.873 57.1065 267.153 57.1065C266.32 57.1065 265.679 57.3622 265.229 57.8736C264.779 58.3849 264.554 59.0336 264.554 59.8196V67H263.261V59.5781C263.261 58.8395 263.055 58.2429 262.643 57.7884C262.232 57.3338 261.652 57.1065 260.903 57.1065C260.402 57.1065 259.949 57.2296 259.547 57.4759C259.149 57.7221 258.834 58.0653 258.602 58.5057C258.375 58.9413 258.261 59.4432 258.261 60.0114V67H256.997ZM277.212 67.2486C276.554 67.2486 275.953 67.1207 275.408 66.8651C274.864 66.6046 274.43 66.2306 274.108 65.7429C273.786 65.2505 273.625 64.6539 273.625 63.9531C273.625 63.4134 273.727 62.9588 273.931 62.5895C274.134 62.2202 274.423 61.9171 274.797 61.6804C275.171 61.4437 275.614 61.2566 276.125 61.1193C276.637 60.982 277.2 60.8755 277.816 60.7997C278.426 60.724 278.943 60.6577 279.364 60.6009C279.79 60.544 280.114 60.4541 280.337 60.331C280.56 60.2079 280.671 60.009 280.671 59.7344V59.4787C280.671 58.7353 280.448 58.1506 280.003 57.7244C279.563 57.2936 278.928 57.0781 278.1 57.0781C277.314 57.0781 276.672 57.2509 276.175 57.5966C275.683 57.9422 275.337 58.3494 275.138 58.8182L273.938 58.3849C274.184 57.7884 274.525 57.3125 274.961 56.9574C275.396 56.5975 275.884 56.3395 276.424 56.1832C276.963 56.0223 277.51 55.9418 278.064 55.9418C278.481 55.9418 278.914 55.9962 279.364 56.1051C279.819 56.214 280.24 56.4034 280.628 56.6733C281.016 56.9384 281.331 57.3101 281.573 57.7884C281.814 58.2618 281.935 58.8632 281.935 59.5923V67H280.671V65.2741H280.593C280.441 65.5961 280.216 65.9086 279.918 66.2116C279.62 66.5147 279.246 66.7633 278.796 66.9574C278.346 67.1515 277.818 67.2486 277.212 67.2486ZM277.382 66.0909C278.055 66.0909 278.637 65.9418 279.13 65.6435C279.622 65.3452 280.001 64.9498 280.266 64.4574C280.536 63.9602 280.671 63.4134 280.671 62.8168V61.2401C280.576 61.33 280.417 61.4105 280.195 61.4815C279.977 61.5526 279.724 61.6165 279.435 61.6733C279.151 61.7254 278.867 61.7704 278.583 61.8082C278.299 61.8461 278.043 61.8793 277.816 61.9077C277.2 61.9834 276.675 62.1018 276.239 62.2628C275.803 62.4238 275.47 62.6463 275.238 62.9304C275.006 63.2098 274.89 63.5696 274.89 64.0099C274.89 64.6728 275.126 65.1866 275.6 65.5511C276.073 65.911 276.667 66.0909 277.382 66.0909ZM286.562 60.1818V67H285.298V56.0909H286.527V57.8026H286.64C286.896 57.2438 287.294 56.7964 287.833 56.4602C288.378 56.1193 289.05 55.9489 289.85 55.9489C290.584 55.9489 291.228 56.1027 291.782 56.4105C292.341 56.7135 292.774 57.161 293.082 57.7528C293.395 58.3447 293.551 59.0715 293.551 59.9332V67H292.287V60.0114C292.287 59.1165 292.036 58.4086 291.534 57.8878C291.037 57.367 290.369 57.1065 289.531 57.1065C288.958 57.1065 288.449 57.2296 288.004 57.4759C287.559 57.7221 287.206 58.0772 286.946 58.5412C286.69 59.0005 286.562 59.5473 286.562 60.1818ZM300.808 67.2273C299.913 67.2273 299.129 66.9905 298.457 66.517C297.784 66.0436 297.259 65.383 296.88 64.5355C296.506 63.688 296.319 62.7008 296.319 61.5739C296.319 60.4517 296.506 59.4692 296.88 58.6264C297.259 57.7789 297.787 57.1207 298.464 56.652C299.141 56.1785 299.929 55.9418 300.829 55.9418C301.492 55.9418 302.043 56.0601 302.484 56.2969C302.924 56.5289 303.277 56.8177 303.542 57.1634C303.807 57.509 304.013 57.8452 304.16 58.1719H304.273V52.4545H305.545V67H304.309V64.9759H304.16C304.013 65.3073 303.805 65.6482 303.535 65.9986C303.265 66.3442 302.907 66.6354 302.462 66.8722C302.022 67.1089 301.47 67.2273 300.808 67.2273ZM300.957 66.0696C301.662 66.0696 302.263 65.8778 302.761 65.4943C303.258 65.1061 303.637 64.5734 303.897 63.8963C304.162 63.2145 304.295 62.4332 304.295 61.5526C304.295 60.6813 304.165 59.9119 303.904 59.2443C303.644 58.572 303.265 58.0464 302.768 57.6676C302.271 57.2841 301.667 57.0923 300.957 57.0923C300.228 57.0923 299.612 57.2912 299.11 57.6889C298.613 58.0819 298.234 58.6146 297.974 59.2869C297.718 59.9593 297.59 60.7145 297.59 61.5526C297.59 62.4001 297.72 63.1648 297.981 63.8466C298.241 64.5284 298.62 65.0705 299.117 65.473C299.619 65.8707 300.232 66.0696 300.957 66.0696ZM310.154 67.1065C309.875 67.1065 309.633 67.0071 309.43 66.8082C309.231 66.6046 309.131 66.3632 309.131 66.0838C309.131 65.7997 309.231 65.5582 309.43 65.3594C309.633 65.1605 309.875 65.0611 310.154 65.0611C310.438 65.0611 310.68 65.1605 310.879 65.3594C311.077 65.5582 311.177 65.7997 311.177 66.0838C311.177 66.2685 311.129 66.4389 311.035 66.5952C310.945 66.7514 310.822 66.8769 310.665 66.9716C310.514 67.0616 310.344 67.1065 310.154 67.1065Z" fill="#FCEEFF"/>
<path d="M344.741 70.594C347.654 72.8229 349.734 75.1332 350.902 77.5062L350.453 77.7269C351.149 79.1411 351.5 80.5654 351.5 82C351.5 83.4346 351.149 84.8589 350.453 86.2731L350.902 86.4938C349.734 88.8668 347.654 91.1771 344.741 93.4061L344.437 93.009C342.277 94.6622 339.644 96.2767 336.568 97.8429L336.795 98.2884C334.238 99.59 331.385 100.855 328.254 102.079L328.072 101.613C325.352 102.676 322.419 103.709 319.288 104.708L319.44 105.184C316.605 106.088 313.608 106.965 310.46 107.811L310.33 107.328C307.437 108.106 304.414 108.858 301.27 109.584L301.383 110.071C298.444 110.749 295.399 111.403 292.255 112.032L292.157 111.542C289.185 112.137 286.123 112.709 282.977 113.258L283.063 113.75C280.059 114.275 276.977 114.777 273.824 115.257L273.749 114.763C270.738 115.221 267.661 115.659 264.521 116.076L264.587 116.571C261.552 116.974 258.458 117.356 255.311 117.718L255.254 117.221C252.205 117.572 249.106 117.902 245.959 118.213L246.008 118.71C242.945 119.013 239.837 119.295 236.687 119.558L236.646 119.06C233.583 119.316 230.48 119.553 227.34 119.77L227.374 120.269C224.302 120.482 221.193 120.676 218.051 120.851L218.024 120.352C214.946 120.523 211.836 120.676 208.697 120.811L208.718 121.31C205.633 121.442 202.519 121.555 199.378 121.65L199.363 121.15C196.275 121.244 193.162 121.319 190.025 121.375L190.034 121.875C186.94 121.93 183.824 121.967 180.687 121.986L180.684 121.486C179.128 121.495 177.566 121.5 176 121.5C174.434 121.5 172.872 121.495 171.316 121.486L171.313 121.986C168.176 121.967 165.06 121.93 161.966 121.875L161.975 121.375C158.838 121.319 155.725 121.244 152.637 121.15L152.622 121.65C149.481 121.555 146.367 121.442 143.282 121.31L143.303 120.811C140.164 120.676 137.054 120.523 133.976 120.352L133.949 120.851C130.807 120.676 127.698 120.482 124.626 120.269L124.66 119.77C121.52 119.553 118.417 119.316 115.354 119.06L115.313 119.558C112.163 119.295 109.055 119.013 105.992 118.71L106.041 118.213C102.894 117.902 99.7945 117.572 96.7463 117.221L96.6892 117.718C93.5416 117.356 90.4483 116.974 87.4129 116.571L87.4786 116.076C84.3394 115.659 81.2623 115.221 78.251 114.763L78.1758 115.257C75.0226 114.777 71.9415 114.275 68.9369 113.75L69.0228 113.258C65.8769 112.709 62.8154 112.137 59.8433 111.542L59.7452 112.032C56.601 111.403 53.5564 110.749 50.6175 110.071L50.7299 109.584C47.5856 108.858 44.5632 108.106 41.67 107.328L41.5402 107.811C38.3918 106.965 35.3953 106.088 32.5603 105.184L32.7123 104.708C29.5806 103.709 26.6484 102.676 23.9282 101.613L23.7462 102.079C20.6153 100.855 17.7617 99.59 15.2052 98.2884L15.4321 97.8428C12.356 96.2767 9.72302 94.6622 7.56279 93.009L7.25891 93.406C4.34639 91.1771 2.26559 88.8668 1.09828 86.4938L1.54694 86.2731C0.851325 84.8589 0.5 83.4346 0.5 82C0.5 80.5654 0.851325 79.1411 1.54694 77.7269L1.09828 77.5062C2.26559 75.1332 4.34639 72.8229 7.25892 70.5939L7.56279 70.991C9.72303 69.3378 12.3561 67.7232 15.4321 66.1571L15.2052 65.7116C17.7617 64.41 20.6153 63.1451 23.7462 61.9214L23.9282 62.3871C26.6484 61.324 29.5806 60.2914 32.7123 59.2924L32.5603 58.816C35.3954 57.9116 38.3918 57.0352 41.5402 56.1889L41.67 56.6717C44.5632 55.894 47.5857 55.1416 50.7299 54.4163L50.6175 53.9291C53.5564 53.2511 56.601 52.5968 59.7452 51.9676L59.8433 52.4579C62.8154 51.8632 65.8769 51.2909 69.0228 50.7421L68.9369 50.2496C71.9415 49.7254 75.0226 49.2229 78.1758 48.7428L78.2511 49.2371C81.2623 48.7787 84.3394 48.3409 87.4787 47.9245L87.4129 47.4288C90.4484 47.0262 93.5416 46.6436 96.6892 46.2819L96.7463 46.7786C99.7946 46.4283 102.894 46.0976 106.041 45.7871L105.992 45.2895C109.055 44.9874 112.163 44.7046 115.313 44.4416L115.354 44.9398C118.417 44.6841 121.52 44.4472 124.66 44.2298L124.626 43.731C127.698 43.5182 130.807 43.3239 133.949 43.1489L133.976 43.6481C137.054 43.4766 140.164 43.3236 143.303 43.1894L143.282 42.6899C146.367 42.558 149.481 42.4445 152.622 42.3498L152.637 42.8496C155.725 42.7564 158.838 42.6815 161.975 42.6252L161.966 42.1253C165.06 42.0698 168.176 42.0325 171.313 42.0139L171.316 42.5139C172.872 42.5047 174.434 42.5 176 42.5C177.566 42.5 179.128 42.5047 180.684 42.5139L180.687 42.0139C183.824 42.0325 186.94 42.0698 190.034 42.1253L190.025 42.6252C193.162 42.6815 196.275 42.7564 199.363 42.8496L199.378 42.3498C202.519 42.4445 205.633 42.558 208.718 42.6899L208.697 43.1894C211.836 43.3236 214.946 43.4766 218.024 43.6481L218.051 43.1489C221.193 43.3239 224.302 43.5182 227.374 43.731L227.34 44.2298C230.48 44.4472 233.583 44.6841 236.646 44.9398L236.687 44.4416C239.837 44.7046 242.945 44.9874 246.008 45.2895L245.959 45.7871C249.106 46.0976 252.205 46.4283 255.254 46.7786L255.311 46.2819C258.458 46.6436 261.552 47.0262 264.587 47.4288L264.521 47.9245C267.661 48.3409 270.738 48.7787 273.749 49.2371L273.824 48.7428C276.977 49.2229 280.059 49.7254 283.063 50.2496L282.977 50.7421C286.123 51.2909 289.185 51.8632 292.157 52.4579L292.255 51.9676C295.399 52.5968 298.444 53.2511 301.383 53.9291L301.27 54.4163C304.414 55.1416 307.437 55.894 310.33 56.6718L310.46 56.1889C313.608 57.0352 316.605 57.9116 319.44 58.816L319.288 59.2924C322.419 60.2914 325.352 61.324 328.072 62.3871L328.254 61.9214C331.385 63.1451 334.238 64.41 336.795 65.7116L336.568 66.1571C339.644 67.7233 342.277 69.3378 344.437 70.991L344.741 70.594Z" stroke="url(#paint0_linear_326_24142)" stroke-dasharray="9 9"/>
<defs>
<linearGradient id="paint0_linear_326_24142" x1="176" y1="122" x2="176" y2="62" gradientUnits="userSpaceOnUse">
<stop stop-color="white"/>
<stop offset="1" stop-color="#999999" stop-opacity="0"/>
</linearGradient>
</defs>
</svg>
