<svg width="287" height="113" viewBox="0 0 287 113" fill="none" xmlns="http://www.w3.org/2000/svg">
<path d="M53.5179 40.8464C58.6169 40.1339 63.8094 40.5234 68.745 41.9886C73.6806 43.4537 78.2446 45.9605 82.1289 49.3398C86.0131 52.719 89.1274 56.8922 91.2616 61.5775C93.3957 66.2629 94.5 71.3515 94.5 76.5" stroke="white"/>
<path d="M5.18963 74H1.58026V63.8182H5.21946C6.24361 63.8182 7.12524 64.022 7.86435 64.4297C8.60346 64.834 9.17188 65.4157 9.5696 66.1747C9.97064 66.9337 10.1712 67.8419 10.1712 68.8991C10.1712 69.9598 9.97064 70.8712 9.5696 71.6335C9.17188 72.3958 8.60014 72.9808 7.8544 73.3885C7.11198 73.7962 6.22372 74 5.18963 74ZM3.73295 72.1555H5.10014C5.73651 72.1555 6.27178 72.0429 6.70597 71.8175C7.14347 71.5888 7.47159 71.2358 7.69034 70.7585C7.91241 70.2779 8.02344 69.6581 8.02344 68.8991C8.02344 68.1468 7.91241 67.532 7.69034 67.0547C7.47159 66.5774 7.14512 66.2261 6.71094 66.0007C6.27675 65.7753 5.74148 65.6626 5.10511 65.6626H3.73295V72.1555ZM13.9036 74.1442C13.4164 74.1442 12.9822 74.0597 12.601 73.8906C12.2199 73.7183 11.9183 73.4647 11.6962 73.13C11.4775 72.7919 11.3681 72.371 11.3681 71.8672C11.3681 71.4429 11.446 71.0866 11.6017 70.7983C11.7575 70.5099 11.9696 70.2779 12.2381 70.1023C12.5066 69.9266 12.8115 69.794 13.1529 69.7045C13.4976 69.6151 13.8588 69.5521 14.2367 69.5156C14.6808 69.4692 15.0388 69.4261 15.3105 69.3864C15.5823 69.3433 15.7795 69.2803 15.9022 69.1974C16.0248 69.1146 16.0861 68.992 16.0861 68.8295V68.7997C16.0861 68.4848 15.9867 68.2412 15.7878 68.0689C15.5923 67.8965 15.3139 67.8104 14.9526 67.8104C14.5714 67.8104 14.2682 67.8949 14.0428 68.0639C13.8174 68.2296 13.6683 68.4384 13.5953 68.6903L11.6365 68.5312C11.736 68.0672 11.9315 67.6662 12.2232 67.3281C12.5149 66.9867 12.891 66.7249 13.3517 66.5426C13.8158 66.357 14.3527 66.2642 14.9625 66.2642C15.3868 66.2642 15.7928 66.3139 16.1806 66.4134C16.5717 66.5128 16.918 66.6669 17.2196 66.8757C17.5246 67.0845 17.7649 67.353 17.9405 67.6811C18.1162 68.0059 18.204 68.3954 18.204 68.8494V74H16.1955V72.9411H16.1358C16.0132 73.1797 15.8491 73.3902 15.6436 73.5724C15.4382 73.7514 15.1912 73.8923 14.9029 73.995C14.6145 74.0945 14.2814 74.1442 13.9036 74.1442ZM14.5101 72.6825C14.8217 72.6825 15.0968 72.6212 15.3354 72.4986C15.574 72.3726 15.7613 72.2036 15.8972 71.9915C16.0331 71.7794 16.101 71.5391 16.101 71.2706V70.4602C16.0347 70.5033 15.9436 70.5431 15.8276 70.5795C15.7149 70.6127 15.5873 70.6442 15.4448 70.674C15.3023 70.7005 15.1597 70.7254 15.0172 70.7486C14.8747 70.7685 14.7454 70.7867 14.6294 70.8033C14.3809 70.8397 14.1638 70.8977 13.9782 70.9773C13.7926 71.0568 13.6484 71.1645 13.5456 71.3004C13.4429 71.433 13.3915 71.5987 13.3915 71.7976C13.3915 72.0859 13.4959 72.3063 13.7047 72.4588C13.9168 72.608 14.1853 72.6825 14.5101 72.6825ZM23.9089 66.3636V67.9545H19.3102V66.3636H23.9089ZM20.3542 64.5341H22.4721V71.6534C22.4721 71.849 22.502 72.0014 22.5616 72.1108C22.6213 72.2169 22.7041 72.2914 22.8102 72.3345C22.9196 72.3776 23.0455 72.3991 23.188 72.3991C23.2875 72.3991 23.3869 72.3909 23.4863 72.3743C23.5858 72.3544 23.662 72.3395 23.715 72.3295L24.0481 73.9055C23.9421 73.9387 23.7929 73.9768 23.6007 74.0199C23.4084 74.0663 23.1748 74.0945 22.8997 74.1044C22.3893 74.1243 21.9418 74.0563 21.5574 73.9006C21.1762 73.7448 20.8796 73.5028 20.6674 73.1747C20.4553 72.8466 20.3509 72.4323 20.3542 71.9318V64.5341ZM27.4661 74.1442C26.9789 74.1442 26.5447 74.0597 26.1635 73.8906C25.7824 73.7183 25.4808 73.4647 25.2587 73.13C25.04 72.7919 24.9306 72.371 24.9306 71.8672C24.9306 71.4429 25.0085 71.0866 25.1642 70.7983C25.32 70.5099 25.5321 70.2779 25.8006 70.1023C26.0691 69.9266 26.374 69.794 26.7154 69.7045C27.0601 69.6151 27.4213 69.5521 27.7992 69.5156C28.2433 69.4692 28.6013 69.4261 28.873 69.3864C29.1448 69.3433 29.342 69.2803 29.4647 69.1974C29.5873 69.1146 29.6486 68.992 29.6486 68.8295V68.7997C29.6486 68.4848 29.5492 68.2412 29.3503 68.0689C29.1548 67.8965 28.8764 67.8104 28.5151 67.8104C28.1339 67.8104 27.8307 67.8949 27.6053 68.0639C27.3799 68.2296 27.2308 68.4384 27.1578 68.6903L25.199 68.5312C25.2985 68.0672 25.494 67.6662 25.7857 67.3281C26.0774 66.9867 26.4535 66.7249 26.9142 66.5426C27.3783 66.357 27.9152 66.2642 28.525 66.2642C28.9493 66.2642 29.3553 66.3139 29.7431 66.4134C30.1342 66.5128 30.4805 66.6669 30.7821 66.8757C31.0871 67.0845 31.3274 67.353 31.503 67.6811C31.6787 68.0059 31.7665 68.3954 31.7665 68.8494V74H29.758V72.9411H29.6983C29.5757 73.1797 29.4116 73.3902 29.2061 73.5724C29.0007 73.7514 28.7537 73.8923 28.4654 73.995C28.177 74.0945 27.8439 74.1442 27.4661 74.1442ZM28.0726 72.6825C28.3842 72.6825 28.6593 72.6212 28.8979 72.4986C29.1365 72.3726 29.3238 72.2036 29.4597 71.9915C29.5956 71.7794 29.6635 71.5391 29.6635 71.2706V70.4602C29.5972 70.5033 29.5061 70.5431 29.3901 70.5795C29.2774 70.6127 29.1498 70.6442 29.0073 70.674C28.8648 70.7005 28.7222 70.7254 28.5797 70.7486C28.4372 70.7685 28.3079 70.7867 28.1919 70.8033C27.9434 70.8397 27.7263 70.8977 27.5407 70.9773C27.3551 71.0568 27.2109 71.1645 27.1081 71.3004C27.0054 71.433 26.954 71.5987 26.954 71.7976C26.954 72.0859 27.0584 72.3063 27.2672 72.4588C27.4793 72.608 27.7478 72.6825 28.0726 72.6825ZM39.7633 68.5412L37.8244 68.6605C37.7913 68.4948 37.72 68.3456 37.6106 68.2131C37.5012 68.0772 37.3571 67.9695 37.1781 67.8899C37.0024 67.8071 36.792 67.7656 36.5467 67.7656C36.2186 67.7656 35.9418 67.8352 35.7164 67.9744C35.4911 68.1103 35.3784 68.2926 35.3784 68.5213C35.3784 68.7036 35.4513 68.8577 35.5971 68.9837C35.743 69.1096 35.9932 69.2107 36.3478 69.2869L37.7299 69.5653C38.4724 69.7178 39.0259 69.9631 39.3904 70.3011C39.755 70.6392 39.9373 71.0833 39.9373 71.6335C39.9373 72.134 39.7898 72.5732 39.4949 72.951C39.2032 73.3288 38.8021 73.6238 38.2917 73.8359C37.7846 74.0447 37.1996 74.1491 36.5368 74.1491C35.5259 74.1491 34.7205 73.9387 34.1206 73.5178C33.524 73.0935 33.1743 72.5168 33.0716 71.7876L35.1547 71.6783C35.2176 71.9865 35.3701 72.2218 35.612 72.3842C35.854 72.5433 36.1639 72.6229 36.5417 72.6229C36.9129 72.6229 37.2112 72.5516 37.4366 72.4091C37.6653 72.2633 37.7813 72.076 37.7846 71.8473C37.7813 71.6551 37.7001 71.4976 37.541 71.375C37.3819 71.2491 37.1367 71.1529 36.8052 71.0866L35.4828 70.8232C34.737 70.674 34.1819 70.4155 33.8173 70.0476C33.456 69.6797 33.2754 69.2107 33.2754 68.6406C33.2754 68.1501 33.408 67.7275 33.6731 67.3729C33.9416 67.0182 34.3178 66.7448 34.8017 66.5526C35.2889 66.3603 35.859 66.2642 36.5119 66.2642C37.4764 66.2642 38.2354 66.468 38.7889 66.8757C39.3457 67.2834 39.6705 67.8385 39.7633 68.5412ZM44.7511 74.1491C43.9656 74.1491 43.2894 73.9901 42.7227 73.6719C42.1592 73.3504 41.725 72.8963 41.4201 72.3097C41.1152 71.7197 40.9627 71.022 40.9627 70.2166C40.9627 69.4311 41.1152 68.7417 41.4201 68.1484C41.725 67.5552 42.1542 67.0928 42.7077 66.7614C43.2646 66.4299 43.9175 66.2642 44.6665 66.2642C45.1703 66.2642 45.6393 66.3454 46.0735 66.5078C46.511 66.6669 46.8922 66.9072 47.217 67.2287C47.5451 67.5502 47.8003 67.9545 47.9826 68.4418C48.1649 68.9257 48.256 69.4924 48.256 70.142V70.7237H41.8079V69.4112H46.2624C46.2624 69.1063 46.1961 68.8362 46.0636 68.6009C45.931 68.3655 45.747 68.1816 45.5117 68.049C45.2797 67.9131 45.0096 67.8452 44.7013 67.8452C44.3799 67.8452 44.0948 67.9197 43.8462 68.0689C43.601 68.2147 43.4087 68.4119 43.2695 68.6605C43.1303 68.9058 43.0591 69.1792 43.0558 69.4808V70.7287C43.0558 71.1065 43.1254 71.433 43.2646 71.7081C43.4071 71.9832 43.6076 72.1953 43.8661 72.3445C44.1246 72.4936 44.4312 72.5682 44.7859 72.5682C45.0212 72.5682 45.2366 72.535 45.4322 72.4688C45.6277 72.4025 45.7951 72.303 45.9343 72.1705C46.0735 72.0379 46.1796 71.8755 46.2525 71.6832L48.2113 71.8125C48.1119 72.2831 47.908 72.6941 47.5998 73.0455C47.2949 73.3935 46.9004 73.6652 46.4165 73.8608C45.936 74.053 45.3808 74.1491 44.7511 74.1491ZM53.6999 66.3636V67.9545H49.1012V66.3636H53.6999ZM50.1452 64.5341H52.2631V71.6534C52.2631 71.849 52.293 72.0014 52.3526 72.1108C52.4123 72.2169 52.4951 72.2914 52.6012 72.3345C52.7106 72.3776 52.8365 72.3991 52.979 72.3991C53.0785 72.3991 53.1779 72.3909 53.2773 72.3743C53.3768 72.3544 53.453 72.3395 53.506 72.3295L53.8391 73.9055C53.7331 73.9387 53.5839 73.9768 53.3917 74.0199C53.1995 74.0663 52.9658 74.0945 52.6907 74.1044C52.1803 74.1243 51.7328 74.0563 51.3484 73.9006C50.9672 73.7448 50.6706 73.5028 50.4585 73.1747C50.2463 72.8466 50.1419 72.4323 50.1452 71.9318V64.5341ZM61.3375 68.5412L59.3986 68.6605C59.3655 68.4948 59.2942 68.3456 59.1848 68.2131C59.0755 68.0772 58.9313 67.9695 58.7523 67.8899C58.5766 67.8071 58.3662 67.7656 58.1209 67.7656C57.7928 67.7656 57.516 67.8352 57.2907 67.9744C57.0653 68.1103 56.9526 68.2926 56.9526 68.5213C56.9526 68.7036 57.0255 68.8577 57.1713 68.9837C57.3172 69.1096 57.5674 69.2107 57.9221 69.2869L59.3042 69.5653C60.0466 69.7178 60.6001 69.9631 60.9647 70.3011C61.3292 70.6392 61.5115 71.0833 61.5115 71.6335C61.5115 72.134 61.3641 72.5732 61.0691 72.951C60.7774 73.3288 60.3764 73.6238 59.8659 73.8359C59.3588 74.0447 58.7739 74.1491 58.111 74.1491C57.1001 74.1491 56.2947 73.9387 55.6948 73.5178C55.0982 73.0935 54.7485 72.5168 54.6458 71.7876L56.7289 71.6783C56.7918 71.9865 56.9443 72.2218 57.1863 72.3842C57.4282 72.5433 57.7381 72.6229 58.1159 72.6229C58.4872 72.6229 58.7855 72.5516 59.0108 72.4091C59.2395 72.2633 59.3555 72.076 59.3588 71.8473C59.3555 71.6551 59.2743 71.4976 59.1152 71.375C58.9561 71.2491 58.7109 71.1529 58.3794 71.0866L57.057 70.8232C56.3113 70.674 55.7561 70.4155 55.3915 70.0476C55.0302 69.6797 54.8496 69.2107 54.8496 68.6406C54.8496 68.1501 54.9822 67.7275 55.2473 67.3729C55.5158 67.0182 55.892 66.7448 56.3759 66.5526C56.8631 66.3603 57.4332 66.2642 58.0861 66.2642C59.0506 66.2642 59.8096 66.468 60.3631 66.8757C60.9199 67.2834 61.2447 67.8385 61.3375 68.5412Z" fill="white"/>
<path d="M81 48L115.528 12.7209C122.865 5.2249 132.912 1 143.401 1H287" stroke="url(#paint0_linear_265_25315)"/>
<defs>
<linearGradient id="paint0_linear_265_25315" x1="81" y1="24.5" x2="287" y2="24.5" gradientUnits="userSpaceOnUse">
<stop offset="0.680628" stop-color="white"/>
<stop offset="1" stop-color="white" stop-opacity="0"/>
</linearGradient>
</defs>
</svg>
