<svg width="367" height="423" viewBox="0 0 367 423" fill="none" xmlns="http://www.w3.org/2000/svg">
<g opacity="0.6" filter="url(#filter0_f_280_5116)">
<path d="M23.4306 40.4576C18.891 91.2086 16.654 118.888 15.566 160.96C17.1273 177.304 20.0974 184.366 31.906 190.445C79.4196 210.886 112.57 226.621 151.461 241.402C167.85 243.117 174.223 239.612 180.648 230.757C193.859 198.305 200.263 161.734 212.737 115.779C215.927 97.8473 213.301 90.0588 200.02 80.5179C150.557 51.8154 78.4126 12.0045 78.4126 12.0045C78.4126 12.0045 64.7841 3.13973 55.9684 3.82719C45.5227 5.68105 40.7055 8.60393 34.3895 14.9736C27.0791 22.5077 24.6984 28.095 23.4306 40.4576Z" fill="#7738A2"/>
</g>
<g opacity="0.3" filter="url(#filter1_f_280_5116)">
<path d="M58.6928 106.85C51.7528 184.437 48.333 226.752 46.6696 291.071C49.0564 316.056 53.597 326.852 71.6496 336.145C144.287 367.395 194.966 391.451 254.421 414.048C279.476 416.669 289.219 411.31 299.041 397.773C319.238 348.162 329.028 292.253 348.098 221.999C352.975 194.586 348.96 182.679 328.656 168.093C253.039 124.214 142.747 63.352 142.747 63.352C142.747 63.352 121.913 49.7999 108.435 50.8509C92.4663 53.685 85.102 58.1534 75.4464 67.8912C64.2705 79.409 60.631 87.9507 58.6928 106.85Z" fill="#7738A2"/>
</g>
<g opacity="0.6" filter="url(#filter2_f_280_5116)">
<path d="M23.4306 40.4576C18.891 91.2086 16.654 118.888 15.566 160.96C17.1273 177.304 20.0974 184.366 31.906 190.445C79.4196 210.886 112.57 226.621 151.461 241.402C167.85 243.117 174.223 239.612 180.648 230.757C193.859 198.305 200.263 161.734 212.737 115.779C215.927 97.8473 213.301 90.0588 200.02 80.5179C150.557 51.8154 78.4126 12.0045 78.4126 12.0045C78.4126 12.0045 64.7841 3.13973 55.9684 3.82719C45.5227 5.68105 40.7055 8.60393 34.3895 14.9736C27.0791 22.5077 24.6984 28.095 23.4306 40.4576Z" fill="#7738A2"/>
</g>
<defs>
<filter id="filter0_f_280_5116" x="-124.434" y="-136.211" width="478.398" height="518.035" filterUnits="userSpaceOnUse" color-interpolation-filters="sRGB">
<feFlood flood-opacity="0" result="BackgroundImageFix"/>
<feBlend mode="normal" in="SourceGraphic" in2="BackgroundImageFix" result="shape"/>
<feGaussianBlur stdDeviation="70" result="effect1_foregroundBlur_280_5116"/>
</filter>
<filter id="filter1_f_280_5116" x="-93.3303" y="-89.207" width="583.303" height="643.9" filterUnits="userSpaceOnUse" color-interpolation-filters="sRGB">
<feFlood flood-opacity="0" result="BackgroundImageFix"/>
<feBlend mode="normal" in="SourceGraphic" in2="BackgroundImageFix" result="shape"/>
<feGaussianBlur stdDeviation="70" result="effect1_foregroundBlur_280_5116"/>
</filter>
<filter id="filter2_f_280_5116" x="-124.434" y="-136.211" width="478.398" height="518.035" filterUnits="userSpaceOnUse" color-interpolation-filters="sRGB">
<feFlood flood-opacity="0" result="BackgroundImageFix"/>
<feBlend mode="normal" in="SourceGraphic" in2="BackgroundImageFix" result="shape"/>
<feGaussianBlur stdDeviation="70" result="effect1_foregroundBlur_280_5116"/>
</filter>
</defs>
</svg>
