<svg width="1410" height="261" viewBox="0 0 1410 261" fill="none" xmlns="http://www.w3.org/2000/svg">
<path d="M1409.5 130.5C1409.5 139.312 1404.68 147.984 1395.34 156.43C1386.01 164.874 1372.21 173.042 1354.4 180.838C1318.77 196.429 1267.19 210.481 1203.42 222.286C1075.88 245.895 899.659 260.5 705 260.5C510.341 260.5 334.122 245.895 206.581 222.286C142.806 210.481 91.2265 196.429 55.6029 180.838C37.7892 173.042 23.9933 164.874 14.6585 156.43C5.32235 147.984 0.5 139.312 0.5 130.5C0.5 121.688 5.32235 113.016 14.6585 104.57C23.9933 96.1263 37.7892 87.9575 55.6029 80.1616C91.2265 64.5712 142.806 50.5194 206.581 38.7142C334.122 15.1054 510.341 0.5 705 0.5C899.659 0.5 1075.88 15.1054 1203.42 38.7142C1267.19 50.5194 1318.77 64.5712 1354.4 80.1616C1372.21 87.9575 1386.01 96.1263 1395.34 104.57C1404.68 113.016 1409.5 121.688 1409.5 130.5Z" stroke="url(#paint0_linear_168_3497)"/>
<defs>
<linearGradient id="paint0_linear_168_3497" x1="741.5" y1="81.5" x2="741.5" y2="261" gradientUnits="userSpaceOnUse">
<stop stop-color="#8B68C5" stop-opacity="0"/>
<stop offset="1" stop-color="#8B68C5"/>
</linearGradient>
</defs>
</svg>
