<svg width="1600" height="296" viewBox="0 0 1600 296" fill="none" xmlns="http://www.w3.org/2000/svg">
<g style="mix-blend-mode:lighten" filter="url(#filter0_f_179_9780)">
<ellipse cx="367.39" cy="351.273" rx="367.39" ry="351.273" transform="matrix(0.999024 0.0441662 -0.672977 0.739663 -225.203 -112)" fill="#141727"/>
</g>
<g style="mix-blend-mode:lighten" filter="url(#filter1_f_179_9780)">
<ellipse cx="477.256" cy="351.273" rx="477.256" ry="351.273" transform="matrix(-0.999024 0.0441662 0.672977 0.739663 1490.58 -49)" fill="#6500CB"/>
</g>
<path fill-rule="evenodd" clip-rule="evenodd" d="M645.369 0H1600V294.229C1600 295.76 1598.76 297 1597.23 297H422.771C421.24 297 420 295.76 420 294.229V296.002H0V20.002C0 8.95626 8.95431 0.00195312 20 0.00195312H400C411.046 0.00195312 420 8.95626 420 20.002V73.0045L619.369 73.0026C626.548 73.0026 632.369 67.1823 632.369 60.0026V13C632.369 5.82031 638.189 0 645.369 0Z" fill="#080808"/>
<path d="M1600 0H645.369C638.189 0 632.369 5.82031 632.369 13V60.0026C632.369 67.1823 626.548 73.0026 619.369 73.0026L420 73.0045" stroke="#43325F"/>
<path d="M0 0H400C411.046 0 420 8.9543 420 20V297" stroke="#43325F"/>
<g style="mix-blend-mode:lighten" filter="url(#filter2_f_179_9780)">
<ellipse cx="367.39" cy="351.273" rx="367.39" ry="351.273" transform="matrix(0.999024 0.0441662 -0.672977 0.739663 579.797 68)" fill="#141727"/>
</g>
<g style="mix-blend-mode:lighten" filter="url(#filter3_f_179_9780)">
<ellipse cx="367.39" cy="351.273" rx="367.39" ry="351.273" transform="matrix(0.999024 0.0441662 -0.672977 0.739663 1341.8 36)" fill="#141727"/>
</g>
<defs>
<filter id="filter0_f_179_9780" x="-835.196" y="-400.289" width="1481.25" height="1128.68" filterUnits="userSpaceOnUse" color-interpolation-filters="sRGB">
<feFlood flood-opacity="0" result="BackgroundImageFix"/>
<feBlend mode="normal" in="SourceGraphic" in2="BackgroundImageFix" result="shape"/>
<feGaussianBlur stdDeviation="152" result="effect1_foregroundBlur_179_9780"/>
</filter>
<filter id="filter1_f_179_9780" x="413.893" y="-332.789" width="1672.59" height="1129.38" filterUnits="userSpaceOnUse" color-interpolation-filters="sRGB">
<feFlood flood-opacity="0" result="BackgroundImageFix"/>
<feBlend mode="normal" in="SourceGraphic" in2="BackgroundImageFix" result="shape"/>
<feGaussianBlur stdDeviation="152" result="effect1_foregroundBlur_179_9780"/>
</filter>
<filter id="filter2_f_179_9780" x="-30.196" y="-220.289" width="1481.25" height="1128.68" filterUnits="userSpaceOnUse" color-interpolation-filters="sRGB">
<feFlood flood-opacity="0" result="BackgroundImageFix"/>
<feBlend mode="normal" in="SourceGraphic" in2="BackgroundImageFix" result="shape"/>
<feGaussianBlur stdDeviation="152" result="effect1_foregroundBlur_179_9780"/>
</filter>
<filter id="filter3_f_179_9780" x="731.804" y="-252.289" width="1481.25" height="1128.68" filterUnits="userSpaceOnUse" color-interpolation-filters="sRGB">
<feFlood flood-opacity="0" result="BackgroundImageFix"/>
<feBlend mode="normal" in="SourceGraphic" in2="BackgroundImageFix" result="shape"/>
<feGaussianBlur stdDeviation="152" result="effect1_foregroundBlur_179_9780"/>
</filter>
</defs>
</svg>
