<svg width="163" height="26" viewBox="0 0 163 26" fill="none" xmlns="http://www.w3.org/2000/svg">
<g style="mix-blend-mode:plus-lighter">
<path d="M99.3672 4.375H103.186V7.15213H99.3672V4.375Z" fill="#7E8391"/>
<path d="M99.3672 8.5407H103.186V19.9964H99.3672V8.5407Z" fill="#7E8391"/>
<path fill-rule="evenodd" clip-rule="evenodd" d="M152.24 16.703L153.433 20.0008H157.729L151.654 4.72656H145.753L139.678 20.0008H143.974L145.167 16.703H152.24ZM149.441 9.00074L151.155 13.7522H146.252L147.966 9.00074C148.096 8.62467 148.19 8.30646 148.248 8.04611C148.32 7.78575 148.356 7.51816 148.356 7.24334C148.356 6.98298 148.472 6.85281 148.703 6.85281C148.949 6.85281 149.072 6.98298 149.072 7.24334C149.072 7.7062 149.195 8.292 149.441 9.00074Z" fill="#7E8391"/>
<path d="M158.418 4.72656V20.0008H162.41V4.72656H158.418Z" fill="#7E8391"/>
<path d="M128.153 8.19531C129.657 8.19531 130.85 8.60754 131.732 9.432C132.629 10.2565 133.078 11.4642 133.078 13.0553V19.9981H129.259V14.6174C129.259 13.3735 129.071 12.5129 128.695 12.0356C128.333 11.5582 127.726 11.3196 126.872 11.3196C126.265 11.3196 125.686 11.5221 125.137 11.9271C124.602 12.3321 124.168 12.889 123.835 13.5977C123.517 14.3065 123.358 15.0875 123.358 15.9409V19.9981H119.539V8.54245H123.358V9.08486C123.358 9.57665 123.264 9.98888 123.076 10.3216C122.902 10.6108 122.815 10.8278 122.815 10.9724C122.815 11.0592 122.859 11.1243 122.945 11.1677C122.974 11.1822 123.018 11.1894 123.076 11.1894C123.177 11.1894 123.256 11.146 123.314 11.0592C123.372 10.958 123.408 10.9001 123.423 10.8857C123.958 10.148 124.616 9.51879 125.397 8.99808C126.178 8.4629 127.097 8.19531 128.153 8.19531Z" fill="#7E8391"/>
<path fill-rule="evenodd" clip-rule="evenodd" d="M115.116 9.01977C114.046 8.47013 112.794 8.19531 111.362 8.19531C109.931 8.19531 108.672 8.47013 107.587 9.01977C106.517 9.55495 105.693 10.2854 105.114 11.2111C104.535 12.1224 104.246 13.1421 104.246 14.2703C104.246 15.3985 104.535 16.4255 105.114 17.3512C105.693 18.2624 106.517 18.9929 107.587 19.5425C108.672 20.0777 109.931 20.3453 111.362 20.3453C112.794 20.3453 114.046 20.0777 115.116 19.5425C116.201 18.9929 117.032 18.2624 117.611 17.3512C118.19 16.4255 118.479 15.3985 118.479 14.2703C118.479 13.1421 118.19 12.1224 117.611 11.2111C117.032 10.2854 116.201 9.55495 115.116 9.01977ZM113.792 16.3748C113.214 16.9389 112.404 17.221 111.362 17.221C110.321 17.221 109.511 16.9389 108.933 16.3748C108.354 15.8107 108.065 15.1092 108.065 14.2703C108.065 13.4314 108.354 12.7299 108.933 12.1657C109.511 11.6016 110.321 11.3196 111.362 11.3196C112.404 11.3196 113.214 11.6016 113.792 12.1657C114.371 12.7299 114.66 13.4314 114.66 14.2703C114.66 15.1092 114.371 15.8107 113.792 16.3748Z" fill="#7E8391"/>
<path d="M93.9883 15.9229V11.4969H97.8068V8.54615H93.9883V5.42188H90.1697V8.54615H87.3926V11.4969H90.1697V16.487C90.1697 17.3983 90.2854 18.107 90.5169 18.6133C90.7627 19.1195 91.1316 19.4811 91.6234 19.6981C92.1152 19.9006 92.7588 20.0018 93.5543 20.0018H97.8068V17.0511H95.0297C94.6681 17.0511 94.4222 17.0367 94.292 17.0077C94.1618 16.9643 94.0751 16.8703 94.0317 16.7257C94.0027 16.581 93.9883 16.3134 93.9883 15.9229Z" fill="#7E8391"/>
<path d="M73.6934 14.2703C73.6934 13.1421 73.9754 12.1224 74.5395 11.2111C75.1181 10.2854 75.957 9.55495 77.0563 9.01977C78.1556 8.47013 79.4501 8.19531 80.9399 8.19531C82.2417 8.19531 83.3844 8.42674 84.368 8.8896C85.3515 9.33799 86.1109 9.93825 86.6461 10.6904C87.1957 11.4281 87.5067 12.2236 87.579 13.077L83.8039 13.0987C83.6592 12.5924 83.341 12.173 82.8492 11.8403C82.3719 11.4932 81.7499 11.3196 80.9833 11.3196C80.2891 11.3196 79.6816 11.457 79.1608 11.7318C78.6401 11.9922 78.2351 12.3465 77.9458 12.7949C77.6566 13.2433 77.5119 13.7351 77.5119 14.2703C77.5119 14.8055 77.6566 15.2973 77.9458 15.7456C78.2351 16.194 78.6401 16.5556 79.1608 16.8305C79.6816 17.0908 80.2891 17.221 80.9833 17.221C81.7499 17.221 82.3719 17.0474 82.8492 16.7003C83.341 16.3531 83.6592 15.9264 83.8039 15.4202L87.579 15.4419C87.5067 16.2953 87.203 17.0981 86.6678 17.8502C86.1326 18.6023 85.3732 19.2098 84.3897 19.6727C83.4061 20.1211 82.2562 20.3453 80.9399 20.3453C79.4646 20.3453 78.1773 20.0777 77.078 19.5425C75.9932 18.9929 75.1542 18.2624 74.5612 17.3512C73.9826 16.4255 73.6934 15.3985 73.6934 14.2703Z" fill="#7E8391"/>
<path fill-rule="evenodd" clip-rule="evenodd" d="M60.3143 14.2269C59.3886 14.791 58.9258 15.695 58.9258 16.9389C58.9258 17.5898 59.1066 18.1756 59.4682 18.6963C59.8443 19.2026 60.3794 19.6076 61.0737 19.9113C61.7825 20.2006 62.6286 20.3453 63.6122 20.3453C64.8127 20.3453 65.8108 20.1211 66.6063 19.6727C67.4163 19.2098 68.0672 18.624 68.559 17.9153C68.5734 17.9008 68.6024 17.843 68.6457 17.7417C68.7036 17.6405 68.7832 17.5898 68.8844 17.5898C68.9133 17.5898 68.9567 17.6043 69.0146 17.6332C69.0869 17.6622 69.1231 17.72 69.1231 17.8068C69.1231 17.908 69.0869 18.031 69.0146 18.1756C68.9423 18.3203 68.8989 18.4143 68.8844 18.4577C68.7253 18.7759 68.6457 19.0941 68.6457 19.4123V19.9981H72.4643V13.6628C72.4643 12.2019 72.1823 11.0737 71.6181 10.2782C71.0685 9.46817 70.3308 8.91852 69.4051 8.62924C68.4794 8.33995 67.3729 8.19531 66.0856 8.19531C64.1474 8.19531 62.5708 8.52799 61.3558 9.19335C60.1552 9.8587 59.461 10.9146 59.2729 12.361H63.0481C63.1493 11.8837 63.4025 11.5366 63.8075 11.3196C64.2125 11.0882 64.9429 10.9724 65.9988 10.9724C67.7345 10.9724 68.6168 11.3485 68.6457 12.1007C68.6602 12.5346 68.3492 12.8239 67.7128 12.9685C67.0908 13.0987 66.1651 13.1855 64.9357 13.2289L64.48 13.2506C62.6431 13.3373 61.2545 13.6628 60.3143 14.2269ZM64.9574 15.3551C66.722 15.2105 67.9515 14.8489 68.6457 14.2703C68.6457 14.9501 68.4649 15.5504 68.1033 16.0711C67.7417 16.5773 67.3006 16.9751 66.7799 17.2644C66.2736 17.5537 65.7746 17.7417 65.2828 17.8285C65.008 17.8719 64.7476 17.8936 64.5017 17.8936C63.9521 17.8936 63.5182 17.7851 63.2 17.5681C62.8962 17.3512 62.7443 17.0619 62.7443 16.7003C62.7443 16.2374 62.9251 15.912 63.2867 15.7239C63.6484 15.5359 64.2052 15.413 64.9574 15.3551Z" fill="#7E8391"/>
<path d="M53.199 11.166C53.3003 11.166 53.3726 11.1226 53.416 11.0358C53.4739 10.9491 53.51 10.8912 53.5245 10.8623C53.9873 10.0523 54.6238 9.43754 55.4338 9.01808C56.2582 8.58415 57.3286 8.36719 58.6448 8.36719V11.882C58.5002 11.8675 58.2832 11.8603 57.9939 11.8603C56.5764 11.8603 55.4627 12.2002 54.6527 12.88C53.8427 13.5598 53.4377 14.5651 53.4377 15.8958V19.9964H49.6191V8.54076H53.4377V9.23504C53.4377 9.58218 53.3364 9.95825 53.1339 10.3633C53.0182 10.6236 52.9604 10.8044 52.9604 10.9057C52.9604 11.0648 53.0255 11.1516 53.1556 11.166H53.199Z" fill="#7E8391"/>
<path d="M48.2324 4.72656H35.041V20.0008H39.0331V13.9258H46.8438V10.8015H39.0331V8.02441H48.2324V4.72656Z" fill="#7E8391"/>
<circle cx="21.5" cy="4.5" r="4.5" fill="#7E8391"/>
<path fill-rule="evenodd" clip-rule="evenodd" d="M26 10.5005C24.7465 11.4421 23.1884 12 21.5 12C17.3579 12 14 8.64214 14 4.5C14 2.81159 14.5579 1.25349 15.4995 0H4C1.79086 0 0 1.79086 0 4V22C0 24.2091 1.79086 26 4 26H22C24.2091 26 26 24.2091 26 22V10.5005Z" fill="#7E8391"/>
</g>
</svg>
