<svg width="195" height="89" viewBox="0 0 195 89" fill="none" xmlns="http://www.w3.org/2000/svg">
<path d="M153.971 38V27.8182H160.712V29.593H156.124V32.0192H160.265V33.794H156.124V38H153.971ZM161.998 38V30.3636H164.051V31.696H164.13C164.27 31.2221 164.503 30.8641 164.831 30.6222C165.159 30.3769 165.537 30.2543 165.965 30.2543C166.071 30.2543 166.185 30.2609 166.308 30.2741C166.431 30.2874 166.538 30.3056 166.631 30.3288V32.2081C166.532 32.1783 166.394 32.1518 166.218 32.1286C166.043 32.1054 165.882 32.0938 165.736 32.0938C165.425 32.0938 165.146 32.1617 164.901 32.2976C164.659 32.4302 164.467 32.6158 164.324 32.8544C164.185 33.093 164.115 33.3681 164.115 33.6797V38H161.998ZM169.685 38.1442C169.198 38.1442 168.763 38.0597 168.382 37.8906C168.001 37.7183 167.7 37.4647 167.477 37.13C167.259 36.7919 167.149 36.371 167.149 35.8672C167.149 35.4429 167.227 35.0866 167.383 34.7983C167.539 34.5099 167.751 34.2779 168.019 34.1023C168.288 33.9266 168.593 33.794 168.934 33.7045C169.279 33.6151 169.64 33.5521 170.018 33.5156C170.462 33.4692 170.82 33.4261 171.092 33.3864C171.364 33.3433 171.561 33.2803 171.683 33.1974C171.806 33.1146 171.867 32.992 171.867 32.8295V32.7997C171.867 32.4848 171.768 32.2412 171.569 32.0689C171.374 31.8965 171.095 31.8104 170.734 31.8104C170.353 31.8104 170.049 31.8949 169.824 32.0639C169.599 32.2296 169.45 32.4384 169.377 32.6903L167.418 32.5312C167.517 32.0672 167.713 31.6662 168.004 31.3281C168.296 30.9867 168.672 30.7249 169.133 30.5426C169.597 30.357 170.134 30.2642 170.744 30.2642C171.168 30.2642 171.574 30.3139 171.962 30.4134C172.353 30.5128 172.699 30.6669 173.001 30.8757C173.306 31.0845 173.546 31.353 173.722 31.6811C173.897 32.0059 173.985 32.3954 173.985 32.8494V38H171.977V36.9411H171.917C171.794 37.1797 171.63 37.3902 171.425 37.5724C171.219 37.7514 170.972 37.8923 170.684 37.995C170.396 38.0945 170.063 38.1442 169.685 38.1442ZM170.291 36.6825C170.603 36.6825 170.878 36.6212 171.117 36.4986C171.355 36.3726 171.543 36.2036 171.678 35.9915C171.814 35.7794 171.882 35.5391 171.882 35.2706V34.4602C171.816 34.5033 171.725 34.5431 171.609 34.5795C171.496 34.6127 171.369 34.6442 171.226 34.674C171.084 34.7005 170.941 34.7254 170.798 34.7486C170.656 34.7685 170.527 34.7867 170.411 34.8033C170.162 34.8397 169.945 34.8977 169.759 34.9773C169.574 35.0568 169.43 35.1645 169.327 35.3004C169.224 35.433 169.173 35.5987 169.173 35.7976C169.173 36.0859 169.277 36.3063 169.486 36.4588C169.698 36.608 169.967 36.6825 170.291 36.6825ZM179.079 38.1491C178.296 38.1491 177.624 37.9834 177.06 37.652C176.5 37.3172 176.069 36.8532 175.768 36.2599C175.469 35.6667 175.32 34.9839 175.32 34.2116C175.32 33.4295 175.471 32.7434 175.773 32.1534C176.077 31.5601 176.51 31.0978 177.07 30.7663C177.63 30.4316 178.296 30.2642 179.069 30.2642C179.735 30.2642 180.318 30.3852 180.819 30.6271C181.319 30.8691 181.715 31.2088 182.007 31.6463C182.299 32.0838 182.459 32.5975 182.489 33.1875H180.491C180.434 32.8063 180.285 32.4998 180.043 32.2678C179.805 32.0324 179.491 31.9148 179.104 31.9148C178.775 31.9148 178.489 32.0043 178.243 32.1832C178.001 32.3589 177.813 32.6158 177.677 32.9538C177.541 33.2919 177.473 33.7012 177.473 34.1818C177.473 34.669 177.539 35.0833 177.672 35.4247C177.808 35.7661 177.998 36.0263 178.243 36.2053C178.489 36.3842 178.775 36.4737 179.104 36.4737C179.345 36.4737 179.563 36.424 179.755 36.3246C179.95 36.2251 180.111 36.081 180.237 35.892C180.366 35.6998 180.451 35.4695 180.491 35.201H182.489C182.456 35.7843 182.297 36.2981 182.012 36.7422C181.73 37.183 181.341 37.5277 180.844 37.7763C180.346 38.0249 179.758 38.1491 179.079 38.1491Z" fill="white"/>
<path d="M164.774 69.168C159.888 69.8508 154.912 69.4776 150.182 68.0735C145.452 66.6693 141.078 64.267 137.356 61.0285C133.633 57.7901 130.649 53.7909 128.604 49.3007C126.558 44.8106 125.5 39.934 125.5 35" stroke="white"/>
<path d="M135 58L116.987 76.333C109.655 83.7961 99.6308 88 89.1682 88L0 88" stroke="url(#paint0_linear_168_3281)"/>
<defs>
<linearGradient id="paint0_linear_168_3281" x1="135" y1="73" x2="8.49999" y2="73" gradientUnits="userSpaceOnUse">
<stop offset="0.680628" stop-color="white"/>
<stop offset="1" stop-color="white" stop-opacity="0"/>
</linearGradient>
</defs>
</svg>
