<svg width="165" height="26" viewBox="0 0 165 26" fill="none" xmlns="http://www.w3.org/2000/svg">
<g clip-path="url(#clip0_575_28943)">
<path d="M101.15 4H105.018V6.78262H101.15V4Z" fill="white"/>
<path d="M101.15 8.17392H105.018V19.6522H101.15V8.17392Z" fill="white"/>
<path fill-rule="evenodd" clip-rule="evenodd" d="M154.698 16.3474L155.907 19.6517H160.257L154.105 4.34735H148.128L141.975 19.6517H146.326L147.534 16.3474H154.698ZM151.863 8.62997L153.599 13.3909H148.633L150.369 8.62997C150.501 8.25316 150.596 7.93432 150.655 7.67345C150.728 7.41258 150.765 7.14446 150.765 6.8691C150.765 6.60823 150.882 6.47779 151.116 6.47779C151.365 6.47779 151.49 6.60823 151.49 6.8691C151.49 7.33287 151.614 7.91982 151.863 8.62997Z" fill="white"/>
<path d="M160.957 4.34735V19.6517H165V4.34735H160.957Z" fill="white"/>
<path d="M130.303 7.82606C131.826 7.82606 133.035 8.2391 133.928 9.06519C134.837 9.89128 135.291 11.1014 135.291 12.6956V19.6522H131.423V14.2609C131.423 13.0145 131.233 12.1522 130.852 11.6739C130.486 11.1956 129.871 10.9565 129.006 10.9565C128.391 10.9565 127.805 11.1594 127.248 11.5652C126.706 11.971 126.267 12.529 125.93 13.2391C125.608 13.9493 125.446 14.7319 125.446 15.5869V19.6522H121.579V8.17389H125.446V8.71737C125.446 9.21012 125.351 9.62316 125.161 9.9565C124.985 10.2464 124.897 10.4637 124.897 10.6087C124.897 10.6956 124.941 10.7608 125.029 10.8043C125.058 10.8188 125.102 10.8261 125.161 10.8261C125.263 10.8261 125.344 10.7826 125.402 10.6956C125.461 10.5942 125.498 10.5362 125.512 10.5217C126.054 9.78259 126.721 9.15215 127.512 8.63041C128.303 8.09417 129.233 7.82606 130.303 7.82606Z" fill="white"/>
<path fill-rule="evenodd" clip-rule="evenodd" d="M117.1 8.65215C116.016 8.10142 114.748 7.82606 113.298 7.82606C111.848 7.82606 110.573 8.10142 109.475 8.65215C108.39 9.18838 107.555 9.92027 106.969 10.8478C106.384 11.7609 106.091 12.7826 106.091 13.913C106.091 15.0435 106.384 16.0725 106.969 17C107.555 17.913 108.39 18.6449 109.475 19.1957C110.573 19.7319 111.848 20 113.298 20C114.748 20 116.016 19.7319 117.1 19.1957C118.198 18.6449 119.041 17.913 119.627 17C120.213 16.0725 120.506 15.0435 120.506 13.913C120.506 12.7826 120.213 11.7609 119.627 10.8478C119.041 9.92027 118.198 9.18838 117.1 8.65215ZM115.759 16.0217C115.173 16.5869 114.353 16.8696 113.298 16.8696C112.243 16.8696 111.423 16.5869 110.837 16.0217C110.251 15.4565 109.958 14.7536 109.958 13.913C109.958 13.0724 110.251 12.3695 110.837 11.8043C111.423 11.2391 112.243 10.9565 113.298 10.9565C114.353 10.9565 115.173 11.2391 115.759 11.8043C116.345 12.3695 116.638 13.0724 116.638 13.913C116.638 14.7536 116.345 15.4565 115.759 16.0217Z" fill="white"/>
<path d="M95.7026 15.5649V11.1301H99.5701V8.17354H95.7026V5.04309H91.8351V8.17354H89.0224V11.1301H91.8351V16.1301C91.8351 17.0431 91.9523 17.7533 92.1867 18.2605C92.4358 18.7678 92.8093 19.1301 93.3074 19.3475C93.8055 19.5504 94.4574 19.6518 95.2631 19.6518H99.5701V16.6953H96.7574C96.3911 16.6953 96.1421 16.6808 96.0102 16.6518C95.8784 16.6083 95.7905 16.5141 95.7465 16.3692C95.7172 16.2243 95.7026 15.9562 95.7026 15.5649Z" fill="white"/>
<path d="M75.1464 13.913C75.1464 12.7826 75.4321 11.7609 76.0034 10.8478C76.5894 9.92027 77.4391 9.18838 78.5524 8.65215C79.6658 8.10142 80.9769 7.82606 82.4858 7.82606C83.8043 7.82606 84.9616 8.05794 85.9577 8.52171C86.9539 8.97099 87.723 9.57244 88.265 10.3261C88.8217 11.0652 89.1367 11.8623 89.2099 12.7174L85.3864 12.7391C85.2399 12.2319 84.9176 11.8116 84.4195 11.4782C83.9361 11.1304 83.3062 10.9565 82.5298 10.9565C81.8266 10.9565 81.2113 11.0942 80.6839 11.3695C80.1566 11.6304 79.7464 11.9855 79.4534 12.4348C79.1604 12.884 79.0139 13.3768 79.0139 13.913C79.0139 14.4493 79.1604 14.942 79.4534 15.3913C79.7464 15.8406 80.1566 16.2029 80.6839 16.4783C81.2113 16.7391 81.8266 16.8696 82.5298 16.8696C83.3062 16.8696 83.9361 16.6956 84.4195 16.3478C84.9176 16 85.2399 15.5725 85.3864 15.0652L89.2099 15.0869C89.1367 15.942 88.829 16.7464 88.287 17.5C87.745 18.2536 86.9759 18.8623 85.9797 19.3261C84.9835 19.7754 83.8189 20 82.4858 20C80.9916 20 79.6878 19.7319 78.5744 19.1957C77.4757 18.6449 76.626 17.913 76.0254 17C75.4394 16.0725 75.1464 15.0435 75.1464 13.913Z" fill="white"/>
<path fill-rule="evenodd" clip-rule="evenodd" d="M61.5958 13.6717C60.6582 14.237 60.1895 15.1428 60.1895 16.3891C60.1895 17.0413 60.3726 17.6283 60.7388 18.15C61.1197 18.6573 61.6617 19.0631 62.3649 19.3674C63.0827 19.6573 63.9397 19.8022 64.9359 19.8022C66.1518 19.8022 67.1626 19.5775 67.9683 19.1283C68.7887 18.6645 69.4479 18.0775 69.946 17.3674C69.9606 17.3529 69.9899 17.2949 70.0339 17.1935C70.0925 17.092 70.1731 17.0413 70.2756 17.0413C70.3049 17.0413 70.3489 17.0558 70.4075 17.0848C70.4807 17.1138 70.5173 17.1717 70.5173 17.2587C70.5173 17.3602 70.4807 17.4833 70.4075 17.6283C70.3342 17.7732 70.2903 17.8674 70.2756 17.9109C70.1145 18.2297 70.0339 18.5486 70.0339 18.8674V19.4544H73.9013V13.1065C73.9013 11.6427 73.6157 10.5123 73.0444 9.7152C72.4877 8.90361 71.7406 8.35288 70.803 8.06303C69.8654 7.77317 68.7447 7.62824 67.4409 7.62824C65.4779 7.62824 63.8811 7.96158 62.6506 8.62825C61.4347 9.29491 60.7315 10.3529 60.541 11.8022H64.3646C64.4671 11.3239 64.7235 10.9761 65.1337 10.7587C65.5438 10.5268 66.2836 10.4109 67.353 10.4109C69.111 10.4109 70.0046 10.7877 70.0339 11.5413C70.0485 11.9761 69.7336 12.2659 69.089 12.4109C68.4591 12.5413 67.5215 12.6283 66.2763 12.6717L65.8149 12.6935C63.9544 12.7804 62.548 13.1065 61.5958 13.6717ZM66.2983 14.8022C68.0855 14.6572 69.3307 14.2949 70.0339 13.7152C70.0339 14.3964 69.8508 14.9978 69.4845 15.5196C69.1183 16.0268 68.6715 16.4254 68.1441 16.7152C67.6314 17.0051 67.126 17.1935 66.6279 17.2804C66.3496 17.3239 66.0859 17.3457 65.8368 17.3457C65.2801 17.3457 64.8407 17.237 64.5184 17.0196C64.2107 16.8022 64.0569 16.5123 64.0569 16.15C64.0569 15.6862 64.24 15.3601 64.6063 15.1717C64.9725 14.9833 65.5365 14.8601 66.2983 14.8022Z" fill="white"/>
<path d="M54.3895 10.6065C54.4921 10.6065 54.5653 10.5631 54.6093 10.4761C54.6679 10.3892 54.7045 10.3312 54.7191 10.3022C55.1879 9.4906 55.8325 8.87466 56.6529 8.45437C57.4879 8.01958 58.572 7.80219 59.9051 7.80219V11.3239C59.7586 11.3094 59.5388 11.3022 59.2458 11.3022C57.8102 11.3022 56.6822 11.6428 55.8618 12.3239C55.0414 13.0051 54.6313 14.0124 54.6313 15.3457V19.4544H50.7638V7.97611H54.6313V8.67176C54.6313 9.01959 54.5287 9.3964 54.3236 9.8022C54.2064 10.0631 54.1478 10.2442 54.1478 10.3457C54.1478 10.5051 54.2137 10.5921 54.3456 10.6065H54.3895Z" fill="white"/>
<path d="M49.3603 4.34735H36V19.6517H40.0432V13.5648H47.954V10.4343H40.0432V7.65171H49.3603V4.34735Z" fill="white"/>
<path d="M26 4.5C26 6.98528 23.9853 9 21.5 9C19.0147 9 17 6.98528 17 4.5C17 2.01472 19.0147 0 21.5 0C23.9853 0 26 2.01472 26 4.5Z" fill="white"/>
<path d="M26 10.5005C24.7465 11.4421 23.1884 12 21.5 12C17.3579 12 14 8.64214 14 4.5C14 2.81159 14.5579 1.25349 15.4995 0H4.5C2.01472 0 0 2.01472 0 4.5V21.5C0 23.9853 2.01472 26 4.5 26H21.5C23.9853 26 26 23.9853 26 21.5V10.5005Z" fill="white"/>
</g>
<defs>
<clipPath id="clip0_575_28943">
<rect width="165" height="26" fill="white"/>
</clipPath>
</defs>
</svg>
