<svg width="350" height="264" viewBox="0 0 350 264" fill="none" xmlns="http://www.w3.org/2000/svg">
<g clip-path="url(#clip0_334_5087)">
<rect width="350" height="264" rx="36" fill="url(#paint0_linear_334_5087)"/>
<g style="mix-blend-mode:lighten" filter="url(#filter0_f_334_5087)">
<ellipse cx="401.533" cy="331.5" rx="401.533" ry="331.5" transform="matrix(-0.999024 0.0441738 0.672913 0.739721 841.281 134)" fill="#9B5EFF"/>
</g>
<line x1="45.5" y1="264" x2="45.5" y2="226" stroke="url(#paint1_linear_334_5087)"/>
<line x1="175.5" y1="264" x2="175.5" y2="245" stroke="url(#paint2_linear_334_5087)"/>
<line x1="305.5" y1="264" x2="305.5" y2="226" stroke="url(#paint3_linear_334_5087)"/>
<line x1="306.5" y1="-2.18557e-08" x2="306.5" y2="38" stroke="url(#paint4_linear_334_5087)"/>
<line x1="176.5" y1="-2.18557e-08" x2="176.5" y2="19" stroke="url(#paint5_linear_334_5087)"/>
<line x1="46.5" y1="-2.18557e-08" x2="46.5" y2="38" stroke="url(#paint6_linear_334_5087)"/>
</g>
<defs>
<filter id="filter0_f_334_5087" x="-99.8647" y="-152.914" width="1526.15" height="1099.74" filterUnits="userSpaceOnUse" color-interpolation-filters="sRGB">
<feFlood flood-opacity="0" result="BackgroundImageFix"/>
<feBlend mode="normal" in="SourceGraphic" in2="BackgroundImageFix" result="shape"/>
<feGaussianBlur stdDeviation="152" result="effect1_foregroundBlur_334_5087"/>
</filter>
<linearGradient id="paint0_linear_334_5087" x1="175" y1="0" x2="175" y2="264" gradientUnits="userSpaceOnUse">
<stop stop-color="#6E13B6"/>
<stop offset="1" stop-color="#300850"/>
</linearGradient>
<linearGradient id="paint1_linear_334_5087" x1="46.5" y1="226" x2="46.5" y2="264" gradientUnits="userSpaceOnUse">
<stop stop-color="#B66AFF" stop-opacity="0"/>
<stop offset="1" stop-color="#B66AFF"/>
</linearGradient>
<linearGradient id="paint2_linear_334_5087" x1="176.5" y1="245" x2="176.5" y2="264" gradientUnits="userSpaceOnUse">
<stop stop-color="#B66AFF" stop-opacity="0"/>
<stop offset="1" stop-color="#B66AFF"/>
</linearGradient>
<linearGradient id="paint3_linear_334_5087" x1="306.5" y1="226" x2="306.5" y2="264" gradientUnits="userSpaceOnUse">
<stop stop-color="#B66AFF" stop-opacity="0"/>
<stop offset="1" stop-color="#B66AFF"/>
</linearGradient>
<linearGradient id="paint4_linear_334_5087" x1="305.5" y1="38" x2="305.5" y2="2.18557e-08" gradientUnits="userSpaceOnUse">
<stop stop-color="#B66AFF" stop-opacity="0"/>
<stop offset="1" stop-color="#B66AFF"/>
</linearGradient>
<linearGradient id="paint5_linear_334_5087" x1="175.5" y1="19" x2="175.5" y2="2.18557e-08" gradientUnits="userSpaceOnUse">
<stop stop-color="#B66AFF" stop-opacity="0"/>
<stop offset="1" stop-color="#B66AFF"/>
</linearGradient>
<linearGradient id="paint6_linear_334_5087" x1="45.5" y1="38" x2="45.5" y2="2.18557e-08" gradientUnits="userSpaceOnUse">
<stop stop-color="#B66AFF" stop-opacity="0"/>
<stop offset="1" stop-color="#B66AFF"/>
</linearGradient>
<clipPath id="clip0_334_5087">
<rect width="350" height="264" rx="36" fill="white"/>
</clipPath>
</defs>
</svg>
