<svg width="1600" height="367" viewBox="0 0 1600 367" fill="none" xmlns="http://www.w3.org/2000/svg">
<rect width="1600" height="367" fill="#1E1E1E"/>
<g clip-path="url(#clip0_2_3)">
<rect width="1600" height="10974" transform="translate(0 -2219)" fill="#080808"/>
<g clip-path="url(#clip1_2_3)" filter="url(#filter0_d_2_3)">
<g style="mix-blend-mode:lighten">
<ellipse cx="477.519" cy="677.934" rx="477.519" ry="677.934" transform="matrix(-0.117737 -0.993045 -0.687966 0.725743 82.2344 1500.4)" fill="#9B5EFF"/>
</g>
<g style="mix-blend-mode:lighten" opacity="0.8" filter="url(#filter2_f_2_3)">
<ellipse cx="832" cy="795.5" rx="832" ry="795.5" transform="matrix(-0.999024 0.0441662 0.672977 0.739663 2145.38 -124)" fill="#1D1E3E"/>
</g>
<g style="mix-blend-mode:lighten" filter="url(#filter3_f_2_3)">
<ellipse cx="117" cy="166.5" rx="117" ry="166.5" transform="matrix(0.999024 0.0441738 -0.672913 0.739721 1774.23 323)" fill="#6500CB"/>
</g>
<g filter="url(#filter4_f_2_3)">
<ellipse cx="801.67" cy="-334.793" rx="30.0619" ry="240.515" fill="#A424FF"/>
</g>
<g style="mix-blend-mode:lighten" filter="url(#filter5_f_2_3)">
<ellipse cx="832" cy="795.5" rx="832" ry="795.5" transform="matrix(0.999024 0.0441662 -0.672977 0.739663 -670 -910)" fill="#1D1E3E"/>
</g>
<g style="mix-blend-mode:lighten" filter="url(#filter6_f_2_3)">
<ellipse cx="233.5" cy="331.5" rx="233.5" ry="331.5" transform="matrix(-0.841132 -0.540829 0.122373 0.992484 88.0002 -857)" fill="#5E78FF"/>
</g>
</g>
<path d="M722.25 5H644.5H489H198C186.954 5 178 13.9543 178 25V346C178 357.046 186.954 366 198 366H1402C1413.05 366 1422 357.046 1422 346V25C1422 13.9543 1413.05 5 1402 5H1111H955.5H877.75" stroke="#43325F"/>
<path d="M0 5H158C169.046 5 178 13.9543 178 25V346C178 357.046 169.046 366 158 366H0" stroke="#43325F"/>
<path d="M1600 366H1442C1430.95 366 1422 357.046 1422 346V25C1422 13.9543 1430.95 5 1442 5H1600" stroke="#43325F"/>
<rect x="943" y="365.5" width="48" height="1" rx="0.5" fill="url(#paint0_linear_2_3)"/>
<g clip-path="url(#clip2_2_3)">
<rect x="60" y="54" width="1480" height="264" rx="36" fill="url(#paint1_linear_2_3)"/>
<g style="mix-blend-mode:lighten" filter="url(#filter7_f_2_3)">
<ellipse cx="233.5" cy="331.5" rx="233.5" ry="331.5" transform="matrix(-0.999024 0.0441738 0.672913 0.739721 -157.456 -259)" fill="#FF8E5E"/>
</g>
<g style="mix-blend-mode:lighten" filter="url(#filter8_f_2_3)">
<ellipse cx="401.533" cy="331.5" rx="401.533" ry="331.5" transform="matrix(-0.999024 0.0441738 0.672913 0.739721 1464.28 188)" fill="#9B5EFF"/>
</g>
<line x1="669.5" y1="318" x2="669.5" y2="280" stroke="url(#paint2_linear_2_3)"/>
<line x1="799.5" y1="318" x2="799.5" y2="299" stroke="url(#paint3_linear_2_3)"/>
<line x1="539.5" y1="318" x2="539.5" y2="299" stroke="url(#paint4_linear_2_3)"/>
<line x1="1059.5" y1="318" x2="1059.5" y2="299" stroke="url(#paint5_linear_2_3)"/>
<line x1="929.5" y1="318" x2="929.5" y2="280" stroke="url(#paint6_linear_2_3)"/>
<line x1="930.5" y1="54" x2="930.5" y2="92" stroke="url(#paint7_linear_2_3)"/>
<line x1="800.5" y1="54" x2="800.5" y2="73" stroke="url(#paint8_linear_2_3)"/>
<line x1="1060.5" y1="54" x2="1060.5" y2="73" stroke="url(#paint9_linear_2_3)"/>
<line x1="540.5" y1="54" x2="540.5" y2="73" stroke="url(#paint10_linear_2_3)"/>
<line x1="670.5" y1="54" x2="670.5" y2="92" stroke="url(#paint11_linear_2_3)"/>
</g>
<text fill="#C4C4C4" xml:space="preserve" style="white-space: pre" font-family="Inter" font-size="12" font-weight="500" letter-spacing="0em"><tspan x="765" y="9.36364">INVESTORS</tspan></text>
</g>
<defs>
<filter id="filter0_d_2_3" x="-4" y="-2219" width="1608" height="7527" filterUnits="userSpaceOnUse" color-interpolation-filters="sRGB">
<feFlood flood-opacity="0" result="BackgroundImageFix"/>
<feColorMatrix in="SourceAlpha" type="matrix" values="0 0 0 0 0 0 0 0 0 0 0 0 0 0 0 0 0 0 127 0" result="hardAlpha"/>
<feOffset dy="4"/>
<feGaussianBlur stdDeviation="2"/>
<feComposite in2="hardAlpha" operator="out"/>
<feColorMatrix type="matrix" values="0 0 0 0 0 0 0 0 0 0 0 0 0 0 0 0 0 0 0.25 0"/>
<feBlend mode="normal" in2="BackgroundImageFix" result="effect1_dropShadow_2_3"/>
<feBlend mode="normal" in="SourceGraphic" in2="effect1_dropShadow_2_3" result="shape"/>
</filter>
<filter id="filter2_f_2_3" x="556.748" y="-392.42" width="2585.59" height="1787.14" filterUnits="userSpaceOnUse" color-interpolation-filters="sRGB">
<feFlood flood-opacity="0" result="BackgroundImageFix"/>
<feBlend mode="normal" in="SourceGraphic" in2="BackgroundImageFix" result="shape"/>
<feGaussianBlur stdDeviation="152" result="effect1_foregroundBlur_2_3"/>
</filter>
<filter id="filter3_f_2_3" x="1313.16" y="24.0576" width="931.823" height="854.548" filterUnits="userSpaceOnUse" color-interpolation-filters="sRGB">
<feFlood flood-opacity="0" result="BackgroundImageFix"/>
<feBlend mode="normal" in="SourceGraphic" in2="BackgroundImageFix" result="shape"/>
<feGaussianBlur stdDeviation="152" result="effect1_foregroundBlur_2_3"/>
</filter>
<filter id="filter4_f_2_3" x="552.759" y="-794.157" width="497.823" height="918.729" filterUnits="userSpaceOnUse" color-interpolation-filters="sRGB">
<feFlood flood-opacity="0" result="BackgroundImageFix"/>
<feBlend mode="normal" in="SourceGraphic" in2="BackgroundImageFix" result="shape"/>
<feGaussianBlur stdDeviation="109.425" result="effect1_foregroundBlur_2_3"/>
</filter>
<filter id="filter5_f_2_3" x="-1666.96" y="-1178.42" width="2585.59" height="1787.14" filterUnits="userSpaceOnUse" color-interpolation-filters="sRGB">
<feFlood flood-opacity="0" result="BackgroundImageFix"/>
<feBlend mode="normal" in="SourceGraphic" in2="BackgroundImageFix" result="shape"/>
<feGaussianBlur stdDeviation="152" result="effect1_foregroundBlur_2_3"/>
</filter>
<filter id="filter6_f_2_3" x="-572.427" y="-1310.78" width="1009.18" height="1313.01" filterUnits="userSpaceOnUse" color-interpolation-filters="sRGB">
<feFlood flood-opacity="0" result="BackgroundImageFix"/>
<feBlend mode="normal" in="SourceGraphic" in2="BackgroundImageFix" result="shape"/>
<feGaussianBlur stdDeviation="152" result="effect1_foregroundBlur_2_3"/>
</filter>
<filter id="filter7_f_2_3" x="-794.421" y="-552.906" width="1253.53" height="1098.88" filterUnits="userSpaceOnUse" color-interpolation-filters="sRGB">
<feFlood flood-opacity="0" result="BackgroundImageFix"/>
<feBlend mode="normal" in="SourceGraphic" in2="BackgroundImageFix" result="shape"/>
<feGaussianBlur stdDeviation="152" result="effect1_foregroundBlur_2_3"/>
</filter>
<filter id="filter8_f_2_3" x="523.135" y="-98.9141" width="1526.15" height="1099.74" filterUnits="userSpaceOnUse" color-interpolation-filters="sRGB">
<feFlood flood-opacity="0" result="BackgroundImageFix"/>
<feBlend mode="normal" in="SourceGraphic" in2="BackgroundImageFix" result="shape"/>
<feGaussianBlur stdDeviation="152" result="effect1_foregroundBlur_2_3"/>
</filter>
<linearGradient id="paint0_linear_2_3" x1="991" y1="366" x2="943" y2="366" gradientUnits="userSpaceOnUse">
<stop stop-color="white"/>
<stop offset="1" stop-color="white" stop-opacity="0"/>
</linearGradient>
<linearGradient id="paint1_linear_2_3" x1="800" y1="54" x2="800" y2="318" gradientUnits="userSpaceOnUse">
<stop stop-color="#6E13B6"/>
<stop offset="1" stop-color="#300850"/>
</linearGradient>
<linearGradient id="paint2_linear_2_3" x1="670.5" y1="280" x2="670.5" y2="318" gradientUnits="userSpaceOnUse">
<stop stop-color="#B66AFF" stop-opacity="0"/>
<stop offset="1" stop-color="#B66AFF"/>
</linearGradient>
<linearGradient id="paint3_linear_2_3" x1="800.5" y1="299" x2="800.5" y2="318" gradientUnits="userSpaceOnUse">
<stop stop-color="#B66AFF" stop-opacity="0"/>
<stop offset="1" stop-color="#B66AFF"/>
</linearGradient>
<linearGradient id="paint4_linear_2_3" x1="540.5" y1="299" x2="540.5" y2="318" gradientUnits="userSpaceOnUse">
<stop stop-color="#B66AFF" stop-opacity="0"/>
<stop offset="1" stop-color="#B66AFF"/>
</linearGradient>
<linearGradient id="paint5_linear_2_3" x1="1060.5" y1="299" x2="1060.5" y2="318" gradientUnits="userSpaceOnUse">
<stop stop-color="#B66AFF" stop-opacity="0"/>
<stop offset="1" stop-color="#B66AFF"/>
</linearGradient>
<linearGradient id="paint6_linear_2_3" x1="930.5" y1="280" x2="930.5" y2="318" gradientUnits="userSpaceOnUse">
<stop stop-color="#B66AFF" stop-opacity="0"/>
<stop offset="1" stop-color="#B66AFF"/>
</linearGradient>
<linearGradient id="paint7_linear_2_3" x1="929.5" y1="92" x2="929.5" y2="54" gradientUnits="userSpaceOnUse">
<stop stop-color="#B66AFF" stop-opacity="0"/>
<stop offset="1" stop-color="#B66AFF"/>
</linearGradient>
<linearGradient id="paint8_linear_2_3" x1="799.5" y1="73" x2="799.5" y2="54" gradientUnits="userSpaceOnUse">
<stop stop-color="#B66AFF" stop-opacity="0"/>
<stop offset="1" stop-color="#B66AFF"/>
</linearGradient>
<linearGradient id="paint9_linear_2_3" x1="1059.5" y1="73" x2="1059.5" y2="54" gradientUnits="userSpaceOnUse">
<stop stop-color="#B66AFF" stop-opacity="0"/>
<stop offset="1" stop-color="#B66AFF"/>
</linearGradient>
<linearGradient id="paint10_linear_2_3" x1="539.5" y1="73" x2="539.5" y2="54" gradientUnits="userSpaceOnUse">
<stop stop-color="#B66AFF" stop-opacity="0"/>
<stop offset="1" stop-color="#B66AFF"/>
</linearGradient>
<linearGradient id="paint11_linear_2_3" x1="669.5" y1="92" x2="669.5" y2="54" gradientUnits="userSpaceOnUse">
<stop stop-color="#B66AFF" stop-opacity="0"/>
<stop offset="1" stop-color="#B66AFF"/>
</linearGradient>
<clipPath id="clip0_2_3">
<rect width="1600" height="10974" fill="white" transform="translate(0 -2219)"/>
</clipPath>
<clipPath id="clip1_2_3">
<rect width="1600" height="7519" fill="white" transform="translate(0 -2219)"/>
</clipPath>
<clipPath id="clip2_2_3">
<rect x="60" y="54" width="1480" height="264" rx="36" fill="white"/>
</clipPath>
</defs>
</svg>
