<svg width="390" height="367" viewBox="0 0 390 367" fill="none" xmlns="http://www.w3.org/2000/svg">
<path d="M248 5H322C333.046 5 342 13.9543 342 25V346C342 357.046 333.046 366 322 366H66C54.9543 366 46 357.046 46 346V25C46 13.9543 54.9543 5 66 5H140" stroke="#43325F"/>
<path d="M0 5H26C37.0457 5 46 13.9543 46 25V346C46 357.046 37.0457 366 26 366H0" stroke="#43325F"/>
<path d="M390 366H362C350.954 366 342 357.046 342 346V25C342 13.9543 350.954 5 362 5H390" stroke="#43325F"/>
<rect x="214" y="365.5" width="48" height="1" rx="0.5" fill="url(#paint0_linear_334_5082)"/>
<g clip-path="url(#clip0_334_5082)">
<rect x="20" y="54" width="350" height="264" rx="36" fill="url(#paint1_linear_334_5082)"/>
<g style="mix-blend-mode:lighten" filter="url(#filter0_f_334_5082)">
<ellipse cx="401.533" cy="331.5" rx="401.533" ry="331.5" transform="matrix(-0.999024 0.0441738 0.672913 0.739721 861.281 188)" fill="#9B5EFF"/>
</g>
<line x1="65.5" y1="318" x2="65.5" y2="280" stroke="url(#paint2_linear_334_5082)"/>
<line x1="195.5" y1="318" x2="195.5" y2="299" stroke="url(#paint3_linear_334_5082)"/>
<line x1="325.5" y1="318" x2="325.5" y2="280" stroke="url(#paint4_linear_334_5082)"/>
<line x1="326.5" y1="54" x2="326.5" y2="92" stroke="url(#paint5_linear_334_5082)"/>
<line x1="196.5" y1="54" x2="196.5" y2="73" stroke="url(#paint6_linear_334_5082)"/>
<line x1="66.5" y1="54" x2="66.5" y2="92" stroke="url(#paint7_linear_334_5082)"/>
</g>
<path opacity="0.6" d="M161.303 0.269531V9H159.967V0.269531H161.303ZM163.236 9V0.269531H164.777L168.064 5.4668C168.174 5.63867 168.297 5.84375 168.434 6.08203C168.57 6.32031 168.715 6.58984 168.867 6.89062C169.02 7.1875 169.17 7.51172 169.318 7.86328H169.154C169.119 7.53125 169.092 7.20312 169.072 6.87891C169.057 6.55078 169.045 6.24414 169.037 5.95898C169.029 5.67383 169.025 5.43359 169.025 5.23828V0.269531H170.379V9H168.832L165.885 4.35352C165.729 4.09961 165.574 3.84375 165.422 3.58594C165.273 3.32812 165.107 3.03125 164.924 2.69531C164.744 2.35547 164.523 1.94336 164.262 1.45898H164.473C164.492 1.88867 164.512 2.29102 164.531 2.66602C164.551 3.03711 164.564 3.36719 164.572 3.65625C164.584 3.94141 164.59 4.16992 164.59 4.3418V9H163.236ZM174.809 9L171.65 0.269531H173.092L174.791 5.12695C174.916 5.50195 175.059 5.96094 175.219 6.50391C175.383 7.04688 175.568 7.6875 175.775 8.42578H175.5C175.703 7.67188 175.883 7.02734 176.039 6.49219C176.199 5.95703 176.34 5.50195 176.461 5.12695L178.113 0.269531H179.561L176.443 9H174.809ZM180.826 9V0.269531H186.322V1.41797H182.162V4.01953H186.023V5.16211H182.162V7.85156H186.357V9H180.826ZM190.998 9.14648C190.346 9.14648 189.779 9.04297 189.299 8.83594C188.818 8.62891 188.441 8.33398 188.168 7.95117C187.898 7.56445 187.75 7.10547 187.723 6.57422H189.064C189.092 6.89062 189.193 7.15234 189.369 7.35938C189.549 7.56641 189.781 7.7207 190.066 7.82227C190.352 7.92383 190.66 7.97461 190.992 7.97461C191.363 7.97461 191.691 7.91797 191.977 7.80469C192.266 7.6875 192.494 7.52344 192.662 7.3125C192.83 7.09766 192.914 6.84961 192.914 6.56836C192.914 6.31445 192.84 6.10742 192.691 5.94727C192.547 5.7832 192.35 5.64844 192.1 5.54297C191.854 5.43359 191.572 5.33789 191.256 5.25586L190.236 4.97461C189.521 4.7832 188.963 4.5 188.561 4.125C188.162 3.75 187.963 3.26367 187.963 2.66602C187.963 2.16211 188.098 1.72266 188.367 1.34766C188.641 0.96875 189.01 0.675781 189.475 0.46875C189.943 0.257812 190.471 0.152344 191.057 0.152344C191.654 0.152344 192.18 0.257812 192.633 0.46875C193.09 0.675781 193.447 0.960938 193.705 1.32422C193.967 1.6875 194.104 2.10156 194.115 2.56641H192.814C192.771 2.16797 192.586 1.85938 192.258 1.64062C191.934 1.42188 191.523 1.3125 191.027 1.3125C190.676 1.3125 190.369 1.36719 190.107 1.47656C189.85 1.58594 189.648 1.73828 189.504 1.93359C189.363 2.125 189.293 2.34375 189.293 2.58984C189.293 2.86719 189.377 3.0918 189.545 3.26367C189.717 3.43164 189.924 3.56641 190.166 3.66797C190.412 3.76562 190.646 3.84375 190.869 3.90234L191.719 4.125C191.996 4.19531 192.281 4.29102 192.574 4.41211C192.871 4.5293 193.145 4.68359 193.395 4.875C193.645 5.0625 193.846 5.29688 193.998 5.57812C194.154 5.85547 194.232 6.19141 194.232 6.58594C194.232 7.07812 194.105 7.51758 193.852 7.9043C193.598 8.29102 193.229 8.5957 192.744 8.81836C192.264 9.03711 191.682 9.14648 190.998 9.14648ZM195.387 1.41797V0.269531H202.166V1.41797H199.453V9H198.111V1.41797H195.387ZM206.93 9.11719C206.176 9.11719 205.5 8.93945 204.902 8.58398C204.309 8.22461 203.84 7.71094 203.496 7.04297C203.156 6.37109 202.986 5.57031 202.986 4.64062C202.986 3.70703 203.156 2.90625 203.496 2.23828C203.84 1.56641 204.309 1.05078 204.902 0.691406C205.5 0.332031 206.176 0.152344 206.93 0.152344C207.684 0.152344 208.355 0.332031 208.945 0.691406C209.539 1.05078 210.006 1.56641 210.346 2.23828C210.689 2.90625 210.861 3.70703 210.861 4.64062C210.861 5.57031 210.689 6.37109 210.346 7.04297C210.006 7.71094 209.539 8.22461 208.945 8.58398C208.355 8.93945 207.684 9.11719 206.93 9.11719ZM206.93 7.89844C207.426 7.89844 207.869 7.77539 208.26 7.5293C208.654 7.2793 208.965 6.91211 209.191 6.42773C209.422 5.93945 209.537 5.34375 209.537 4.64062C209.537 3.92969 209.422 3.33203 209.191 2.84766C208.965 2.35938 208.654 1.99219 208.26 1.74609C207.869 1.49609 207.426 1.37109 206.93 1.37109C206.43 1.37109 205.982 1.49609 205.588 1.74609C205.193 1.99609 204.881 2.36523 204.65 2.85352C204.424 3.33789 204.311 3.93359 204.311 4.64062C204.311 5.34375 204.424 5.9375 204.65 6.42188C204.881 6.90625 205.193 7.27344 205.588 7.52344C205.982 7.77344 206.43 7.89844 206.93 7.89844ZM212.49 9V0.269531H215.619C216.291 0.269531 216.852 0.386719 217.301 0.621094C217.75 0.851562 218.086 1.17383 218.309 1.58789C218.531 2.00195 218.643 2.47656 218.643 3.01172C218.643 3.55078 218.529 4.02344 218.303 4.42969C218.08 4.83203 217.744 5.14453 217.295 5.36719C216.846 5.58984 216.283 5.70117 215.607 5.70117H213.258V4.55859H215.479C215.908 4.55859 216.254 4.49805 216.516 4.37695C216.781 4.25195 216.977 4.07422 217.102 3.84375C217.227 3.61328 217.289 3.33594 217.289 3.01172C217.289 2.68359 217.227 2.40039 217.102 2.16211C216.977 1.92383 216.781 1.74023 216.516 1.61133C216.25 1.47852 215.9 1.41211 215.467 1.41211H213.826V9H212.49ZM217.453 9L215.338 5.05664H216.82L218.971 9H217.453ZM223.201 9.14648C222.549 9.14648 221.982 9.04297 221.502 8.83594C221.021 8.62891 220.645 8.33398 220.371 7.95117C220.102 7.56445 219.953 7.10547 219.926 6.57422H221.268C221.295 6.89062 221.396 7.15234 221.572 7.35938C221.752 7.56641 221.984 7.7207 222.27 7.82227C222.555 7.92383 222.863 7.97461 223.195 7.97461C223.566 7.97461 223.895 7.91797 224.18 7.80469C224.469 7.6875 224.697 7.52344 224.865 7.3125C225.033 7.09766 225.117 6.84961 225.117 6.56836C225.117 6.31445 225.043 6.10742 224.895 5.94727C224.75 5.7832 224.553 5.64844 224.303 5.54297C224.057 5.43359 223.775 5.33789 223.459 5.25586L222.439 4.97461C221.725 4.7832 221.166 4.5 220.764 4.125C220.365 3.75 220.166 3.26367 220.166 2.66602C220.166 2.16211 220.301 1.72266 220.57 1.34766C220.844 0.96875 221.213 0.675781 221.678 0.46875C222.146 0.257812 222.674 0.152344 223.26 0.152344C223.857 0.152344 224.383 0.257812 224.836 0.46875C225.293 0.675781 225.65 0.960938 225.908 1.32422C226.17 1.6875 226.307 2.10156 226.318 2.56641H225.018C224.975 2.16797 224.789 1.85938 224.461 1.64062C224.137 1.42188 223.727 1.3125 223.23 1.3125C222.879 1.3125 222.572 1.36719 222.311 1.47656C222.053 1.58594 221.852 1.73828 221.707 1.93359C221.566 2.125 221.496 2.34375 221.496 2.58984C221.496 2.86719 221.58 3.0918 221.748 3.26367C221.92 3.43164 222.127 3.56641 222.369 3.66797C222.615 3.76562 222.85 3.84375 223.072 3.90234L223.922 4.125C224.199 4.19531 224.484 4.29102 224.777 4.41211C225.074 4.5293 225.348 4.68359 225.598 4.875C225.848 5.0625 226.049 5.29688 226.201 5.57812C226.357 5.85547 226.436 6.19141 226.436 6.58594C226.436 7.07812 226.309 7.51758 226.055 7.9043C225.801 8.29102 225.432 8.5957 224.947 8.81836C224.467 9.03711 223.885 9.14648 223.201 9.14648Z" fill="white"/>
<defs>
<filter id="filter0_f_334_5082" x="-79.8647" y="-98.9141" width="1526.15" height="1099.74" filterUnits="userSpaceOnUse" color-interpolation-filters="sRGB">
<feFlood flood-opacity="0" result="BackgroundImageFix"/>
<feBlend mode="normal" in="SourceGraphic" in2="BackgroundImageFix" result="shape"/>
<feGaussianBlur stdDeviation="152" result="effect1_foregroundBlur_334_5082"/>
</filter>
<linearGradient id="paint0_linear_334_5082" x1="262" y1="366" x2="214" y2="366" gradientUnits="userSpaceOnUse">
<stop stop-color="white"/>
<stop offset="1" stop-color="white" stop-opacity="0"/>
</linearGradient>
<linearGradient id="paint1_linear_334_5082" x1="195" y1="54" x2="195" y2="318" gradientUnits="userSpaceOnUse">
<stop stop-color="#6E13B6"/>
<stop offset="1" stop-color="#300850"/>
</linearGradient>
<linearGradient id="paint2_linear_334_5082" x1="66.5" y1="280" x2="66.5" y2="318" gradientUnits="userSpaceOnUse">
<stop stop-color="#B66AFF" stop-opacity="0"/>
<stop offset="1" stop-color="#B66AFF"/>
</linearGradient>
<linearGradient id="paint3_linear_334_5082" x1="196.5" y1="299" x2="196.5" y2="318" gradientUnits="userSpaceOnUse">
<stop stop-color="#B66AFF" stop-opacity="0"/>
<stop offset="1" stop-color="#B66AFF"/>
</linearGradient>
<linearGradient id="paint4_linear_334_5082" x1="326.5" y1="280" x2="326.5" y2="318" gradientUnits="userSpaceOnUse">
<stop stop-color="#B66AFF" stop-opacity="0"/>
<stop offset="1" stop-color="#B66AFF"/>
</linearGradient>
<linearGradient id="paint5_linear_334_5082" x1="325.5" y1="92" x2="325.5" y2="54" gradientUnits="userSpaceOnUse">
<stop stop-color="#B66AFF" stop-opacity="0"/>
<stop offset="1" stop-color="#B66AFF"/>
</linearGradient>
<linearGradient id="paint6_linear_334_5082" x1="195.5" y1="73" x2="195.5" y2="54" gradientUnits="userSpaceOnUse">
<stop stop-color="#B66AFF" stop-opacity="0"/>
<stop offset="1" stop-color="#B66AFF"/>
</linearGradient>
<linearGradient id="paint7_linear_334_5082" x1="65.5" y1="92" x2="65.5" y2="54" gradientUnits="userSpaceOnUse">
<stop stop-color="#B66AFF" stop-opacity="0"/>
<stop offset="1" stop-color="#B66AFF"/>
</linearGradient>
<clipPath id="clip0_334_5082">
<rect x="20" y="54" width="350" height="264" rx="36" fill="white"/>
</clipPath>
</defs>
</svg>
