<svg width="1600" height="367" viewBox="0 0 1600 367" fill="none" xmlns="http://www.w3.org/2000/svg">
<path d="M722.25 5H644.5H489H198C186.954 5 178 13.9543 178 25V346C178 357.046 186.954 366 198 366H1402C1413.05 366 1422 357.046 1422 346V25C1422 13.9543 1413.05 5 1402 5H1111H955.5H877.75" stroke="#43325F"/>
<path d="M0 5H158C169.046 5 178 13.9543 178 25V346C178 357.046 169.046 366 158 366H0" stroke="#43325F"/>
<path d="M1600 366H1442C1430.95 366 1422 357.046 1422 346V25C1422 13.9543 1430.95 5 1442 5H1600" stroke="#43325F"/>
<rect x="943" y="365.5" width="48" height="1" rx="0.5" fill="url(#paint0_linear_1_799)"/>
<g clip-path="url(#clip0_1_799)">
<rect x="60" y="54" width="1480" height="264" rx="36" fill="url(#paint1_linear_1_799)"/>
<g style="mix-blend-mode:lighten" filter="url(#filter0_f_1_799)">
<ellipse cx="233.5" cy="331.5" rx="233.5" ry="331.5" transform="matrix(-0.999024 0.0441738 0.672913 0.739721 -157.456 -259)" fill="#FF8E5E"/>
</g>
<g style="mix-blend-mode:lighten" filter="url(#filter1_f_1_799)">
<ellipse cx="401.533" cy="331.5" rx="401.533" ry="331.5" transform="matrix(-0.999024 0.0441738 0.672913 0.739721 1464.28 188)" fill="#9B5EFF"/>
</g>
<line x1="669.5" y1="318" x2="669.5" y2="280" stroke="url(#paint2_linear_1_799)"/>
<line x1="799.5" y1="318" x2="799.5" y2="299" stroke="url(#paint3_linear_1_799)"/>
<line x1="539.5" y1="318" x2="539.5" y2="299" stroke="url(#paint4_linear_1_799)"/>
<line x1="1059.5" y1="318" x2="1059.5" y2="299" stroke="url(#paint5_linear_1_799)"/>
<line x1="929.5" y1="318" x2="929.5" y2="280" stroke="url(#paint6_linear_1_799)"/>
<line x1="930.5" y1="54" x2="930.5" y2="92" stroke="url(#paint7_linear_1_799)"/>
<line x1="800.5" y1="54" x2="800.5" y2="73" stroke="url(#paint8_linear_1_799)"/>
<line x1="1060.5" y1="54" x2="1060.5" y2="73" stroke="url(#paint9_linear_1_799)"/>
<line x1="540.5" y1="54" x2="540.5" y2="73" stroke="url(#paint10_linear_1_799)"/>
<line x1="670.5" y1="54" x2="670.5" y2="92" stroke="url(#paint11_linear_1_799)"/>
</g>
<path d="M767.276 0.272727V9H765.959V0.272727H767.276ZM776.237 0.272727V9H775.027L770.591 2.59943H770.51V9H769.193V0.272727H770.412L774.852 6.68182H774.933V0.272727H776.237ZM778.921 0.272727L781.35 7.38068H781.448L783.877 0.272727H785.3L782.159 9H780.638L777.498 0.272727H778.921ZM786.56 9V0.272727H792.032V1.40625H787.877V4.06534H791.746V5.1946H787.877V7.86648H792.083V9H786.56ZM798.551 2.56534C798.505 2.16193 798.318 1.84943 797.988 1.62784C797.659 1.40341 797.244 1.29119 796.744 1.29119C796.386 1.29119 796.076 1.34801 795.815 1.46165C795.554 1.57244 795.35 1.72585 795.206 1.92188C795.064 2.11506 794.993 2.33523 794.993 2.58239C794.993 2.78977 795.041 2.96875 795.137 3.11932C795.237 3.26989 795.366 3.39631 795.525 3.49858C795.687 3.59801 795.86 3.68182 796.045 3.75C796.23 3.81534 796.407 3.86932 796.578 3.91193L797.43 4.13352C797.708 4.2017 797.994 4.29403 798.287 4.41051C798.579 4.52699 798.85 4.6804 799.1 4.87074C799.35 5.06108 799.552 5.29688 799.706 5.57812C799.862 5.85938 799.94 6.19602 799.94 6.58807C799.94 7.08239 799.812 7.52131 799.556 7.90483C799.304 8.28835 798.936 8.59091 798.453 8.8125C797.973 9.03409 797.392 9.14489 796.71 9.14489C796.056 9.14489 795.491 9.04119 795.014 8.83381C794.537 8.62642 794.163 8.33239 793.893 7.9517C793.623 7.56818 793.474 7.11364 793.446 6.58807H794.767C794.792 6.90341 794.895 7.16619 795.074 7.37642C795.255 7.58381 795.487 7.73864 795.768 7.84091C796.052 7.94034 796.363 7.99006 796.701 7.99006C797.074 7.99006 797.404 7.93182 797.694 7.81534C797.987 7.69602 798.217 7.53125 798.385 7.32102C798.552 7.10795 798.636 6.85937 798.636 6.57528C798.636 6.31676 798.562 6.10511 798.414 5.94034C798.27 5.77557 798.072 5.6392 797.822 5.53125C797.575 5.4233 797.295 5.32812 796.983 5.24574L795.951 4.96449C795.252 4.77415 794.699 4.49432 794.289 4.125C793.883 3.75568 793.68 3.26705 793.68 2.65909C793.68 2.15625 793.816 1.71733 794.089 1.34233C794.362 0.967329 794.731 0.676136 795.197 0.46875C795.663 0.258523 796.189 0.153409 796.774 0.153409C797.365 0.153409 797.886 0.257102 798.338 0.464489C798.792 0.671875 799.15 0.957386 799.412 1.32102C799.673 1.68182 799.809 2.09659 799.821 2.56534H798.551ZM801.083 1.40625V0.272727H807.837V1.40625H805.114V9H803.802V1.40625H801.083ZM816.536 4.63636C816.536 5.56818 816.365 6.36932 816.025 7.03977C815.684 7.70739 815.216 8.22159 814.623 8.58239C814.032 8.94034 813.36 9.11932 812.607 9.11932C811.851 9.11932 811.176 8.94034 810.583 8.58239C809.992 8.22159 809.526 7.70597 809.185 7.03551C808.844 6.36506 808.674 5.56534 808.674 4.63636C808.674 3.70455 808.844 2.90483 809.185 2.23722C809.526 1.56676 809.992 1.05256 810.583 0.694602C811.176 0.333807 811.851 0.153409 812.607 0.153409C813.36 0.153409 814.032 0.333807 814.623 0.694602C815.216 1.05256 815.684 1.56676 816.025 2.23722C816.365 2.90483 816.536 3.70455 816.536 4.63636ZM815.232 4.63636C815.232 3.92614 815.117 3.32812 814.887 2.84233C814.659 2.35369 814.347 1.98438 813.949 1.73438C813.554 1.48153 813.107 1.35511 812.607 1.35511C812.104 1.35511 811.655 1.48153 811.26 1.73438C810.865 1.98438 810.553 2.35369 810.323 2.84233C810.096 3.32812 809.982 3.92614 809.982 4.63636C809.982 5.34659 810.096 5.94602 810.323 6.43466C810.553 6.92045 810.865 7.28977 811.26 7.54261C811.655 7.79261 812.104 7.91761 812.607 7.91761C813.107 7.91761 813.554 7.79261 813.949 7.54261C814.347 7.28977 814.659 6.92045 814.887 6.43466C815.117 5.94602 815.232 5.34659 815.232 4.63636ZM818.178 9V0.272727H821.288C821.964 0.272727 822.526 0.389204 822.972 0.622159C823.42 0.855113 823.756 1.17756 823.977 1.58949C824.199 1.99858 824.31 2.47159 824.31 3.00852C824.31 3.54261 824.197 4.01278 823.973 4.41903C823.751 4.82244 823.416 5.13636 822.967 5.3608C822.521 5.58523 821.96 5.69744 821.284 5.69744H818.928V4.56392H821.165C821.591 4.56392 821.938 4.50284 822.205 4.38068C822.474 4.25852 822.672 4.08097 822.797 3.84801C822.922 3.61506 822.984 3.33523 822.984 3.00852C822.984 2.67898 822.92 2.39347 822.793 2.15199C822.668 1.91051 822.47 1.72585 822.2 1.59801C821.933 1.46733 821.582 1.40199 821.148 1.40199H819.494V9H818.178ZM822.486 5.0625L824.642 9H823.142L821.028 5.0625H822.486ZM830.672 2.56534C830.626 2.16193 830.439 1.84943 830.109 1.62784C829.78 1.40341 829.365 1.29119 828.865 1.29119C828.507 1.29119 828.197 1.34801 827.936 1.46165C827.675 1.57244 827.472 1.72585 827.327 1.92188C827.185 2.11506 827.114 2.33523 827.114 2.58239C827.114 2.78977 827.162 2.96875 827.259 3.11932C827.358 3.26989 827.487 3.39631 827.646 3.49858C827.808 3.59801 827.982 3.68182 828.166 3.75C828.351 3.81534 828.528 3.86932 828.699 3.91193L829.551 4.13352C829.83 4.2017 830.115 4.29403 830.408 4.41051C830.7 4.52699 830.972 4.6804 831.222 4.87074C831.472 5.06108 831.673 5.29688 831.827 5.57812C831.983 5.85938 832.061 6.19602 832.061 6.58807C832.061 7.08239 831.933 7.52131 831.678 7.90483C831.425 8.28835 831.057 8.59091 830.574 8.8125C830.094 9.03409 829.513 9.14489 828.831 9.14489C828.178 9.14489 827.612 9.04119 827.135 8.83381C826.658 8.62642 826.284 8.33239 826.014 7.9517C825.744 7.56818 825.595 7.11364 825.567 6.58807H826.888C826.913 6.90341 827.016 7.16619 827.195 7.37642C827.376 7.58381 827.608 7.73864 827.889 7.84091C828.173 7.94034 828.484 7.99006 828.822 7.99006C829.195 7.99006 829.526 7.93182 829.815 7.81534C830.108 7.69602 830.338 7.53125 830.506 7.32102C830.673 7.10795 830.757 6.85937 830.757 6.57528C830.757 6.31676 830.683 6.10511 830.536 5.94034C830.391 5.77557 830.193 5.6392 829.943 5.53125C829.696 5.4233 829.416 5.32812 829.104 5.24574L828.072 4.96449C827.374 4.77415 826.82 4.49432 826.411 4.125C826.004 3.75568 825.801 3.26705 825.801 2.65909C825.801 2.15625 825.938 1.71733 826.21 1.34233C826.483 0.967329 826.852 0.676136 827.318 0.46875C827.784 0.258523 828.31 0.153409 828.895 0.153409C829.486 0.153409 830.007 0.257102 830.459 0.464489C830.913 0.671875 831.271 0.957386 831.533 1.32102C831.794 1.68182 831.93 2.09659 831.942 2.56534H830.672Z" fill="#C4C4C4"/>
<defs>
<filter id="filter0_f_1_799" x="-794.421" y="-552.906" width="1253.53" height="1098.88" filterUnits="userSpaceOnUse" color-interpolation-filters="sRGB">
<feFlood flood-opacity="0" result="BackgroundImageFix"/>
<feBlend mode="normal" in="SourceGraphic" in2="BackgroundImageFix" result="shape"/>
<feGaussianBlur stdDeviation="152" result="effect1_foregroundBlur_1_799"/>
</filter>
<filter id="filter1_f_1_799" x="523.135" y="-98.9141" width="1526.15" height="1099.74" filterUnits="userSpaceOnUse" color-interpolation-filters="sRGB">
<feFlood flood-opacity="0" result="BackgroundImageFix"/>
<feBlend mode="normal" in="SourceGraphic" in2="BackgroundImageFix" result="shape"/>
<feGaussianBlur stdDeviation="152" result="effect1_foregroundBlur_1_799"/>
</filter>
<linearGradient id="paint0_linear_1_799" x1="991" y1="366" x2="943" y2="366" gradientUnits="userSpaceOnUse">
<stop stop-color="white"/>
<stop offset="1" stop-color="white" stop-opacity="0"/>
</linearGradient>
<linearGradient id="paint1_linear_1_799" x1="800" y1="54" x2="800" y2="318" gradientUnits="userSpaceOnUse">
<stop stop-color="#6E13B6"/>
<stop offset="1" stop-color="#300850"/>
</linearGradient>
<linearGradient id="paint2_linear_1_799" x1="670.5" y1="280" x2="670.5" y2="318" gradientUnits="userSpaceOnUse">
<stop stop-color="#B66AFF" stop-opacity="0"/>
<stop offset="1" stop-color="#B66AFF"/>
</linearGradient>
<linearGradient id="paint3_linear_1_799" x1="800.5" y1="299" x2="800.5" y2="318" gradientUnits="userSpaceOnUse">
<stop stop-color="#B66AFF" stop-opacity="0"/>
<stop offset="1" stop-color="#B66AFF"/>
</linearGradient>
<linearGradient id="paint4_linear_1_799" x1="540.5" y1="299" x2="540.5" y2="318" gradientUnits="userSpaceOnUse">
<stop stop-color="#B66AFF" stop-opacity="0"/>
<stop offset="1" stop-color="#B66AFF"/>
</linearGradient>
<linearGradient id="paint5_linear_1_799" x1="1060.5" y1="299" x2="1060.5" y2="318" gradientUnits="userSpaceOnUse">
<stop stop-color="#B66AFF" stop-opacity="0"/>
<stop offset="1" stop-color="#B66AFF"/>
</linearGradient>
<linearGradient id="paint6_linear_1_799" x1="930.5" y1="280" x2="930.5" y2="318" gradientUnits="userSpaceOnUse">
<stop stop-color="#B66AFF" stop-opacity="0"/>
<stop offset="1" stop-color="#B66AFF"/>
</linearGradient>
<linearGradient id="paint7_linear_1_799" x1="929.5" y1="92" x2="929.5" y2="54" gradientUnits="userSpaceOnUse">
<stop stop-color="#B66AFF" stop-opacity="0"/>
<stop offset="1" stop-color="#B66AFF"/>
</linearGradient>
<linearGradient id="paint8_linear_1_799" x1="799.5" y1="73" x2="799.5" y2="54" gradientUnits="userSpaceOnUse">
<stop stop-color="#B66AFF" stop-opacity="0"/>
<stop offset="1" stop-color="#B66AFF"/>
</linearGradient>
<linearGradient id="paint9_linear_1_799" x1="1059.5" y1="73" x2="1059.5" y2="54" gradientUnits="userSpaceOnUse">
<stop stop-color="#B66AFF" stop-opacity="0"/>
<stop offset="1" stop-color="#B66AFF"/>
</linearGradient>
<linearGradient id="paint10_linear_1_799" x1="539.5" y1="73" x2="539.5" y2="54" gradientUnits="userSpaceOnUse">
<stop stop-color="#B66AFF" stop-opacity="0"/>
<stop offset="1" stop-color="#B66AFF"/>
</linearGradient>
<linearGradient id="paint11_linear_1_799" x1="669.5" y1="92" x2="669.5" y2="54" gradientUnits="userSpaceOnUse">
<stop stop-color="#B66AFF" stop-opacity="0"/>
<stop offset="1" stop-color="#B66AFF"/>
</linearGradient>
<clipPath id="clip0_1_799">
<rect x="60" y="54" width="1480" height="264" rx="36" fill="white"/>
</clipPath>
</defs>
</svg>
