<svg width="52" height="52" viewBox="0 0 52 52" fill="none" xmlns="http://www.w3.org/2000/svg">
<path d="M16.6404 1.37891L16.1204 1.67953L9.88035 5.28906L9.36035 5.58969V6.18891V35.0083V35.6075L9.88035 35.9081L34.8404 50.3239L35.3604 50.6245L35.8804 50.3239L42.1203 46.7144L42.6404 46.4137V45.8145V16.9952V16.3959L42.1203 16.0953L17.1604 1.67953L16.6404 1.37891ZM16.6404 2.88203L41.0804 16.9952L35.3604 20.298L10.9204 6.18891L16.6404 2.88203ZM10.6604 6.63984L35.1004 20.7489V48.9711L10.6604 34.858V6.63984ZM15.58 13.733C15.5414 13.7361 15.5039 13.7479 15.4704 13.7675L14.4304 14.3667C14.3908 14.3896 14.3579 14.4224 14.3351 14.462C14.3123 14.5016 14.3003 14.5465 14.3004 14.5922V15.7947C14.3003 15.8403 14.3122 15.8851 14.3349 15.9247L15.3749 17.7264C15.398 17.7653 15.4309 17.7975 15.4704 17.8198L16.5104 18.4211C16.5499 18.4439 16.5947 18.4559 16.6404 18.4559C16.686 18.4559 16.7308 18.4439 16.7704 18.4211L17.8104 17.8198C17.8496 17.7972 17.8823 17.7646 17.9051 17.7254C17.9279 17.6862 17.94 17.6418 17.9404 17.5964V16.3939C17.9404 16.3483 17.9285 16.3035 17.9058 16.2639L16.8658 14.4622C16.843 14.4225 16.81 14.3896 16.7704 14.3667L15.7304 13.7675C15.6849 13.7411 15.6325 13.729 15.58 13.733ZM15.6004 14.2936L16.4494 14.7831L17.4204 16.463V17.4461L16.6404 17.895L15.7913 17.4055L14.8204 15.7236V14.7425L15.6004 14.2936ZM41.3404 17.4461V45.6642L35.6203 48.9711V20.7489L41.3404 17.4461ZM14.54 19.1361C14.4747 19.1412 14.4136 19.1709 14.3692 19.2191C14.3247 19.2673 14.3002 19.3305 14.3004 19.3961V32.6073C14.3003 32.653 14.3123 32.6979 14.3351 32.7375C14.3579 32.7771 14.3908 32.81 14.4304 32.8328L17.5504 34.6325C17.5899 34.6553 17.6348 34.6673 17.6804 34.6673C17.7261 34.6673 17.7709 34.6553 17.8105 34.6324C17.85 34.6095 17.8828 34.5767 17.9056 34.5371C17.9284 34.4976 17.9404 34.4527 17.9404 34.407V21.1978C17.9404 21.1521 17.9284 21.1072 17.9056 21.0676C17.8828 21.0281 17.8499 20.9952 17.8104 20.9723L14.6904 19.1706C14.6526 19.1489 14.61 19.137 14.5664 19.1361C14.5576 19.1356 14.5488 19.1356 14.54 19.1361ZM14.8204 19.847L17.4204 21.3481V33.9581L14.8204 32.457V19.847ZM19.74 22.1383C19.6747 22.1434 19.6136 22.173 19.5692 22.2213C19.5247 22.2695 19.5002 22.3327 19.5004 22.3983V35.6095C19.5003 35.6552 19.5123 35.7001 19.5351 35.7397C19.5579 35.7793 19.5908 35.8122 19.6304 35.835L22.7504 37.6347C22.7898 37.6574 22.8344 37.6694 22.8799 37.6695C22.9254 37.6696 22.9701 37.6577 23.0096 37.6351C23.0491 37.6125 23.0819 37.5799 23.1049 37.5406C23.1278 37.5014 23.14 37.4567 23.1404 37.4112V29.1542L23.9204 28.7033L26.8494 30.3953L27.8204 32.0752V40.4114C27.8203 40.4571 27.8323 40.502 27.8551 40.5416C27.8779 40.5812 27.9108 40.614 27.9504 40.6369L31.0704 42.4386C31.1099 42.4614 31.1548 42.4734 31.2004 42.4734C31.2461 42.4734 31.2909 42.4613 31.3305 42.4385C31.37 42.4156 31.4028 42.3828 31.4256 42.3432C31.4484 42.3037 31.4604 42.2588 31.4604 42.2131V31.4048C31.4604 31.3592 31.4485 31.3144 31.4258 31.2748L29.3458 27.6734C29.323 27.6338 29.29 27.6008 29.2504 27.578L25.0904 25.177C25.0508 25.1542 25.006 25.1422 24.9604 25.1422C24.9147 25.1422 24.8699 25.1542 24.8304 25.177L23.1404 26.152V24.2C23.1404 24.1543 23.1284 24.1094 23.1056 24.0698C23.0828 24.0302 23.0499 23.9974 23.0104 23.9745L19.8904 22.1748C19.8528 22.1524 19.8102 22.1399 19.7664 22.1383C19.7576 22.1378 19.7488 22.1378 19.74 22.1383ZM20.0204 22.8492L22.6204 24.3503V26.6009C22.6203 26.6466 22.6323 26.6915 22.6551 26.731C22.6779 26.7706 22.7107 26.8035 22.7502 26.8263C22.7898 26.8492 22.8346 26.8612 22.8803 26.8612C22.9259 26.8612 22.9708 26.8492 23.0104 26.8264L24.9604 25.7011L28.9294 27.9944L30.9404 31.4759V41.7622L28.3404 40.2611V32.0061C28.3404 31.9605 28.3285 31.9156 28.3058 31.8761L27.2658 30.0744C27.243 30.0347 27.21 30.0018 27.1704 29.9789L24.0504 28.1772C24.0108 28.1544 23.966 28.1424 23.9204 28.1424C23.8747 28.1424 23.8299 28.1544 23.7904 28.1772L22.7504 28.7784C22.7108 28.8013 22.6779 28.8342 22.6551 28.8737C22.6323 28.9133 22.6203 28.9582 22.6204 29.0039V36.9603L20.0204 35.4592V22.8492Z" fill="white"/>
</svg>
