<svg width="20" height="20" viewBox="0 0 20 20" fill="none" xmlns="http://www.w3.org/2000/svg">
<path fill-rule="evenodd" clip-rule="evenodd" d="M9 1.33333L16.0066 0.165565L16.0102 0.16496L16.8911 0.0181414L16.8946 0.0175687L17 0L17.0034 0.00429276C17.039 0.00143329 17.0746 0 17.1103 0H17.1528C18.173 0 19 0.826987 19 1.84713V18.1701C19 19.1807 18.1807 20 17.17 20H17.1394C17.0942 20 17.049 19.998 17.0041 19.9939L17 20L16.8667 19.975C16.8655 19.9748 16.8642 19.9745 16.8629 19.9743L15.9227 19.798C15.9215 19.7978 15.9202 19.7975 15.919 19.7973L9 18.5L15.919 17.2027C15.9202 17.2025 15.9215 17.2022 15.9227 17.202C16.5473 17.0849 17 16.5395 17 15.904V3.67008C17 3.09105 16.5814 2.5969 16.0102 2.50171L16.0067 2.50111L9 1.33333Z" fill="white"/>
<path d="M13.604 8.80922C14.5207 9.33845 14.5207 10.6615 13.604 11.1908L8.729 14.0054C7.81234 14.5346 6.6665 13.8731 6.6665 12.8146L6.6665 7.18542C6.6665 6.12694 7.81234 5.46539 8.729 5.99463L13.604 8.80922Z" fill="white"/>
<path d="M1 10.0003L9 8.66699V11.3337L1 10.0003Z" fill="white"/>
</svg>
