<svg width="24" height="24" viewBox="0 0 24 24" fill="none" xmlns="http://www.w3.org/2000/svg">
<path d="M1 6.5C1 5.67157 1.67157 5 2.5 5H8.62494C9.203 5 9.77575 5.1103 10.3125 5.32499C11.3958 5.75831 12.6042 5.75831 13.6875 5.32499C14.2242 5.1103 14.797 5 15.3751 5H21.5C22.3284 5 23 5.67157 23 6.5C23 7.32843 22.3284 8 21.5 8H15.3751C14.797 8 14.2242 7.8897 13.6875 7.67501C12.6042 7.24169 11.3958 7.24169 10.3125 7.67501C9.77575 7.8897 9.203 8 8.62494 8H2.5C1.67157 8 1 7.32843 1 6.5Z" fill="white"/>
<path d="M1 12.5C1 11.6716 1.67157 11 2.5 11H8.62494C9.203 11 9.77575 11.1103 10.3125 11.325C11.3958 11.7583 12.6042 11.7583 13.6875 11.325C14.2242 11.1103 14.797 11 15.3751 11H21.5C22.3284 11 23 11.6716 23 12.5C23 13.3284 22.3284 14 21.5 14H15.3751C14.797 14 14.2242 13.8897 13.6875 13.675C12.6042 13.2417 11.3958 13.2417 10.3125 13.675C9.77575 13.8897 9.203 14 8.62494 14H2.5C1.67157 14 1 13.3284 1 12.5Z" fill="white"/>
<path d="M1 18.5C1 17.6716 1.67157 17 2.5 17H8.62494C9.203 17 9.77575 17.1103 10.3125 17.325C11.3958 17.7583 12.6042 17.7583 13.6875 17.325C14.2242 17.1103 14.797 17 15.3751 17H21.5C22.3284 17 23 17.6716 23 18.5C23 19.3284 22.3284 20 21.5 20H15.3751C14.797 20 14.2242 19.8897 13.6875 19.675C12.6042 19.2417 11.3958 19.2417 10.3125 19.675C9.77575 19.8897 9.203 20 8.62494 20H2.5C1.67157 20 1 19.3284 1 18.5Z" fill="white"/>
</svg>
