<svg width="390" height="411" viewBox="0 0 390 411" fill="none" xmlns="http://www.w3.org/2000/svg">
<path d="M849.5 157C834 151.001 788 147.999 766 147.999C714 146.096 665.8 159.799 599 194.199C532.2 228.599 417.833 223.199 369 216.199" stroke="url(#paint0_linear_334_7620)"/>
<path d="M-310 135C-272.167 145.5 -190.5 173 -122 177C-47.6116 181.344 340 165.5 523 110" stroke="url(#paint1_linear_334_7620)"/>
<path d="M-392 124.5C-298.667 161.333 -55.3 231.2 171.5 216C455 197 671.894 104.999 772 105C877.5 105.001 951.167 148.666 974 165.999" stroke="url(#paint2_linear_334_7620)"/>
<rect opacity="0.3" x="48.5" y="63.5" width="293" height="305" rx="19.5" stroke="#BC87FF"/>
<g clip-path="url(#clip0_334_7620)">
<rect x="20" width="350" height="341" rx="36" fill="url(#paint3_linear_334_7620)"/>
<g style="mix-blend-mode:lighten" filter="url(#filter0_f_334_7620)">
<ellipse cx="233.5" cy="331.5" rx="233.5" ry="331.5" transform="matrix(-0.999024 0.0441738 0.672913 0.739721 8 -272)" fill="#FF8E5E"/>
</g>
<rect x="48.5" y="171.5" width="293" height="67" rx="15.5" fill="#D9D9D9" fill-opacity="0.2" stroke="url(#paint4_linear_334_7620)"/>
</g>
<defs>
<filter id="filter0_f_334_7620" x="-628.965" y="-565.906" width="1253.53" height="1098.88" filterUnits="userSpaceOnUse" color-interpolation-filters="sRGB">
<feFlood flood-opacity="0" result="BackgroundImageFix"/>
<feBlend mode="normal" in="SourceGraphic" in2="BackgroundImageFix" result="shape"/>
<feGaussianBlur stdDeviation="152" result="effect1_foregroundBlur_334_7620"/>
</filter>
<linearGradient id="paint0_linear_334_7620" x1="392.733" y1="147.707" x2="680.127" y2="409.447" gradientUnits="userSpaceOnUse">
<stop stop-color="#C4B7B7" stop-opacity="0"/>
<stop offset="0.355" stop-color="white"/>
<stop offset="0.71" stop-color="white"/>
<stop offset="1" stop-color="white" stop-opacity="0"/>
</linearGradient>
<linearGradient id="paint1_linear_334_7620" x1="-272.054" y1="107.631" x2="-40.1057" y2="504.96" gradientUnits="userSpaceOnUse">
<stop stop-color="white" stop-opacity="0"/>
<stop offset="0.355" stop-color="white"/>
<stop offset="0.71" stop-color="white"/>
<stop offset="1" stop-color="white" stop-opacity="0"/>
</linearGradient>
<linearGradient id="paint2_linear_334_7620" x1="-392" y1="160.163" x2="974" y2="160.163" gradientUnits="userSpaceOnUse">
<stop stop-color="white" stop-opacity="0"/>
<stop offset="0.143152" stop-color="white"/>
<stop offset="0.83249" stop-color="white"/>
<stop offset="1" stop-color="white" stop-opacity="0"/>
</linearGradient>
<linearGradient id="paint3_linear_334_7620" x1="195" y1="0" x2="195" y2="341" gradientUnits="userSpaceOnUse">
<stop stop-color="#6E13B6"/>
<stop offset="1" stop-color="#300850"/>
</linearGradient>
<linearGradient id="paint4_linear_334_7620" x1="48" y1="205" x2="342" y2="205" gradientUnits="userSpaceOnUse">
<stop stop-color="white"/>
<stop offset="1" stop-color="#999999"/>
</linearGradient>
<clipPath id="clip0_334_7620">
<rect x="20" width="350" height="341" rx="36" fill="white"/>
</clipPath>
</defs>
</svg>
