<svg width="1600" height="625" viewBox="0 0 1600 625" fill="none" xmlns="http://www.w3.org/2000/svg">
<rect x="178.5" y="56.5" width="1243" height="568" rx="19.5" stroke="#43325F"/>
<g clip-path="url(#clip0_179_9609)">
<rect x="60" width="1480" height="569" rx="36" fill="url(#paint0_linear_179_9609)"/>
<g filter="url(#filter0_f_179_9609)">
<path d="M1272.76 488.374C1260.15 477.55 1217.78 459.384 1197.04 452.049C1148.65 432.918 1098.64 429.767 1024.19 439.928C949.742 450.089 843.719 406.868 800.013 383.988" stroke="url(#paint1_linear_179_9609)"/>
<path d="M186.933 81.0579C219.101 103.571 286.927 156.725 350.174 183.334C418.858 212.23 789.575 326.521 980.609 335.208" stroke="url(#paint2_linear_179_9609)"/>
<path d="M113.125 43.8196C188.838 109.663 394.988 256.67 613.879 317.954C887.494 394.559 1122.65 380.134 1217.03 413.51C1316.49 448.685 1371.39 514.411 1387.14 538.366" stroke="url(#paint3_linear_179_9609)"/>
<path d="M48.8555 56.0957C86.7745 92.8401 164.952 150.715 213.5 176.899" stroke="url(#paint4_linear_179_9609)"/>
<path d="M1325.54 515.969C1292.06 474.219 1248.88 451.341 1209.76 441.657" stroke="url(#paint5_linear_179_9609)"/>
</g>
<g style="mix-blend-mode:lighten" filter="url(#filter1_f_179_9609)">
<ellipse cx="233.5" cy="331.5" rx="233.5" ry="331.5" transform="matrix(-0.999024 0.0441738 0.672913 0.739721 172.544 -272)" fill="#FF8E5E"/>
</g>
<g style="mix-blend-mode:lighten" filter="url(#filter2_f_179_9609)">
<ellipse cx="401.533" cy="331.5" rx="401.533" ry="331.5" transform="matrix(-0.999024 0.0441738 0.672913 0.739721 1452.28 436)" fill="#9B5EFF"/>
</g>
</g>
<defs>
<filter id="filter0_f_179_9609" x="21.5076" y="16.4414" width="1393.05" height="549.199" filterUnits="userSpaceOnUse" color-interpolation-filters="sRGB">
<feFlood flood-opacity="0" result="BackgroundImageFix"/>
<feBlend mode="normal" in="SourceGraphic" in2="BackgroundImageFix" result="shape"/>
<feGaussianBlur stdDeviation="13.5" result="effect1_foregroundBlur_179_9609"/>
</filter>
<filter id="filter1_f_179_9609" x="-464.422" y="-565.906" width="1253.53" height="1098.88" filterUnits="userSpaceOnUse" color-interpolation-filters="sRGB">
<feFlood flood-opacity="0" result="BackgroundImageFix"/>
<feBlend mode="normal" in="SourceGraphic" in2="BackgroundImageFix" result="shape"/>
<feGaussianBlur stdDeviation="152" result="effect1_foregroundBlur_179_9609"/>
</filter>
<filter id="filter2_f_179_9609" x="511.135" y="149.086" width="1526.15" height="1099.74" filterUnits="userSpaceOnUse" color-interpolation-filters="sRGB">
<feFlood flood-opacity="0" result="BackgroundImageFix"/>
<feBlend mode="normal" in="SourceGraphic" in2="BackgroundImageFix" result="shape"/>
<feGaussianBlur stdDeviation="152" result="effect1_foregroundBlur_179_9609"/>
</filter>
<linearGradient id="paint0_linear_179_9609" x1="800" y1="0" x2="800" y2="569" gradientUnits="userSpaceOnUse">
<stop stop-color="#6E13B6"/>
<stop offset="1" stop-color="#300850"/>
</linearGradient>
<linearGradient id="paint1_linear_179_9609" x1="845.224" y1="327.327" x2="1028.91" y2="669.908" gradientUnits="userSpaceOnUse">
<stop stop-color="#C4B7B7" stop-opacity="0"/>
<stop offset="0.355" stop-color="white"/>
<stop offset="0.71" stop-color="white"/>
<stop offset="1" stop-color="white" stop-opacity="0"/>
</linearGradient>
<linearGradient id="paint2_linear_179_9609" x1="231.832" y1="67.9054" x2="318.042" y2="519.833" gradientUnits="userSpaceOnUse">
<stop stop-color="white" stop-opacity="0"/>
<stop offset="0.355" stop-color="white"/>
<stop offset="0.71" stop-color="white"/>
<stop offset="1" stop-color="white" stop-opacity="0"/>
</linearGradient>
<linearGradient id="paint3_linear_179_9609" x1="101.235" y1="77.4425" x2="1389.08" y2="532.863" gradientUnits="userSpaceOnUse">
<stop stop-color="white" stop-opacity="0"/>
<stop offset="0.143152" stop-color="white"/>
<stop offset="0.83249" stop-color="white"/>
<stop offset="1" stop-color="white" stop-opacity="0"/>
</linearGradient>
<linearGradient id="paint4_linear_179_9609" x1="55.2022" y1="63.6435" x2="204.814" y2="184.965" gradientUnits="userSpaceOnUse">
<stop stop-color="white" stop-opacity="0"/>
<stop offset="0.21" stop-color="white"/>
<stop offset="0.815" stop-color="white"/>
<stop offset="1" stop-color="white" stop-opacity="0"/>
</linearGradient>
<linearGradient id="paint5_linear_179_9609" x1="1325.54" y1="515.969" x2="1200.32" y2="464.507" gradientUnits="userSpaceOnUse">
<stop stop-color="white" stop-opacity="0"/>
<stop offset="0.21" stop-color="white"/>
<stop offset="0.815" stop-color="white"/>
<stop offset="1" stop-color="white" stop-opacity="0"/>
</linearGradient>
<clipPath id="clip0_179_9609">
<rect x="60" width="1480" height="569" rx="36" fill="white"/>
</clipPath>
</defs>
</svg>
