<svg width="390" height="453" viewBox="0 0 390 453" fill="none" xmlns="http://www.w3.org/2000/svg">
<rect x="48.5" y="36.5" width="293" height="416" rx="19.5" stroke="#43325F"/>
<g clip-path="url(#clip0_334_7391)">
<rect x="20" width="350" height="425" rx="36" fill="url(#paint0_linear_334_7391)"/>
<g filter="url(#filter0_f_334_7391)">
<path d="M669.759 468.374C657.146 457.55 614.778 439.384 594.037 432.049C545.647 412.918 495.636 409.767 421.189 419.928C346.742 430.089 240.719 386.868 197.013 363.988" stroke="url(#paint1_linear_334_7391)"/>
<path d="M-416.067 61.0579C-383.899 83.5707 -316.073 136.725 -252.826 163.334C-184.142 192.23 186.575 306.521 377.609 315.208" stroke="url(#paint2_linear_334_7391)"/>
<path d="M-489.875 23.8196C-414.162 89.6626 -208.012 236.67 10.8791 297.954C284.494 374.559 519.651 360.134 614.029 393.51C713.493 428.685 768.387 494.411 784.135 518.366" stroke="url(#paint3_linear_334_7391)"/>
</g>
<g style="mix-blend-mode:lighten" filter="url(#filter1_f_334_7391)">
<ellipse cx="233.5" cy="331.5" rx="233.5" ry="331.5" transform="matrix(-0.999024 0.0441738 0.672913 0.739721 -430.456 -292)" fill="#FF8E5E"/>
</g>
<g style="mix-blend-mode:lighten" filter="url(#filter2_f_334_7391)">
<ellipse cx="401.533" cy="331.5" rx="401.533" ry="331.5" transform="matrix(-0.999024 0.0441738 0.672913 0.739721 849.281 416)" fill="#9B5EFF"/>
</g>
</g>
<defs>
<filter id="filter0_f_334_7391" x="-581.493" y="-3.55859" width="1393.05" height="549.199" filterUnits="userSpaceOnUse" color-interpolation-filters="sRGB">
<feFlood flood-opacity="0" result="BackgroundImageFix"/>
<feBlend mode="normal" in="SourceGraphic" in2="BackgroundImageFix" result="shape"/>
<feGaussianBlur stdDeviation="13.5" result="effect1_foregroundBlur_334_7391"/>
</filter>
<filter id="filter1_f_334_7391" x="-1067.42" y="-585.906" width="1253.53" height="1098.88" filterUnits="userSpaceOnUse" color-interpolation-filters="sRGB">
<feFlood flood-opacity="0" result="BackgroundImageFix"/>
<feBlend mode="normal" in="SourceGraphic" in2="BackgroundImageFix" result="shape"/>
<feGaussianBlur stdDeviation="152" result="effect1_foregroundBlur_334_7391"/>
</filter>
<filter id="filter2_f_334_7391" x="-91.8647" y="129.086" width="1526.15" height="1099.74" filterUnits="userSpaceOnUse" color-interpolation-filters="sRGB">
<feFlood flood-opacity="0" result="BackgroundImageFix"/>
<feBlend mode="normal" in="SourceGraphic" in2="BackgroundImageFix" result="shape"/>
<feGaussianBlur stdDeviation="152" result="effect1_foregroundBlur_334_7391"/>
</filter>
<linearGradient id="paint0_linear_334_7391" x1="195" y1="0" x2="195" y2="425" gradientUnits="userSpaceOnUse">
<stop stop-color="#6E13B6"/>
<stop offset="1" stop-color="#300850"/>
</linearGradient>
<linearGradient id="paint1_linear_334_7391" x1="242.224" y1="307.327" x2="425.911" y2="649.908" gradientUnits="userSpaceOnUse">
<stop stop-color="#C4B7B7" stop-opacity="0"/>
<stop offset="0.355" stop-color="white"/>
<stop offset="0.71" stop-color="white"/>
<stop offset="1" stop-color="white" stop-opacity="0"/>
</linearGradient>
<linearGradient id="paint2_linear_334_7391" x1="-371.168" y1="47.9054" x2="-284.958" y2="499.833" gradientUnits="userSpaceOnUse">
<stop stop-color="white" stop-opacity="0"/>
<stop offset="0.355" stop-color="white"/>
<stop offset="0.71" stop-color="white"/>
<stop offset="1" stop-color="white" stop-opacity="0"/>
</linearGradient>
<linearGradient id="paint3_linear_334_7391" x1="-501.765" y1="57.4425" x2="786.081" y2="512.863" gradientUnits="userSpaceOnUse">
<stop stop-color="white" stop-opacity="0"/>
<stop offset="0.143152" stop-color="white"/>
<stop offset="0.83249" stop-color="white"/>
<stop offset="1" stop-color="white" stop-opacity="0"/>
</linearGradient>
<clipPath id="clip0_334_7391">
<rect x="20" width="350" height="425" rx="36" fill="white"/>
</clipPath>
</defs>
</svg>
