<svg width="208" height="99" viewBox="0 0 208 99" fill="none" xmlns="http://www.w3.org/2000/svg">
<g clip-path="url(#clip0_179_9657)">
<path d="M54.0757 53.71L56.0448 52.8147C56.6191 54.6053 58.0139 56.0703 60.3932 56.0703C62.6084 56.0703 63.8392 55.0123 63.8392 53.4658C63.8392 52.0822 62.8546 51.2682 60.9675 50.8613L58.8343 50.373C56.5371 49.8846 54.8141 48.7451 54.8141 46.222C54.8141 43.6988 56.9473 41.9082 60.1471 41.9082C63.593 41.9082 65.2339 44.0244 65.6442 45.4894L63.7571 46.3847C63.429 45.408 62.4444 43.7802 59.9009 43.7802C57.9319 43.7802 56.7832 44.7569 56.7832 46.222C56.7832 47.5242 57.6037 48.1754 59.4087 48.5823L61.5419 49.0707C64.0853 49.6404 65.8903 51.1055 65.8903 53.3845C65.8903 56.0703 63.9212 57.9424 60.2291 57.9424C56.9473 57.9424 54.8141 56.1517 54.0757 53.71Z" fill="white"/>
<path d="M72.9918 57.0984V50.7025L67.5781 41.9882H69.8869L72.5938 46.4653C73.3103 47.7445 73.5491 48.5439 73.5491 49.5833H74.4249C74.4249 48.5439 74.6638 47.6645 75.3803 46.3853L77.9279 41.9082H80.2367L74.9822 50.5427V57.0185H72.9918V57.0984Z" fill="white"/>
<path d="M83.6123 57.0984V41.9082H86.7796L95.281 54.7676L96.0313 54.2854C95.281 53.1602 95.1145 52.3565 95.1145 50.508V41.9082H97.1147V57.0984H94.5307L85.5293 43.5156L84.7792 43.9979C85.3627 45.1231 85.6127 46.1679 85.6127 48.0968V57.0181H83.6123V57.0984Z" fill="white"/>
<path d="M101.334 57.0984V41.9082H106.527C110.991 41.9082 113.993 44.882 113.993 49.4632C113.993 54.2051 111.071 57.0984 106.446 57.0984H101.334ZM103.363 55.2499H106.122C110.017 55.2499 111.883 53.2406 111.883 49.3828C111.883 45.9268 110.017 43.596 106.284 43.596H103.363V55.2499Z" fill="white"/>
<path d="M117.368 57.0984V41.9082H119.056V57.0984H117.368Z" fill="white"/>
<path d="M123.276 49.3477C123.276 45.0855 126.244 41.9082 130.778 41.9082C134.818 41.9082 136.962 44.3105 137.539 46.2479L135.561 46.9453C135.148 45.628 133.829 43.6906 130.778 43.6906C127.48 43.6906 125.337 45.8604 125.337 49.4252C125.337 52.99 127.48 55.4698 130.778 55.4698C133.747 55.4698 134.984 53.8424 135.643 51.9825L137.622 52.68C136.88 55.0048 134.654 57.0972 130.778 57.0972C125.914 57.1747 123.276 53.6874 123.276 49.3477Z" fill="white"/>
<path d="M151.43 57.0984L149.946 52.9191H143.02L141.454 57.0984H139.31L145.164 41.9082H147.885L153.656 57.0984H151.43ZM143.68 51.1509H149.287L147.637 46.5698C147.225 45.3642 146.978 44.5605 146.978 43.2745H146.071C145.988 44.5605 145.823 45.3642 145.411 46.5698L143.68 51.1509Z" fill="white"/>
<path d="M158.431 57.0984V43.6764H152.812V41.9082H166.315V43.6764H160.444V57.0984H158.431Z" fill="white"/>
<path d="M168.846 57.0984V41.9082H179.817V43.6764H170.841V48.2576H177.49V50.0257H170.841V55.2499H179.817V57.0181H168.846V57.0984Z" fill="white"/>
<path d="M49.0123 49.1889L40.2163 49.3323L48.3999 46.2411L48.1458 45.6615L40.073 49.0144L46.3996 43.1623L45.937 42.7198L39.8189 48.7651L43.3243 41.0496L42.7183 40.8065L39.4866 48.6342L39.6299 40.2207H38.9784L39.1283 48.6342L35.8965 40.8065L35.2906 41.0496L38.7959 48.7713L32.6779 42.7198L32.2153 43.1623L38.5418 49.0144L30.4691 45.6615L30.215 46.2411L38.405 49.3323L29.6025 49.1889V49.8121L38.405 49.675L30.215 52.7662L30.4691 53.3458L38.5418 49.9929L32.2153 55.8449L32.6779 56.2875L38.7959 50.2359L35.2906 57.9577L35.8965 58.2007L39.1283 50.3668L38.9784 58.7866H39.6299L39.4866 50.3668L42.7183 58.2007L43.3243 57.9577L39.8189 50.2359L45.937 56.2875L46.3996 55.8449L40.073 49.9929L48.1458 53.3458L48.3999 52.7662L40.2099 49.675L49.0123 49.8121V49.1889Z" fill="white"/>
</g>
<defs>
<clipPath id="clip0_179_9657">
<rect width="150.215" height="19.4098" fill="white" transform="translate(29.6025 40.2207)"/>
</clipPath>
</defs>
</svg>
