<svg width="1600" height="417" viewBox="0 0 1600 417" fill="none" xmlns="http://www.w3.org/2000/svg">
<mask id="path-1-inside-1_280_10702" fill="white">
<path fill-rule="evenodd" clip-rule="evenodd" d="M559.367 0.5C548.045 0.5 538.867 9.67817 538.867 21V396C538.867 406.77 530.136 415.5 519.367 415.5H0.5C0.223858 415.5 0 415.724 0 416C0 416.276 0.22387 416.5 0.500012 416.5H519.367C530.688 416.5 539.867 407.322 539.867 396V21C539.867 10.2305 548.597 1.5 559.367 1.5H777H781H1041.35C1052.12 1.5 1060.85 10.2305 1060.85 21V396C1060.85 407.322 1070.03 416.5 1081.35 416.5H1599.5C1599.78 416.5 1600 416.276 1600 416C1600 415.724 1599.78 415.5 1599.5 415.5H1081.35C1070.58 415.5 1061.85 406.77 1061.85 396V21C1061.85 9.67817 1052.67 0.5 1041.35 0.5H781H777H559.367Z"/>
</mask>
<path d="M539.867 21C539.867 10.2305 548.597 1.5 559.367 1.5V-0.5C547.492 -0.5 537.867 9.12589 537.867 21H539.867ZM539.867 396V21H537.867V396H539.867ZM519.367 416.5C530.689 416.5 539.867 407.322 539.867 396H537.867C537.867 406.217 529.584 414.5 519.367 414.5V416.5ZM0.5 416.5H519.367V414.5H0.5V416.5ZM519.367 415.5H0.500012V417.5H519.367V415.5ZM538.867 396C538.867 406.77 530.136 415.5 519.367 415.5V417.5C531.241 417.5 540.867 407.874 540.867 396H538.867ZM538.867 21V396H540.867V21H538.867ZM559.367 0.5C548.045 0.5 538.867 9.67818 538.867 21H540.867C540.867 10.7827 549.149 2.5 559.367 2.5V0.5ZM777 0.5H559.367V2.5H777V0.5ZM777 2.5H781V0.5H777V2.5ZM781 2.5H1041.35V0.5H781V2.5ZM1041.35 2.5C1051.57 2.5 1059.85 10.7827 1059.85 21H1061.85C1061.85 9.67817 1052.67 0.5 1041.35 0.5V2.5ZM1059.85 21V396H1061.85V21H1059.85ZM1059.85 396C1059.85 407.874 1069.48 417.5 1081.35 417.5V415.5C1070.58 415.5 1061.85 406.77 1061.85 396H1059.85ZM1081.35 417.5H1599.5V415.5H1081.35V417.5ZM1599.5 414.5H1081.35V416.5H1599.5V414.5ZM1081.35 414.5C1071.13 414.5 1062.85 406.217 1062.85 396H1060.85C1060.85 407.322 1070.03 416.5 1081.35 416.5V414.5ZM1062.85 396V21H1060.85V396H1062.85ZM1062.85 21C1062.85 9.12589 1053.22 -0.5 1041.35 -0.5V1.5C1052.12 1.5 1060.85 10.2305 1060.85 21H1062.85ZM1041.35 -0.5H781V1.5H1041.35V-0.5ZM781 -0.5H777V1.5H781V-0.5ZM559.367 1.5H777V-0.5H559.367V1.5ZM1601 416C1601 415.172 1600.33 414.5 1599.5 414.5V416.5C1599.22 416.5 1599 416.276 1599 416H1601ZM1599.5 417.5C1600.33 417.5 1601 416.828 1601 416H1599C1599 415.724 1599.22 415.5 1599.5 415.5V417.5ZM-1 416C-1 416.828 -0.328384 417.5 0.500012 417.5V415.5C0.776123 415.5 1 415.724 1 416H-1ZM0.5 414.5C-0.328427 414.5 -1 415.172 -1 416H1C1 416.276 0.776142 416.5 0.5 416.5V414.5Z" fill="url(#paint0_linear_280_10702)" mask="url(#path-1-inside-1_280_10702)"/>
<defs>
<linearGradient id="paint0_linear_280_10702" x1="0" y1="208.5" x2="1600" y2="208.5" gradientUnits="userSpaceOnUse">
<stop stop-color="#43325F" stop-opacity="0"/>
<stop offset="0.53" stop-color="#43325F"/>
<stop offset="1" stop-color="#43325F" stop-opacity="0"/>
</linearGradient>
</defs>
</svg>
