<svg width="390" height="944" viewBox="0 0 390 944" fill="none" xmlns="http://www.w3.org/2000/svg">
<g style="mix-blend-mode:lighten" filter="url(#filter0_f_334_7351)">
<ellipse cx="71" cy="179.5" rx="71" ry="179.5" transform="matrix(-0.999024 0.0441636 0.672999 0.739644 700 301)" fill="#5E6EFF"/>
</g>
<g opacity="0.3" filter="url(#filter1_f_334_7351)">
<path d="M791.918 268.85C798.86 346.436 802.281 388.751 803.946 453.069C801.56 478.054 797.02 488.85 778.967 498.143C706.331 529.39 655.651 553.444 596.197 576.039C571.142 578.66 561.398 573.301 551.576 559.763C531.377 510.152 521.585 454.243 502.513 383.989C497.635 356.576 501.651 344.669 521.954 330.084C597.57 286.207 707.861 225.35 707.861 225.35C707.861 225.35 728.696 211.798 742.173 212.85C758.142 215.684 765.507 220.153 775.163 229.891C786.339 241.409 789.979 249.95 791.918 268.85Z" fill="#7738A2"/>
</g>
<g opacity="0.54" filter="url(#filter2_f_334_7351)">
<path d="M52.5114 211C21.1794 218.936 12.4727 227.404 7 247.075L25.0476 589H358.536C379.274 577.931 385.637 561.44 386 510.577C375.705 408.51 363.141 350.329 344.412 247.075C334.968 232.76 332.915 223.203 295.762 221.979L52.5114 211Z" fill="#7738A2"/>
</g>
<g style="mix-blend-mode:lighten" filter="url(#filter3_f_334_7351)">
<ellipse cx="71" cy="179.5" rx="71" ry="179.5" transform="matrix(-0.999022 0.0442263 0.672475 0.74012 -351 371)" fill="#FF5EF9"/>
</g>
<g opacity="0.3" filter="url(#filter4_f_334_7351)">
<path d="M-408.906 310.851C-415.835 388.44 -419.248 430.756 -420.902 495.077C-418.512 520.064 -413.97 530.861 -395.917 540.157C-323.278 571.418 -272.596 595.483 -213.141 618.089C-188.087 620.715 -178.344 615.357 -168.525 601.82C-148.335 552.211 -138.554 496.301 -119.495 426.047C-114.622 398.633 -118.64 386.725 -138.944 372.136C-214.564 328.244 -324.861 267.364 -324.861 267.364C-324.861 267.364 -345.697 253.808 -359.174 254.857C-375.142 257.689 -382.505 262.157 -392.159 271.893C-403.333 283.41 -406.971 291.951 -408.906 310.851Z" fill="#7738A2"/>
</g>
<defs>
<filter id="filter0_f_334_7351" x="305.762" y="0.0976562" width="888.221" height="873.607" filterUnits="userSpaceOnUse" color-interpolation-filters="sRGB">
<feFlood flood-opacity="0" result="BackgroundImageFix"/>
<feBlend mode="normal" in="SourceGraphic" in2="BackgroundImageFix" result="shape"/>
<feGaussianBlur stdDeviation="152" result="effect1_foregroundBlur_334_7351"/>
</filter>
<filter id="filter1_f_334_7351" x="360.638" y="72.791" width="583.309" height="643.893" filterUnits="userSpaceOnUse" color-interpolation-filters="sRGB">
<feFlood flood-opacity="0" result="BackgroundImageFix"/>
<feBlend mode="normal" in="SourceGraphic" in2="BackgroundImageFix" result="shape"/>
<feGaussianBlur stdDeviation="70" result="effect1_foregroundBlur_334_7351"/>
</filter>
<filter id="filter2_f_334_7351" x="-133" y="71" width="659" height="658" filterUnits="userSpaceOnUse" color-interpolation-filters="sRGB">
<feFlood flood-opacity="0" result="BackgroundImageFix"/>
<feBlend mode="normal" in="SourceGraphic" in2="BackgroundImageFix" result="shape"/>
<feGaussianBlur stdDeviation="70" result="effect1_foregroundBlur_334_7351"/>
</filter>
<filter id="filter3_f_334_7351" x="-745.25" y="70.1016" width="888.058" height="873.779" filterUnits="userSpaceOnUse" color-interpolation-filters="sRGB">
<feFlood flood-opacity="0" result="BackgroundImageFix"/>
<feBlend mode="normal" in="SourceGraphic" in2="BackgroundImageFix" result="shape"/>
<feGaussianBlur stdDeviation="152" result="effect1_foregroundBlur_334_7351"/>
</filter>
<filter id="filter4_f_334_7351" x="-560.902" y="114.799" width="583.279" height="643.938" filterUnits="userSpaceOnUse" color-interpolation-filters="sRGB">
<feFlood flood-opacity="0" result="BackgroundImageFix"/>
<feBlend mode="normal" in="SourceGraphic" in2="BackgroundImageFix" result="shape"/>
<feGaussianBlur stdDeviation="70" result="effect1_foregroundBlur_334_7351"/>
</filter>
</defs>
</svg>
