<svg width="1600" height="944" viewBox="0 0 1600 944" fill="none" xmlns="http://www.w3.org/2000/svg">
<mask id="path-1-inside-1_280_5113" fill="white">
<path fill-rule="evenodd" clip-rule="evenodd" d="M559.367 262.5C548.045 262.5 538.867 271.678 538.867 283V658C538.867 668.77 530.136 677.5 519.367 677.5H0.5C0.223858 677.5 0 677.724 0 678C0 678.276 0.22387 678.5 0.500012 678.5H519.367C530.688 678.5 539.867 669.322 539.867 658V283C539.867 272.23 548.597 263.5 559.367 263.5H777H781H1041.35C1052.12 263.5 1060.85 272.23 1060.85 283V658C1060.85 669.322 1070.03 678.5 1081.35 678.5H1599.5C1599.78 678.5 1600 678.276 1600 678C1600 677.724 1599.78 677.5 1599.5 677.5H1081.35C1070.58 677.5 1061.85 668.77 1061.85 658V283C1061.85 271.678 1052.67 262.5 1041.35 262.5H781H777H559.367Z"/>
</mask>
<path d="M539.867 283C539.867 272.23 548.597 263.5 559.367 263.5V261.5C547.492 261.5 537.867 271.126 537.867 283H539.867ZM539.867 658V283H537.867V658H539.867ZM519.367 678.5C530.689 678.5 539.867 669.322 539.867 658H537.867C537.867 668.217 529.584 676.5 519.367 676.5V678.5ZM0.5 678.5H519.367V676.5H0.5V678.5ZM519.367 677.5H0.500012V679.5H519.367V677.5ZM538.867 658C538.867 668.77 530.136 677.5 519.367 677.5V679.5C531.241 679.5 540.867 669.874 540.867 658H538.867ZM538.867 283V658H540.867V283H538.867ZM559.367 262.5C548.045 262.5 538.867 271.678 538.867 283H540.867C540.867 272.783 549.149 264.5 559.367 264.5V262.5ZM777 262.5H559.367V264.5H777V262.5ZM777 264.5H781V262.5H777V264.5ZM781 264.5H1041.35V262.5H781V264.5ZM1041.35 264.5C1051.57 264.5 1059.85 272.783 1059.85 283H1061.85C1061.85 271.678 1052.67 262.5 1041.35 262.5V264.5ZM1059.85 283V658H1061.85V283H1059.85ZM1059.85 658C1059.85 669.874 1069.48 679.5 1081.35 679.5V677.5C1070.58 677.5 1061.85 668.77 1061.85 658H1059.85ZM1081.35 679.5H1599.5V677.5H1081.35V679.5ZM1599.5 676.5H1081.35V678.5H1599.5V676.5ZM1081.35 676.5C1071.13 676.5 1062.85 668.217 1062.85 658H1060.85C1060.85 669.322 1070.03 678.5 1081.35 678.5V676.5ZM1062.85 658V283H1060.85V658H1062.85ZM1062.85 283C1062.85 271.126 1053.22 261.5 1041.35 261.5V263.5C1052.12 263.5 1060.85 272.23 1060.85 283H1062.85ZM1041.35 261.5H781V263.5H1041.35V261.5ZM781 261.5H777V263.5H781V261.5ZM559.367 263.5H777V261.5H559.367V263.5ZM1601 678C1601 677.172 1600.33 676.5 1599.5 676.5V678.5C1599.22 678.5 1599 678.276 1599 678H1601ZM1599.5 679.5C1600.33 679.5 1601 678.828 1601 678H1599C1599 677.724 1599.22 677.5 1599.5 677.5V679.5ZM-1 678C-1 678.828 -0.328384 679.5 0.500012 679.5V677.5C0.776123 677.5 1 677.724 1 678H-1ZM0.5 676.5C-0.328427 676.5 -1 677.172 -1 678H1C1 678.276 0.776142 678.5 0.5 678.5V676.5Z" fill="url(#paint0_linear_280_5113)" mask="url(#path-1-inside-1_280_5113)"/>
<g style="mix-blend-mode:lighten" filter="url(#filter0_f_280_5113)">
<ellipse cx="71.1398" cy="179.462" rx="71.1398" ry="179.462" transform="matrix(-0.999024 0.0441738 0.672913 0.739721 1305.14 301)" fill="#5E78FF"/>
</g>
<g opacity="0.3" filter="url(#filter1_f_280_5113)">
<path d="M1396.44 268.85C1403.38 346.437 1406.8 388.752 1408.46 453.071C1406.08 478.056 1401.54 488.852 1383.48 498.145C1310.84 529.395 1260.16 553.451 1200.71 576.048C1175.65 578.669 1165.91 573.31 1156.09 559.773C1135.89 510.162 1126.1 454.253 1107.03 383.999C1102.15 356.586 1106.17 344.679 1126.47 330.093C1202.09 286.214 1312.38 225.352 1312.38 225.352C1312.38 225.352 1333.22 211.8 1346.7 212.851C1362.67 215.685 1370.03 220.153 1379.69 229.891C1390.86 241.409 1394.5 249.951 1396.44 268.85Z" fill="#7738A2"/>
</g>
<g opacity="0.54" filter="url(#filter2_f_280_5113)">
<path d="M657.511 211C626.179 218.936 617.473 227.404 612 247.075L630.048 589H963.536C984.274 577.931 990.637 561.44 991 510.577C980.705 408.51 968.141 350.329 949.412 247.075C939.968 232.76 937.915 223.203 900.762 221.979L657.511 211Z" fill="#7738A2"/>
</g>
<g style="mix-blend-mode:lighten" filter="url(#filter3_f_280_5113)">
<ellipse cx="71.1398" cy="179.462" rx="71.1398" ry="179.462" transform="matrix(-0.999024 0.0441738 0.672913 0.739721 254.141 371)" fill="#FF5EF9"/>
</g>
<g opacity="0.3" filter="url(#filter4_f_280_5113)">
<path d="M195.82 310.85C188.88 388.437 185.46 430.752 183.797 495.071C186.183 520.056 190.724 530.852 208.777 540.145C281.414 571.395 332.093 595.451 391.548 618.048C416.602 620.669 426.346 615.31 436.168 601.773C456.365 552.162 466.155 496.253 485.225 425.999C490.102 398.586 486.087 386.679 465.783 372.093C390.166 328.214 279.874 267.352 279.874 267.352C279.874 267.352 259.04 253.8 245.562 254.851C229.593 257.685 222.229 262.153 212.573 271.891C201.397 283.409 197.758 291.951 195.82 310.85Z" fill="#7738A2"/>
</g>
<defs>
<filter id="filter0_f_280_5113" x="910.687" y="0.105469" width="888.292" height="873.578" filterUnits="userSpaceOnUse" color-interpolation-filters="sRGB">
<feFlood flood-opacity="0" result="BackgroundImageFix"/>
<feBlend mode="normal" in="SourceGraphic" in2="BackgroundImageFix" result="shape"/>
<feGaussianBlur stdDeviation="152" result="effect1_foregroundBlur_280_5113"/>
</filter>
<filter id="filter1_f_280_5113" x="965.156" y="72.793" width="583.307" height="643.9" filterUnits="userSpaceOnUse" color-interpolation-filters="sRGB">
<feFlood flood-opacity="0" result="BackgroundImageFix"/>
<feBlend mode="normal" in="SourceGraphic" in2="BackgroundImageFix" result="shape"/>
<feGaussianBlur stdDeviation="70" result="effect1_foregroundBlur_280_5113"/>
</filter>
<filter id="filter2_f_280_5113" x="472" y="71" width="659" height="658" filterUnits="userSpaceOnUse" color-interpolation-filters="sRGB">
<feFlood flood-opacity="0" result="BackgroundImageFix"/>
<feBlend mode="normal" in="SourceGraphic" in2="BackgroundImageFix" result="shape"/>
<feGaussianBlur stdDeviation="70" result="effect1_foregroundBlur_280_5113"/>
</filter>
<filter id="filter3_f_280_5113" x="-140.313" y="70.1055" width="888.292" height="873.578" filterUnits="userSpaceOnUse" color-interpolation-filters="sRGB">
<feFlood flood-opacity="0" result="BackgroundImageFix"/>
<feBlend mode="normal" in="SourceGraphic" in2="BackgroundImageFix" result="shape"/>
<feGaussianBlur stdDeviation="152" result="effect1_foregroundBlur_280_5113"/>
</filter>
<filter id="filter4_f_280_5113" x="43.7966" y="114.793" width="583.303" height="643.9" filterUnits="userSpaceOnUse" color-interpolation-filters="sRGB">
<feFlood flood-opacity="0" result="BackgroundImageFix"/>
<feBlend mode="normal" in="SourceGraphic" in2="BackgroundImageFix" result="shape"/>
<feGaussianBlur stdDeviation="70" result="effect1_foregroundBlur_280_5113"/>
</filter>
<linearGradient id="paint0_linear_280_5113" x1="0" y1="470.5" x2="1600" y2="470.5" gradientUnits="userSpaceOnUse">
<stop stop-color="#43325F" stop-opacity="0"/>
<stop offset="0.53" stop-color="#43325F"/>
<stop offset="1" stop-color="#43325F" stop-opacity="0"/>
</linearGradient>
</defs>
</svg>
