<svg width="52" height="52" viewBox="0 0 52 52" fill="none" xmlns="http://www.w3.org/2000/svg">
<path d="M13.485 4.21484L12.6156 4.72875L8.62097 7.08906L8.24666 7.31047L8.1417 7.74109L7.1277 11.9437L7.06828 12.1936L7.1277 12.4434L8.1417 16.6441L8.18923 16.8452L8.2427 16.9162L7.60697 17.29L6.88014 17.7186L7.15344 18.5331L9.18144 24.5436L9.23293 24.6939L9.32404 24.8219L9.8647 25.5694L9.63497 25.7055L8.90814 26.132L9.18342 26.9445L10.5935 31.137L7.60499 32.9123L6.54346 33.542L7.34753 34.4927L13.4315 41.6894L13.5781 41.862L13.7821 41.9575L22.9081 46.1683L23.1457 46.278L23.4072 46.2577L30.5051 45.6544L30.7309 45.6341L30.929 45.5183L34.985 43.1153L35.1078 43.0422L35.2088 42.9345L40.2788 37.5273L40.56 37.2287V36.8103V28.795L42.3404 26.6845L43.4891 25.3256L41.7661 24.9844L41.3185 24.895L41.3264 24.8869L43.3544 22.4839L44.8061 20.7634H42.588H39.0331L36.2346 17.0016L36.0524 16.7558L35.7692 16.6522L30.7606 14.822L30.319 14.6616L29.913 14.9012L23.4864 18.7037L18.0658 12.1895L13.994 5.1025L13.485 4.21484ZM13.0295 5.98406L16.8894 12.7034L13.2751 14.8403L9.47257 8.08641L13.0295 5.98406ZM9.22105 8.6775L12.9622 15.3258C12.9701 15.3402 12.9794 15.3538 12.9899 15.3664L19.0739 22.5712C19.0925 22.5931 19.1146 22.6117 19.1392 22.6261L23.1952 25.027C23.2337 25.0498 23.2772 25.0618 23.3216 25.0618C23.3659 25.0619 23.4095 25.0501 23.448 25.0274C23.4865 25.0048 23.5185 24.9723 23.5409 24.933C23.5633 24.8937 23.5752 24.8491 23.5755 24.8036V20.1541L26.3957 18.4844L31.2775 20.2191L34.272 24.3587C34.2958 24.3911 34.3266 24.4174 34.362 24.4353C34.3974 24.4533 34.4365 24.4626 34.476 24.4623H37.9755L36.3396 26.4002L34.3492 27.5803C34.3049 27.607 34.2695 27.6469 34.2478 27.6947C34.226 27.7426 34.219 27.796 34.2276 27.848C34.2362 27.9 34.26 27.9481 34.2959 27.986C34.3318 28.0238 34.378 28.0495 34.4285 28.0597L37.0387 28.5756L35.2979 30.6373C35.2581 30.6848 35.2363 30.7454 35.2365 30.808V39.1097L30.3031 44.3706L23.3656 44.9577L14.3505 40.7977L8.92398 34.3789L13.0988 35.8577C13.1256 35.8671 13.1537 35.8719 13.182 35.8719H15.21C15.2605 35.8719 15.3098 35.8564 15.3517 35.8274C15.3935 35.7985 15.426 35.7574 15.445 35.7094C15.4639 35.6614 15.4684 35.6086 15.458 35.558C15.4475 35.5073 15.4225 35.461 15.3863 35.425L12.3878 32.4634L12.069 31.5433C12.0672 31.5371 12.0652 31.531 12.063 31.525V31.523L10.6014 27.1822L13.0552 28.6305C13.1057 28.6604 13.1647 28.6717 13.2223 28.6622C13.2799 28.6528 13.3325 28.6233 13.3714 28.5787C13.4102 28.534 13.4329 28.4771 13.4356 28.4173C13.4382 28.3575 13.4207 28.2987 13.386 28.2506L11.5738 25.7542C11.5695 25.7472 11.5649 25.7404 11.56 25.7339L10.3677 24.0825L8.57542 18.7687L12.0412 20.8244C12.0917 20.8544 12.1507 20.8656 12.2083 20.8561C12.2659 20.8467 12.3185 20.8172 12.3574 20.7726C12.3962 20.7279 12.4189 20.671 12.4216 20.6112C12.4242 20.5515 12.4067 20.4926 12.372 20.4445L9.94986 17.1011C9.94616 17.0948 9.94219 17.0887 9.93798 17.0828L9.35968 16.2825L8.37341 12.1936L9.22105 8.6775ZM17.1825 13.128L22.8744 19.9692L19.3214 22.0695L13.5741 15.2648L17.1825 13.128ZM30.4457 16.0875L34.8285 17.6881L31.4082 19.7153L26.9779 18.1411L30.4457 16.0875ZM9.66468 17.5784L11.2332 19.7458L8.61899 18.1939L9.66468 17.5784ZM35.3632 17.9705L38.1557 21.7262L34.5433 23.8611L31.8083 20.0789L35.3632 17.9705ZM23.0685 20.4547V24.3527L19.773 22.4006L23.0685 20.4547ZM38.5973 22.0634H41.6393L38.4627 23.9423H35.4227L38.5973 22.0634ZM41.4116 22.7987L40.3956 24.0012L38.4052 25.1753C38.3977 25.1797 38.3905 25.1844 38.3835 25.1895L37.6843 25.6039L38.6964 24.4055L41.4116 22.7987ZM38.5756 25.675L40.8571 26.128L37.4705 28.1328L35.1909 27.6819L36.6307 26.8287C36.6382 26.8244 36.6455 26.8196 36.6525 26.8145L38.5756 25.675ZM11.2887 26.2295L12.2452 27.5519L10.649 26.6073L11.2887 26.2295ZM40.3956 27.0034L39.3816 28.2039L36.6684 29.8106L37.6824 28.6081L40.3956 27.0034ZM39.2925 28.858V36.66L35.7435 38.7644V30.9583L39.2925 28.858ZM11.6848 31.9902L11.9284 32.695C11.9414 32.7335 11.9631 32.7683 11.9917 32.7966L14.0296 34.8095L13.1543 35.3275L8.71801 33.7533L11.6848 31.9902ZM14.4119 35.1853L14.5802 35.3519H14.1287L14.4119 35.1853ZM38.1181 37.9559L34.3176 42.0103L31.842 43.4789L35.6464 39.4205L38.1181 37.9559Z" fill="white"/>
</svg>
